<?xml version="1.0" encoding="utf-8"?>
<!-- Generator: Adobe Illustrator 26.0.1, SVG Export Plug-In . SVG Version: 6.00 Build 0)  -->
<svg version="1.1" id="Layer_1" xmlns="http://www.w3.org/2000/svg" xmlns:xlink="http://www.w3.org/1999/xlink" x="0px" y="0px"
	 viewBox="0 0 62 62" style="enable-background:new 0 0 62 62;" xml:space="preserve">
<style type="text/css">
	.st0{fill:#2E58A6;}
	.st1{fill:#F1B994;}
	.st2{fill:#FFFFFF;}
	.st3{fill:#FAB83F;}
	.st4{fill:#A83677;}
	.st5{fill:#A0642F;}
	.st6{fill:#E5E5E5;}
	.st7{fill:#0296E5;}
	.st8{fill:#026CA2;}
	.st9{fill:#E6AF89;}
	.st10{fill:#333333;}
	.st11{fill:#D16E24;}
	.st12{fill:#FF8001;}
	.st13{fill:#384868;}
	.st14{fill:#E9E9E9;}
	.st15{fill:#D2D5D8;}
	.st16{fill:#AD8132;}
	.st17{fill:#E5B465;}
	.st18{fill:#2D4A63;}
	.st19{fill:#182C3A;}
	.st20{fill:#DDEAFB;}
	.st21{fill:#A51332;}
	.st22{fill:#004C67;}
	.st23{fill:#5B350C;}
	.st24{fill:#ECF4FF;}
	.st25{fill:#DA2A47;}
	.st26{fill:none;stroke:#BCBCBC;stroke-width:0.25;stroke-miterlimit:10;}
	.st27{fill:none;stroke:#333333;stroke-width:1.5;stroke-miterlimit:10;}
	.st28{fill:none;stroke:#333333;stroke-width:0.75;stroke-miterlimit:10;}
	.st29{fill:none;stroke:#333333;stroke-width:0.5;stroke-miterlimit:10;}
</style>
<g>
	<path class="st0" d="M33.7,52H19.9v-10c0-2.4,1.9-4.3,4.3-4.3h5.4c2.3,0,4.1,1.9,4.1,4.1V52z"/>
	<polygon class="st1" points="25.4,36.5 25.4,39.6 28.2,39.6 28.1,35.7 	"/>
	<polygon class="st6" points="25.2,38.8 24.5,44.1 25.3,52.8 28.2,54.8 28.2,53 28.9,46.9 28.9,40.6 28.3,39.3 	"/>
	<polygon class="st7" points="28.1,37.6 30.8,40.7 28.1,52.5 	"/>
	<polygon class="st7" points="25.4,37.8 22.8,40.8 25.4,52.6 	"/>
	<polyline class="st2" points="25.4,39.6 26.6,38.8 28.2,39.6 28.1,37.6 26.6,38.4 25.4,37.8 	"/>
	<polygon class="st7" points="25.9,39.3 26.2,40.5 27.4,40.5 27.8,39.4 26.6,38.8 	"/>
	<polygon class="st8" points="26.2,40.5 24.8,51.9 29,51.9 27.4,40.5 	"/>
	<path class="st9" d="M29,32.8c0,2.5-0.2,4.5-2.3,4.5s-2.8-3.6-2.8-6.2s0.8-2.7,2.9-2.7S29,30.3,29,32.8z"/>
	<ellipse class="st1" cx="26.8" cy="32.1" rx="4.6" ry="4.8"/>
	<path class="st10" d="M24.8,28.7l-1.9,2.4v1.8h-1c0,0-1.2-4.1,1.7-5h0.7c0,0,0.4-2.1,3.2-1.6c2.8,0.4,4.6,2.9,4.4,6.2l-1.1-0.4
		l-0.3-1C30.5,31.1,25.1,30,24.8,28.7z"/>
	<ellipse class="st1" cx="31.4" cy="32.6" rx="0.7" ry="0.7"/>
	<ellipse class="st1" cx="22.5" cy="33.3" rx="0.7" ry="0.7"/>
	<path class="st11" d="M56.3,19.1h-7.8v-5.5c0-1.1,0.9-2,2-2h4c1,0,1.8,0.8,1.8,1.8V19.1z"/>
	<polygon class="st1" points="51.7,10.7 51.7,12.4 53.1,12.4 53,10.3 	"/>
	<polygon class="st6" points="51.5,11.9 51.2,14.7 51.6,19.2 53.1,20.3 53.1,19.3 53.4,16.2 53.4,12.9 53.2,12.2 	"/>
	<polygon class="st12" points="53.1,11.6 54.4,13.2 53.1,19.3 	"/>
	<polygon class="st12" points="51.7,11.7 50.3,13.3 51.7,19.4 	"/>
	<polyline class="st2" points="51.7,12.7 52.3,12.2 53.1,12.7 53.1,11.6 52.3,12 51.7,11.7 	"/>
	<path class="st9" d="M53.5,8.8c0,1.3-0.1,2.3-1.2,2.3s-1.4-1.9-1.4-3.2s0.4-1.4,1.5-1.4S53.5,7.5,53.5,8.8z"/>
	<ellipse class="st1" cx="52.5" cy="8.4" rx="2.3" ry="2.8"/>
	<ellipse class="st1" cx="54.8" cy="8.7" rx="0.4" ry="0.4"/>
	<ellipse class="st1" cx="50.2" cy="9.1" rx="0.4" ry="0.4"/>
	<path class="st2" d="M48.5,17.5c0,0,2.6,2.5,7.6,0.3l0.4,1.9c0,0-2.9,1.9-3.5,2s-4.5-0.6-4.5-0.6l-0.7-2L48.5,17.5z"/>
	<path class="st6" d="M57,50.3h-7.2v-4.2c0-1.8,1.5-3.3,3.3-3.3h0.7c1.8,0,3.2,1.4,3.2,3.2V50.3z"/>
	<polygon class="st1" points="52.7,42.2 52.7,43.8 54.2,43.8 54.1,41.8 	"/>
	<path class="st9" d="M54.6,40.3c0,1.3-0.1,2.3-1.2,2.3c-1.1,0-1.4-1.9-1.4-3.2c0-1.3,0.4-1.4,1.5-1.4S54.6,39,54.6,40.3z"/>
	<ellipse class="st1" cx="53.4" cy="39.9" rx="2.4" ry="2.5"/>
	<ellipse class="st1" cx="55.9" cy="40.2" rx="0.4" ry="0.4"/>
	<ellipse class="st1" cx="51.2" cy="40.6" rx="0.4" ry="0.4"/>
	<path class="st2" d="M49.8,49c0,0,2.6,2.5,7.6,0.3l0.4,1.9c0,0-2.9,1.9-3.5,2c-0.6,0.1-4.5-0.6-4.5-0.6l-0.7-2L49.8,49z"/>
	<path class="st2" d="M31.8,15.9c0,0,2.1,2.1,6.3,0.3l0.4,1.6c0,0-2.4,1.6-2.9,1.7c-0.5,0.1-3.7-0.5-3.7-0.5l-0.6-1.7L31.8,15.9z"/>
	<path class="st13" d="M12,21.4H4.4v-5.2c0-1.2,1-2.2,2.2-2.2H10c1.2,0,2,0.9,2,2.1V21.4z"/>
	<polygon class="st1" points="7,12.7 7,15.4 9.5,15.4 9.4,12.1 	"/>
	<path class="st9" d="M9.5,11.2c0,1.3-0.1,2.3-1.2,2.3s-1.4-1.9-1.4-3.2s0.4-1.4,1.5-1.4S9.5,9.9,9.5,11.2z"/>
	<ellipse class="st1" cx="8.3" cy="10.8" rx="2.6" ry="2.7"/>
	<ellipse class="st1" cx="10.9" cy="11" rx="0.4" ry="0.4"/>
	<ellipse class="st1" cx="5.9" cy="11.4" rx="0.4" ry="0.4"/>
	<path class="st2" d="M19.6,49.5c0,0,4.9,4.8,14.6,0.7l0.8,3.7c0,0-5.6,3.7-6.8,3.8c-1.1,0.1-8.7-1.1-8.7-1.1l-1.4-3.9L19.6,49.5z"
		/>
	<path class="st14" d="M34.2,16.9h-1.3c-1.6,0-2.9-1.3-2.9-2.9v-0.7c0-1.7,1.3-3,3-3h1c1.6,0,2.9,1.3,2.9,2.9v1
		C36.9,15.7,35.7,16.9,34.2,16.9z"/>
	<path class="st10" d="M51.9,41.9c0,0,1.4,1.3,3.1-0.1C55.1,41.8,53.6,42.8,51.9,41.9z"/>
	<polygon class="st1" points="32.7,9.6 32.7,10.5 34.1,10.5 34.1,9.3 	"/>
	
		<ellipse transform="matrix(6.532971e-02 -0.9979 0.9979 6.532971e-02 23.3947 40.6974)" class="st1" cx="33.4" cy="7.9" rx="2.4" ry="2"/>
	<path class="st15" d="M30.9,8.1c0,0-0.1-2.5,2.4-2.7c0,0,2.4-0.1,2.5,2.3c0.1,2.3,0.8,4.3,0.8,4.3l-1.8-1.5l-0.2-3.3l-2.4,0
		l0.1,3.4l-1.7,1.1L30.9,8.1z"/>
	<path class="st16" d="M34.8,10.5l-0.5,6.4c0,0,2.2-0.2,2.6-0.7C36.9,16.2,37.8,11.1,34.8,10.5z"/>
	<path class="st16" d="M32.3,10.5l0.5,6.4c0,0-2.5-0.5-2.8-0.9C29.9,16,29.2,11.1,32.3,10.5z"/>
	<polygon class="st17" points="32.3,10.5 32.7,16.9 31.6,16.7 31.6,10.7 	"/>
	<polygon class="st17" points="34.8,10.5 34.3,16.9 35.4,16.7 35.4,10.7 	"/>
	<path class="st18" d="M31.1,6.8c0,0,1.9-0.6,4.5-0.1L35.7,7c0,0-2.4-0.3-4.6,0.1L31.1,6.8z"/>
	<path class="st19" d="M31.2,6.7c0,0,1.9-0.3,4.3,0l0.1,0.2c0,0-2.2-0.3-4.5,0.1L31.2,6.7z"/>
	<path class="st2" d="M4.4,19.3c0,0,2.6,2.5,7.6,0.3l0.4,1.9c0,0-2.9,1.9-3.5,2c-0.6,0.1-4.5-0.6-4.5-0.6l-0.7-2L4.4,19.3z"/>
	<path class="st20" d="M7,13.9c0,0-0.7-0.1-1.1,0.2l2.5,6.1l0,0l2.7-6c0,0-0.1-0.1-0.7-0.3c-0.2,0-0.8-0.1-0.8-0.1L7,13.9z"/>
	<path class="st10" d="M50.7,6.2c0,0-1.1,0.8-0.8,2.6c0,0,0.4-0.2,0.5,0.1c0,0-0.3-0.8,0.1-1l0.2,0.2c0.2,0.3,0.6,0,0.3-0.8
		c0,0,0.6,0.8,2.1,0.4c0,0-0.4-0.6-0.4-0.7s0.2,0.3,0.8,0.4c0,0,0.4-0.2,0.3-0.6c0,0,0.8,0.7,0.8,1.6c0,0,0.3-0.2,0.5,0l0,0
		c0,0,0.2-3.6-4.1-2.7C51,5.8,50.6,5.9,50.7,6.2z"/>
	<polygon class="st21" points="7.7,14.8 8.1,15.3 8.7,15.3 9.1,14.8 8.3,14.3 	"/>
	<path class="st22" d="M6.2,16.9H4.9c-0.1,0-0.1-0.1-0.1-0.1v0c0-0.1,0.1-0.1,0.1-0.1h1.3c0.1,0,0.1,0.1,0.1,0.1v0
		C6.3,16.8,6.3,16.9,6.2,16.9z"/>
	<path class="st23" d="M9.5,8.5c0,0-0.8,0.7-2.4,0.3c0,0-1.3,0.4-1.1,2.9c0,0-1.1-0.8-0.2-2.7s2.8-2,3.7-1.1c0,0,3.2,0.1,1.1,4
		C10.6,11.8,10.8,8.8,9.5,8.5z"/>
	<polyline class="st24" points="7,13.9 8.3,14.2 9.5,13.8 9.1,14.8 8.3,14.3 7.7,14.8 	"/>
	<path class="st2" d="M50.1,49c0,0,2.6,2.5,7.6,0.3l0.4,1.9c0,0-2.9,1.9-3.5,2s-4.5-0.6-4.5-0.6l-0.7-2L50.1,49z"/>
	<polygon class="st25" points="8.1,15.3 7.4,20.6 9.5,20.6 8.7,15.3 	"/>
	<line class="st26" x1="53.4" y1="43.8" x2="53.5" y2="50"/>
	<circle class="st16" cx="53.9" cy="45" r="0.1"/>
	<circle class="st16" cx="53.9" cy="45.9" r="0.1"/>
	<circle class="st16" cx="53.9" cy="46.8" r="0.1"/>
	<circle class="st16" cx="53.9" cy="47.7" r="0.1"/>
	<g>
		<path class="st10" d="M51.1,43.6c0,0-0.8-0.1-1.2,1.8l-0.3,3.9c0,0,2.6,1.3,2.6,0.6C52.1,48.3,51.1,43.6,51.1,43.6L51.1,43.6z"/>
		<path class="st16" d="M51.2,43.5l1.2,6.7l-0.3-0.2L51,43.6C51,43.6,51,43.5,51.2,43.5z"/>
	</g>
	<g>
		<path class="st10" d="M55.8,43.5c0,0,0.8-0.1,1.2,1.9l0.3,4c0,0-2.5,1.3-2.7,0.7C54.3,49,55.8,43.5,55.8,43.5L55.8,43.5z"/>
		<path class="st16" d="M55.6,43.3l-1.3,7h0.2l1.3-6.8C55.9,43.5,55.9,43.3,55.6,43.3z"/>
	</g>
	<path class="st15" d="M50.4,39.8c0,0-0.1-3,2.9-3.3c0,0,3-0.1,3.1,2.8c0.2,2.9,0.9,5.3,0.9,5.3s-1.7,0-2.1-0.4
		c-0.9-1-0.4-5.4-0.4-5.4l-3,0c0,0,0.6,3.5,0.1,4.6c-0.3,0.7-2.2,2-2.2,2L50.4,39.8z"/>
	<path class="st10" d="M50.7,38.3c0,0,2.3-0.7,5.5-0.1l0.1,0.3c0,0-2.9-0.4-5.7,0.1L50.7,38.3z"/>
	<path class="st16" d="M50.8,38.1c0,0,2.3-0.4,5.3-0.1l0.1,0.2c0,0-2.7-0.4-5.5,0.1L50.8,38.1z"/>
	<circle class="st27" cx="27.2" cy="38.1" r="14.3"/>
	<circle class="st28" cx="52.4" cy="11.6" r="7.3"/>
	<circle class="st29" cx="8.4" cy="12.8" r="7.8"/>
	<circle class="st29" cx="33.4" cy="10.8" r="6.2"/>
	<circle class="st29" cx="53.6" cy="42.6" r="7.9"/>
	<line class="st27" x1="32.7" y1="16.9" x2="30.7" y2="24.1"/>
	<line class="st27" x1="47.7" y1="17.3" x2="37.1" y2="28"/>
	<line class="st27" x1="45.7" y1="42" x2="41.6" y2="41.1"/>
	<line class="st27" x1="13" y1="19.1" x2="18.7" y2="26.6"/>
</g>
</svg>
