<?xml version="1.0" encoding="utf-8"?>
<!-- Generator: Adobe Illustrator 26.0.1, SVG Export Plug-In . SVG Version: 6.00 Build 0)  -->
<svg version="1.1" id="Layer_1" xmlns="http://www.w3.org/2000/svg" xmlns:xlink="http://www.w3.org/1999/xlink" x="0px" y="0px"
	 viewBox="0 0 62 62" style="enable-background:new 0 0 62 62;" xml:space="preserve">
<style type="text/css">
	.st0{fill:#5BAF79;}
	.st1{fill:#0C6F34;}
	.st2{fill:#FAB83F;}
</style>
<path class="st2" d="M19.1,3.7h23.9c2.8,0,5.1,2.3,5,5.1c0,0.6,0,1.1-0.1,1.7h11.3c1.4,0,2.6,1.1,2.6,2.6c0,9.9-3.6,16.7-8.4,21.4
	c-4.7,4.6-10.5,6.9-14.7,8.1c-2.5,0.7-4.2,2.8-4.2,4.9c0,2.2,1.8,4,4,4h2.8c1.9,0,3.4,1.5,3.4,3.4c0,1.9-1.5,3.4-3.4,3.4H20.7
	c-1.9,0-3.4-1.5-3.4-3.4c0-1.9,1.5-3.4,3.4-3.4h2.8c2.2,0,4-1.8,4-4c0-2.1-1.7-4.2-4.2-4.9c-4.3-1.2-10-3.5-14.7-8.1
	C3.8,29.8,0.3,23,0.3,13.1c0-1.4,1.1-2.6,2.6-2.6h11.3c0-0.6-0.1-1.1-0.1-1.7C13.9,6,16.2,3.7,19.1,3.7z M14.5,15.6h-9
	c0.5,7.1,3.3,11.9,6.7,15.2c2.4,2.3,5.2,4,7.8,5.2C17.6,31.7,15.4,25.2,14.5,15.6L14.5,15.6z M42,36c2.7-1.2,5.4-2.8,7.8-5.2
	c3.4-3.3,6.2-8.1,6.7-15.2h-9C46.5,25.2,44.4,31.7,42,36L42,36z M31.8,12.9c-0.3-0.6-1.2-0.6-1.5,0l-2,4.1c-0.1,0.3-0.4,0.4-0.6,0.5
	L23,18.2c-0.7,0.1-1,1-0.5,1.5l3.3,3.2c0.2,0.2,0.3,0.5,0.2,0.8l-0.8,4.6c-0.1,0.7,0.6,1.2,1.2,0.9l4.1-2.1c0.2-0.1,0.5-0.1,0.8,0
	l4.1,2.2c0.6,0.3,1.4-0.2,1.2-0.9L36,23.6c0-0.3,0-0.6,0.2-0.8l3.3-3.2c0.5-0.5,0.2-1.4-0.5-1.5l-4.6-0.7c-0.3,0-0.5-0.2-0.6-0.5
	L31.8,12.9z"/>
</svg>
