<?xml version="1.0" encoding="utf-8"?>
<!-- Generator: Adobe Illustrator 26.0.1, SVG Export Plug-In . SVG Version: 6.00 Build 0)  -->
<svg version="1.1" id="Layer_1" xmlns="http://www.w3.org/2000/svg" xmlns:xlink="http://www.w3.org/1999/xlink" x="0px" y="0px"
	 viewBox="0 0 62 62" style="enable-background:new 0 0 62 62;" xml:space="preserve">
<style type="text/css">
	.st0{fill:#2E58A6;}
	.st1{fill:#F1B994;}
	.st2{fill:#FFFFFF;}
	.st3{fill:#FAB83F;}
	.st4{fill:#A83677;}
	.st5{fill:#EAA792;}
	.st6{fill:#333333;}
	.st7{fill:#566F79;}
	.st8{fill:#A0642F;}
	.st9{fill:#E5E5E5;}
	.st10{fill:#0296E5;}
	.st11{fill:#026CA2;}
	.st12{fill:#E6AF89;}
	.st13{fill:#D16E24;}
	.st14{fill:#FF8001;}
	.st15{fill:#384868;}
	.st16{fill:#E9E9E9;}
	.st17{fill:#D2D5D8;}
	.st18{fill:#AD8132;}
	.st19{fill:#E5B465;}
	.st20{fill:#2D4A63;}
	.st21{fill:#182C3A;}
	.st22{fill:#DDEAFB;}
	.st23{fill:#A51332;}
	.st24{fill:#004C67;}
	.st25{fill:#5B350C;}
	.st26{fill:#ECF4FF;}
	.st27{fill:#DA2A47;}
	.st28{fill:none;stroke:#BCBCBC;stroke-width:0.25;stroke-miterlimit:10;}
	.st29{fill:none;stroke:#333333;stroke-width:1.5;stroke-miterlimit:10;}
	.st30{fill:none;stroke:#333333;stroke-width:0.75;stroke-miterlimit:10;}
	.st31{fill:none;stroke:#333333;stroke-width:0.5;stroke-miterlimit:10;}
</style>
<g>
	<path class="st5" d="M20.1,24.3c0,0.1,0,0.2,0,0.3c0,0.1,0,0.2,0,0.3c0,0.9,0.3,1.9,0.9,2.7c1.5,2.1,4.4,2.6,6.4,1.1l5.5-3.9
		c0.4,0.4,0.8,0.8,1.3,1.2l13.7,12.5c0.5,0.5,0.9,1.1,1.2,1.7c0,0.1,0,0.1,0.1,0.2h0.3L49.6,19l-0.5-0.3l-6.8-4.6
		c-1.6-1-3.4-1.6-5.3-1.6c-2,0-3.9,0.6-5.6,1.8c-0.3,0.2-0.6,0.4-0.9,0.6c-2.9,2-5.7,4.1-8.6,6.1c-0.1,0.1-0.2,0.1-0.2,0.2
		c-0.1,0.1-0.1,0.1-0.2,0.2c-0.1,0.1-0.3,0.3-0.4,0.4c-0.2,0.3-0.4,0.6-0.6,0.9c-0.2,0.3-0.3,0.7-0.4,1C20.1,24,20.1,24.1,20.1,24.3
		L20.1,24.3z M52.4,18.7v13.7c0,1.1,1.4,2,3.1,2h3.1c1.7,0,3.1-0.9,3.1-2V19.7c0-0.5-0.7-1-1.5-1H52.4z M58.5,38.7
		c0,0.9-0.7,1.5-1.5,1.5c-0.9,0-1.5-0.7-1.5-1.5c0-0.9,0.7-1.5,1.5-1.5C57.8,37.2,58.5,37.8,58.5,38.7z"/>
	<path class="st1" d="M15.1,40.2h-2.7V18.7l6.9-4.6c1.5-1,3.3-1.5,5.1-1.5c2.2,0,4.3,0.8,6,2.2l0.3,0.2L22,21.1
		c-2.1,1.5-2.6,4.4-1.1,6.4s4.4,2.6,6.4,1.1l5.5-3.9l1.3,1.2l13.7,12.5c0.5,0.5,0.9,1.1,1.2,1.7c0.6,1.6,0.4,3.5-0.9,4.8
		c-1.7,1.9-4.6,2-6.5,0.3l-0.8-0.7c-0.1,1-0.5,1.9-1.2,2.7c-1.7,1.9-4.6,2-6.5,0.3L31.4,46c-0.2,0.7-0.5,1.4-1.1,2
		c-1.7,1.9-4.6,2-6.5,0.3L15.1,40.2z M0,20.2c0-0.8,0.7-1.5,1.5-1.5h7.7v18.5c0,3.4-2.8-0.5-6.2-0.5l0-3.9c-1.7,0-3.1,9.2-3.1,7.5
		V20.2z M6.2,38.7c0-0.9-0.7-1.5-1.5-1.5s-1.5,0.7-1.5,1.5c0,0.9,0.7,1.5,1.5,1.5S6.2,39.5,6.2,38.7z"/>
	<rect x="-0.2" y="18.2" class="st6" width="11" height="22.8"/>
	<circle class="st2" cx="6.9" cy="38.4" r="1.2"/>
	<rect x="51" y="18.2" class="st7" width="11.2" height="22.8"/>
	<ellipse class="st2" cx="57.8" cy="38.4" rx="1.2" ry="1.3"/>
</g>
</svg>
