<?xml version="1.0" encoding="utf-8"?>
<!-- Generator: Adobe Illustrator 26.0.1, SVG Export Plug-In . SVG Version: 6.00 Build 0)  -->
<svg version="1.1" id="Layer_1" xmlns="http://www.w3.org/2000/svg" xmlns:xlink="http://www.w3.org/1999/xlink" x="0px" y="0px"
	 viewBox="0 0 62 62" style="enable-background:new 0 0 62 62;" xml:space="preserve">
<style type="text/css">
	.st0{fill:#2E58A6;}
	.st1{fill:#F1B994;}
	.st2{fill:#FFFFFF;}
	.st3{fill:#FAB83F;}
	.st4{fill:#EAA792;}
	.st5{fill:#333333;}
	.st6{fill:#566F79;}
	.st7{fill:#A83677;}
</style>
<path class="st0" d="M20.8,61.9H0.9V47.9c0-3.2,2.6-5.8,5.8-5.8h8.4c3.1,0,5.6,2.5,5.6,5.6V61.9z"/>
<circle class="st1" cx="10.9" cy="34.6" r="6.6"/>
<path class="st0" d="M61.1,61.9H41.2V47.9c0-3.2,2.6-5.8,5.8-5.8h8.4c3.1,0,5.6,2.5,5.6,5.6V61.9z"/>
<path class="st2" d="M40.5,87.2H20.4c-2.2,0-4-1.8-4-4V44.4c0-5.4,4.4-9.8,9.8-9.8h8.7c5.3,0,9.6,4.3,9.6,9.6v39
	C44.5,85.4,42.7,87.2,40.5,87.2z"/>
<circle class="st1" cx="51.1" cy="34.6" r="6.6"/>
<g>
	<g>
		<path class="st3" d="M12.1,13.1l1.8,3.4l3.8,0.7L15,19.9l0.5,3.8L12.1,22l-3.4,1.7l0.5-3.8l-2.7-2.7l3.8-0.7L12.1,13.1z"/>
		<path class="st3" d="M19.5,3.7l1.8,3.4l3.8,0.7l-2.7,2.7l0.5,3.8l-3.4-1.7l-3.4,1.7l0.5-3.8l-2.7-2.7l3.8-0.7L19.5,3.7z"/>
		<path class="st3" d="M31.8,0.5l1.8,3.4l3.8,0.7l-2.7,2.7l0.5,3.8l-3.4-1.7l-3.4,1.7l0.5-3.8l-2.7-2.7L30,3.9L31.8,0.5z"/>
		<path class="st3" d="M44,3.7l1.8,3.4l3.8,0.7l-2.7,2.7l0.5,3.8L44,12.6l-3.4,1.7l0.5-3.8l-2.7-2.7l3.8-0.7L44,3.7z"/>
		<path class="st3" d="M51.4,13.1l1.8,3.4l3.8,0.7l-2.7,2.7l0.5,3.8L51.4,22L48,23.7l0.5-3.8l-2.7-2.7l3.8-0.7L51.4,13.1z"/>
	</g>
</g>
<path class="st7" d="M42.7,61.9H17.9V43c0-3.2,2.6-5.8,5.8-5.8H37c3.1,0,5.6,2.5,5.6,5.6V61.9z"/>
<circle class="st1" cx="30.3" cy="27.7" r="8.3"/>
</svg>
