<?xml version="1.0" encoding="utf-8"?>
<!-- Generator: Adobe Illustrator 16.0.0, SVG Export Plug-In . SVG Version: 6.00 Build 0)  -->
<!DOCTYPE svg PUBLIC "-//W3C//DTD SVG 1.1//EN" "http://www.w3.org/Graphics/SVG/1.1/DTD/svg11.dtd">
<svg version="1.1" id="Layer_1" xmlns="http://www.w3.org/2000/svg" xmlns:xlink="http://www.w3.org/1999/xlink" x="0px" y="0px"
	 width="130.5px" height="35px" viewBox="0 0 130.5 35" enable-background="new 0 0 130.5 35" xml:space="preserve">
<path d="M115.535,19.057c-0.07,0.197-0.065,0.412,0.016,0.608l0.389,0.936h-1.343l-5.604-13.512
	c-0.119-0.287-0.273-0.559-0.454-0.813c-0.183-0.253-0.395-0.486-0.634-0.696h2.794c-0.438,0.384-0.583,0.982-0.363,1.509
	l4.993,12.039l1.66-4.646l0.621-1.738l0.099,0.236l-0.622,1.739L115.535,19.057z"/>
<path d="M126.5,5.58l-0.521,0.63c-0.304,0.366-0.54,0.778-0.697,1.218l-4.157,11.629c-0.07,0.197-0.065,0.412,0.017,0.608
	l0.388,0.936h-1.343l-2.44-5.882l-0.098-0.237l-3.066-7.393c-0.118-0.287-0.272-0.559-0.455-0.813
	c-0.182-0.252-0.395-0.486-0.632-0.695h2.792c-0.437,0.384-0.582,0.982-0.364,1.509l2.347,5.655l0.099,0.236l2.549,6.145
	l4.251-11.889c0.137-0.379,0.09-0.795-0.126-1.14l-0.322-0.516H126.5z"/>
<path d="M25.958,20.289c-3.442,0.761-7.021-1.835-7.995-5.8s1.028-7.797,4.47-8.56c3.442-0.762,7.022,1.834,7.995,5.8
	S29.401,19.527,25.958,20.289 M24.195,5.617c-4.357,0-7.888,3.355-7.888,7.492c0,4.138,3.531,7.492,7.888,7.492
	c4.356,0,7.888-3.354,7.888-7.492C32.083,8.972,28.552,5.617,24.195,5.617"/>
<path d="M66.344,20.289c-3.442,0.761-7.022-1.835-7.995-5.8c-0.973-3.965,1.027-7.797,4.47-8.56c3.441-0.762,7.021,1.834,7.994,5.8
	S69.786,19.527,66.344,20.289 M64.58,5.617c-4.356,0-7.888,3.355-7.888,7.492c0,4.138,3.531,7.492,7.888,7.492
	c4.356,0,7.888-3.354,7.888-7.492C72.468,8.972,68.936,5.617,64.58,5.617"/>
<path d="M13.794,9.486c0,2.07-1.767,3.748-3.946,3.748H6.51V5.738h3.338C12.027,5.738,13.794,7.416,13.794,9.486 M11.121,5.617H6.51
	H5.167H4.442c0.463,0.406,0.725,0.977,0.725,1.575v11.834c0,0.6-0.262,1.169-0.725,1.575h0.725H6.51h0.726
	c-0.462-0.406-0.726-0.976-0.726-1.575v-5.67h4.611c2.25,0,4.073-1.733,4.073-3.87S13.37,5.617,11.121,5.617"/>
<path d="M96.113,5.58L96.113,5.58h-2.795c0.463,0.406,0.725,0.976,0.725,1.574v11.872c0,0.6-0.262,1.169-0.725,1.575h0.725h1.343
	h0.728c-0.463-0.406-0.728-0.976-0.728-1.575V7.154C95.386,6.556,95.65,5.985,96.113,5.58"/>
<path d="M57.415,5.617h-0.007h-1.155h-4.043h-1.343h-4.038h-1.161h-0.001l-0.48,1.157c0.954-0.673,2.111-1.035,3.3-1.035h2.379
	v13.287c0,0.6-0.263,1.169-0.725,1.575h2.793c-0.462-0.406-0.726-0.976-0.726-1.575V5.738h2.385c1.189,0,2.346,0.362,3.301,1.035
	L57.415,5.617z"/>
<path d="M99.815,20.479v-0.515l-0.003-6.386h2.063c0.957,0,1.872,0.38,2.524,1.049v-2.22c-0.652,0.669-1.567,1.049-2.524,1.049
	h-2.063l-0.004-7.719h4.304c1.188,0,2.345,0.362,3.299,1.035l-0.479-1.157h-0.007h-1.154h-5.962V5.58h-2.062
	c0.461,0.405,0.726,0.976,0.726,1.575v11.871c0,0.6-0.265,1.17-0.726,1.575h0.726h0.828h0.515h5.955h1.154h0.007l0.479-1.155
	c-0.954,0.671-2.11,1.034-3.299,1.034H99.815z"/>
<path d="M91.062,6.209l0.523-0.63h-1.781l0.322,0.517c0.214,0.344,0.262,0.76,0.124,1.14l-4.249,11.891L81.007,7.088
	c-0.218-0.526-0.074-1.125,0.364-1.509h-2.793c0.478,0.419,0.849,0.935,1.087,1.509l5.606,13.512h1.341l-0.386-0.936
	c-0.082-0.196-0.087-0.411-0.017-0.608l4.157-11.629C90.523,6.987,90.76,6.576,91.062,6.209"/>
<path d="M40.605,13.301c1.925-0.309,3.391-1.899,3.391-3.815c0-2.136-2.063-3.869-4.657-3.869h-4.025H33.97h-0.726
	c0.462,0.405,0.726,0.976,0.726,1.574v11.834c0,0.6-0.263,1.169-0.726,1.576h0.726h1.343h0.725
	c-0.462-0.407-0.725-0.977-0.725-1.576V5.738h3.338c2.178,0,3.945,1.678,3.945,3.748c0,1.837-1.391,3.364-3.226,3.686
	c0,0,0.613,0.096,1.19,0.749c1.384,1.568,1.553,6.294,4.261,6.681h1.309C43.314,20.257,43.928,14.56,40.605,13.301"/>
<path d="M33.35,28.267c0-0.445-0.309-0.699-0.895-0.699h-0.779v1.394h0.779C33.041,28.961,33.35,28.703,33.35,28.267 M33.367,30.095
	L32.698,29.2c-0.076,0.007-0.151,0.012-0.235,0.012h-0.787v0.883h-0.309v-2.782h1.096c0.745,0,1.197,0.357,1.197,0.954
	c0,0.437-0.243,0.743-0.67,0.874l0.715,0.954H33.367z"/>
<path d="M36.66,29.112l-0.703-1.493l-0.703,1.493H36.66z M36.772,29.352h-1.631l-0.352,0.743h-0.322l1.339-2.782h0.306l1.338,2.782
	h-0.326L36.772,29.352z"/>
<path d="M38.199,29.757l0.122-0.227c0.208,0.194,0.582,0.337,0.967,0.337c0.548,0,0.787-0.219,0.787-0.491
	c0-0.765-1.803-0.295-1.803-1.325c0-0.408,0.334-0.762,1.079-0.762c0.331,0,0.674,0.092,0.908,0.246l-0.104,0.233
	c-0.251-0.154-0.543-0.229-0.803-0.229c-0.536,0-0.774,0.226-0.774,0.505c0,0.762,1.803,0.302,1.803,1.314
	c0,0.41-0.344,0.76-1.092,0.76C38.848,30.118,38.417,29.971,38.199,29.757"/>
<polygon points="44.044,27.313 44.044,30.095 43.739,30.095 43.739,28.812 41.906,28.812 41.906,30.095 41.596,30.095 
	41.596,27.313 41.906,27.313 41.906,28.553 43.739,28.553 43.739,27.313 "/>
<rect x="45.542" y="27.313" width="0.31" height="2.782"/>
<path d="M48.524,29.84c0.778,0,1.28-0.468,1.28-1.137c0-0.667-0.502-1.136-1.28-1.136h-0.866v2.272H48.524z M47.35,27.313h1.192
	c0.937,0,1.568,0.571,1.568,1.391c0,0.818-0.631,1.392-1.568,1.392H47.35V27.313z"/>
<polygon points="53.993,29.133 53.993,30.095 53.687,30.095 53.687,29.133 52.516,27.313 52.846,27.313 53.851,28.874 
	54.854,27.313 55.165,27.313 "/>
<path d="M57.741,29.112l-0.703-1.493l-0.703,1.493H57.741z M57.855,29.352h-1.632l-0.351,0.743h-0.323l1.339-2.782h0.305l1.34,2.782
	h-0.327L57.855,29.352z"/>
<path d="M59.26,28.703c0-0.814,0.653-1.414,1.536-1.414c0.428,0,0.812,0.134,1.071,0.404l-0.197,0.188
	c-0.238-0.229-0.53-0.33-0.865-0.33c-0.708,0-1.239,0.493-1.239,1.152c0,0.66,0.532,1.152,1.239,1.152
	c0.334,0,0.627-0.099,0.865-0.334l0.197,0.187c-0.259,0.271-0.644,0.41-1.075,0.41C59.913,30.118,59.26,29.518,59.26,28.703"/>
<polygon points="65.52,27.313 65.52,30.095 65.214,30.095 65.214,28.812 63.382,28.812 63.382,30.095 63.072,30.095 63.072,27.313 
	63.382,27.313 63.382,28.553 65.214,28.553 65.214,27.313 "/>
<polygon points="67.586,27.567 66.557,27.567 66.557,27.313 68.925,27.313 68.925,27.567 67.896,27.567 67.896,30.095 
	67.586,30.095 "/>
<path d="M69.637,29.757l0.121-0.227c0.208,0.194,0.581,0.337,0.966,0.337c0.548,0,0.787-0.219,0.787-0.491
	c0-0.765-1.803-0.295-1.803-1.325c0-0.408,0.334-0.762,1.08-0.762c0.33,0,0.674,0.092,0.907,0.246l-0.104,0.233
	c-0.251-0.154-0.544-0.229-0.803-0.229c-0.536,0-0.774,0.226-0.774,0.505c0,0.762,1.803,0.302,1.803,1.314
	c0,0.41-0.343,0.76-1.092,0.76C70.285,30.118,69.854,29.971,69.637,29.757"/>
<path d="M75.046,27.881c0,0.163,0.063,0.279,0.33,0.536c0.423-0.23,0.561-0.37,0.561-0.568c0-0.206-0.154-0.345-0.426-0.345
	C75.217,27.504,75.046,27.658,75.046,27.881 M76.188,29.569l-0.882-0.862c-0.469,0.254-0.611,0.429-0.611,0.676
	c0,0.303,0.285,0.501,0.708,0.501C75.72,29.884,75.988,29.78,76.188,29.569 M76.77,30.138l-0.406-0.397
	c-0.247,0.251-0.581,0.378-0.979,0.378c-0.572,0-0.983-0.287-0.983-0.707c0-0.33,0.201-0.573,0.737-0.867
	c-0.285-0.277-0.367-0.444-0.367-0.66c0-0.353,0.288-0.591,0.74-0.591c0.415,0,0.682,0.207,0.682,0.552
	c0,0.279-0.176,0.474-0.653,0.735l0.803,0.787c0.088-0.147,0.155-0.326,0.198-0.537l0.242,0.072c-0.054,0.249-0.143,0.465-0.26,0.64
	l0.419,0.409L76.77,30.138z"/>
<polygon points="82.698,27.313 82.698,30.095 82.401,30.095 82.401,27.869 81.25,29.74 81.104,29.74 79.953,27.881 79.953,30.095 
	79.656,30.095 79.656,27.313 79.911,27.313 81.183,29.376 82.442,27.313 "/>
<path d="M85.92,29.112l-0.702-1.493l-0.705,1.493H85.92z M86.034,29.352h-1.633l-0.352,0.743h-0.322l1.338-2.782h0.306l1.339,2.782
	h-0.326L86.034,29.352z"/>
<path d="M89.724,28.267c0-0.445-0.31-0.699-0.896-0.699h-0.778v1.394h0.778C89.414,28.961,89.724,28.703,89.724,28.267
	 M89.74,30.095L89.07,29.2c-0.076,0.007-0.149,0.012-0.234,0.012h-0.787v0.883H87.74v-2.782h1.096c0.745,0,1.195,0.357,1.195,0.954
	c0,0.437-0.241,0.743-0.668,0.874l0.715,0.954H89.74z"/>
<rect x="91.309" y="27.313" width="0.309" height="2.782"/>
<polygon points="95.563,27.313 95.563,30.095 95.309,30.095 93.426,27.836 93.426,30.095 93.115,30.095 93.115,27.313 93.37,27.313 
	95.258,29.569 95.258,27.313 "/>
<path d="M98.785,29.112l-0.704-1.493l-0.702,1.493H98.785z M98.898,29.352h-1.632l-0.352,0.743h-0.323l1.34-2.782h0.305l1.339,2.782
	H99.25L98.898,29.352z"/>
</svg>
