<?xml version="1.0" encoding="utf-8"?>
<!-- Generator: Adobe Illustrator 16.0.0, SVG Export Plug-In . SVG Version: 6.00 Build 0)  -->
<!DOCTYPE svg PUBLIC "-//W3C//DTD SVG 1.1//EN" "http://www.w3.org/Graphics/SVG/1.1/DTD/svg11.dtd">
<svg version="1.1" xmlns="http://www.w3.org/2000/svg" xmlns:xlink="http://www.w3.org/1999/xlink" x="0px" y="0px" width="750px"
	 height="500px" viewBox="0 0 750 500" enable-background="new 0 0 750 500" xml:space="preserve">
<g id="BACKGROUND">
</g>
<g id="OBJECTS">
	<path opacity="0.4" fill="#00732F" d="M389.557,481.883v-30.888l-29.136-16.821v33.065l-27.136,15.666v-32.486L304.65,466.95
		l-27.637-15.954v-30.31c0.841-0.223,1.463-0.98,1.463-1.891c0-0.179-0.031-0.349-0.076-0.513l26.499-15.298l0.25-0.144v-33.643
		l-28.635,16.532l-28.138-16.245l-28.136,16.243l-27.636-15.955v-31.909l28.636-16.532L192.605,304.8v-33.066l-28.887,16.679
		l-0.25,0.144v31.911l-25.749-14.865c0.044-0.164,0.076-0.334,0.076-0.513c0-0.91-0.623-1.668-1.463-1.891v-62.797l27.886-16.101
		l0.25-0.144v-33.644l-28.886,16.678l-0.25,0.144v32.492l-27.635,15.955l-27.139-15.667l27.389-15.813l0.25-0.144v-33.644
		l-28.886,16.678l-0.25,0.144v64.402l-25.749-14.865c0.044-0.164,0.076-0.334,0.076-0.512c0-0.91-0.623-1.669-1.463-1.891v-30.887
		l-27.636-15.955l27.136-15.667l0.5,0.289v-0.578l0.5-0.289l-0.5-0.289v-32.49l-26.749-15.443c0.044-0.164,0.076-0.333,0.076-0.512
		c0-1.084-0.879-1.963-1.963-1.963c-1.084,0-1.963,0.879-1.963,1.963c0,0.91,0.623,1.668,1.463,1.891v30.309l-28.636,16.534
		l28.136,16.244l-27.386,15.812l-0.25,0.144v32.489l-0.5,0.289l0.5,0.288v32.49l27.625,15.948l-27.397,15.817l-0.25,0.144v33.642
		l28.887-16.677l0.25-0.144v-31.922l0.021,0.013v-33.066l26.243-15.152c0.242,0.244,0.55,0.419,0.893,0.51v30.886l27.636,15.954
		L51.175,320.9l-0.25,0.144v32.502l-26.22,15.139c-0.355-0.359-0.849-0.582-1.394-0.582c-1.084,0-1.963,0.879-1.963,1.963
		c0,0.91,0.623,1.669,1.463,1.891v62.76l-27.931,16.127l-0.25,0.144v33.644l0.045-0.026v31.938l28.136,16.242v0.579l0.501-0.289
		l0.499,0.288v-0.577l27.886-16.1l0.25-0.144v-33.644l-27.243,15.729c-0.355-0.358-0.848-0.581-1.393-0.581
		c-0.545,0-1.038,0.223-1.394,0.581l-25.765-14.875l26.659-15.392v0.032l28.635-16.532l28.636,16.532v-33.076l27.864-16.087
		l0.25-0.144v-30.886c0.84-0.222,1.463-0.98,1.463-1.891c0-1.084-0.879-1.963-1.963-1.963s-1.963,0.879-1.963,1.963
		c0,0.179,0.031,0.349,0.076,0.513L79.312,402.12l-0.25,0.144v31.896l-27.114-15.653v-64.412l27.614-15.941l28.636,16.532v-33.064
		l26.243-15.15c0.242,0.244,0.55,0.419,0.893,0.509v30.888l26.749,15.443c-0.044,0.164-0.076,0.333-0.076,0.512
		c0,0.178,0.031,0.348,0.076,0.512l-26.499,15.3l-0.25,0.144v64.938l-26.084,15.061c-0.356-0.498-0.937-0.826-1.596-0.826
		c-1.084,0-1.963,0.879-1.963,1.963c0,0.91,0.623,1.669,1.463,1.891v31.826l28.136-16.245v31.912l29.136,16.821v-33.644
		l-27.608-15.939l27.152-15.676l26.25,15.153c-0.044,0.165-0.076,0.334-0.076,0.513c0,1.084,0.879,1.963,1.963,1.963
		c1.084,0,1.963-0.879,1.963-1.963c0-0.91-0.623-1.668-1.463-1.891v-62.794l27.636-15.956l27.136,15.667l-27.386,15.813l-0.25,0.144
		v32.488l-0.5,0.289l0.5,0.288v31.912l-27.886,16.1l-0.25,0.144v33.642l28.886-16.677l0.25-0.144v-31.909l27.136,15.666v0.578
		l0.5-0.289l28.636,16.533v-31.465c0.343-0.09,0.652-0.265,0.895-0.51l26.242,15.149v33.058l28.136-16.244v0.008l28.886-16.677
		l0.25-0.144v-31.91l25.75,14.866c-0.045,0.165-0.076,0.334-0.076,0.513c0,1.084,0.879,1.963,1.963,1.963s1.963-0.879,1.963-1.963
		C391.021,482.863,390.397,482.104,389.557,481.883z M80.062,207.913l27.136-15.667v31.333l-27.136,15.667V207.913z M22.768,337.29
		l-27.137,15.666v-31.331l27.137-15.666V337.29z M50.947,484.63v31.333L23.812,531.63v-29.731c0.84-0.223,1.463-0.98,1.463-1.891
		c0-0.179-0.032-0.348-0.076-0.512L50.947,484.63z M22.812,501.898v29.73l-27.136-15.666v-31.332l25.748,14.865
		c-0.044,0.164-0.076,0.334-0.076,0.512C21.348,500.918,21.971,501.676,22.812,501.898z M332.285,483.476l-27.136,15.667v-31.325
		l27.136-15.666V483.476z M276.013,481.883c-0.343,0.091-0.651,0.265-0.893,0.509l-25.742-14.862l26.635-15.378V481.883z
		 M248.877,434.752v-31.333l25.749,14.866c-0.044,0.163-0.076,0.332-0.076,0.511c0,0.909,0.622,1.668,1.462,1.89v29.733
		L248.877,434.752z M276.013,416.905c-0.343,0.09-0.651,0.265-0.894,0.509l-25.742-14.862l26.636-15.378V416.905z M248.376,435.618
		l27.136,15.667l-12.327,7.117l-14.808,8.549l-27.136-15.666l12.327-7.117L248.376,435.618z M248.877,468.396l25.749,14.867
		c-0.044,0.164-0.076,0.333-0.076,0.511c0,0.179,0.031,0.348,0.076,0.512l-25.749,14.867V468.396z M304.149,402.264l-26.243,15.149
		c-0.242-0.244-0.551-0.418-0.894-0.509v-30.306l27.137-15.667V402.264z M164.469,351.932v-29.732l27.137,15.667v31.333
		l-25.749-14.866c0.044-0.164,0.076-0.333,0.076-0.511C165.932,352.912,165.31,352.153,164.469,351.932z M164.469,355.713
		c0.343-0.091,0.652-0.265,0.894-0.51l25.741,14.861l-26.635,15.377V355.713z M192.106,336.999l-27.137-15.666l13.309-7.685
		l13.827-7.982l27.136,15.667L192.106,336.999z M164.469,289.134l27.137-15.668V304.8l-27.137,15.667V289.134z M136.333,207.913
		l27.136-15.667v31.333l-27.136,15.667V207.913z M135.333,272.314l-8.877,5.125l-18.258,10.541v-31.332l27.136-15.667V272.314z
		 M107.197,320.466l-13.568-7.832l-13.568-7.833V273.47l13.568,7.833l13.568,7.833V320.466z M80.062,240.982l27.136,15.667v31.331
		l-13.568-7.832l-13.568-7.833V240.982z M50.925,254.469c-0.342,0.091-0.65,0.265-0.893,0.509l-26.243-15.152v-31.333l27.136,15.667
		V254.469z M50.925,159.182v31.334l-27.136-15.668V144.54c0.343-0.091,0.651-0.265,0.894-0.509L50.925,159.182z M23.289,175.715
		l27.136,15.667l-26.636,15.378v0l-0.5,0.289l-0.5-0.289v0l-26.636-15.378L23.289,175.715z M-4.347,224.16l27.136-15.667v31.333
		l-27.136,15.667V224.16z M-4.347,257.225l27.136,15.669v31.333L-4.347,288.56V257.225z M23.29,272.026l-27.136-15.667l12.327-7.117
		l14.808-8.55l26.25,15.155c-0.044,0.164-0.076,0.334-0.076,0.512s0.031,0.348,0.076,0.512L23.29,272.026z M51.925,258.25
		c0.343-0.09,0.651-0.265,0.894-0.509l26.243,15.151v31.331l-27.137-15.666V258.25z M51.925,321.622l27.137-15.666v31.331
		l-27.137,15.666V321.622z M23.812,371.956c0.84-0.222,1.463-0.98,1.463-1.891c0-0.178-0.031-0.347-0.076-0.511l25.749-14.866
		v31.332l-27.136,15.666V371.956z M50.947,418.507l-27.136,15.666v-31.331l27.136-15.666V418.507z M22.768,467.23l-27.137,15.667
		v-31.333l27.137-15.668V467.23z M23.812,435.328l27.136-15.666v31.331l-27.136,15.666V435.328z M80.062,402.842l26.243-15.15
		c0.242,0.243,0.551,0.418,0.893,0.508v30.308l-27.136,15.666V402.842z M79.083,435.893v30.767l-27.136-15.666v-31.331
		l27.114,15.653v0.59L79.083,435.893z M107.197,352.953l-27.136-15.666v-31.331l13.568,7.833l13.568,7.833V352.953z
		 M108.197,320.467v-31.331l15.506-8.952l11.629-6.714v29.729c-0.84,0.223-1.463,0.98-1.463,1.891c0,0.179,0.032,0.348,0.076,0.513
		L108.197,320.467z M136.333,337.289V306.98c0.343-0.091,0.651-0.265,0.893-0.509l26.243,15.151v30.309
		c-0.342,0.091-0.65,0.265-0.893,0.509L136.333,337.289z M136.333,370.355l26.243-15.151c0.242,0.244,0.55,0.418,0.893,0.509v30.306
		l-0.5,0.289h0.001l-26.637,15.379V370.355z M136.333,435.328l27.136-15.666v31.331l-27.136,15.666V435.328z M163.469,418.507
		l-27.136,15.666v-31.331l27.136-15.666V418.507z M108.153,482.897v-30.094c0.84-0.223,1.463-0.98,1.463-1.891
		c0-0.063-0.013-0.122-0.019-0.183l25.691-14.834v31.334L108.153,482.897z M163.425,515.386l-27.136-15.667v-31.333l27.136,15.667
		V515.386z M191.605,465.635c-0.343,0.09-0.651,0.265-0.893,0.509l-26.244-15.15v-31.33l27.137,15.666V465.635z M164.469,418.507
		v-31.333l27.137,15.668v31.331L164.469,418.507z M192.106,401.975l-27.137-15.667l27.135-15.666l0.502,0.29v-0.003l26.636,15.379
		L192.106,401.975z M248.377,370.641l27.136,15.667l-26.636,15.379l0,0l-0.5,0.288l-0.5-0.288l0,0l-26.636-15.379L248.377,370.641z
		 M220.741,419.086l27.136-15.667v31.333l-27.136,15.667V419.086z M219.741,515.972l-27.136,15.666v-31.331l27.136-15.666V515.972z
		 M220.741,483.485v-31.334l27.136,15.667v31.334L220.741,483.485z M249.377,500.019l25.742-14.863
		c0.242,0.244,0.551,0.418,0.893,0.509v29.732L249.377,500.019z M277.013,481.883v-29.731l27.137,15.666v31.332l-25.749-14.866
		c0.044-0.163,0.075-0.332,0.075-0.51C278.476,482.863,277.854,482.104,277.013,481.883z M305.149,531.629v-31.325l27.136-15.667
		v31.326L305.149,531.629z M360.421,499.727l-27.136,15.666v-31.332l27.136-15.666V499.727z M361.421,467.239v-31.333l27.136,15.667
		v30.31c-0.342,0.091-0.649,0.265-0.892,0.508L361.421,467.239z M755.847,278.418l-28.136-16.245l27.386-15.812l0.25-0.144v-32.489
		l0.5-0.289l-0.5-0.289v-32.489l-27.624-15.949l27.396-15.817l0.25-0.144v-33.642l-28.886,16.677l-0.25,0.144v31.922l-0.022-0.013
		v33.067l-26.242,15.151c-0.242-0.245-0.551-0.418-0.894-0.509V148.18l-28.137-16.244V99.45l-26.75-15.443
		c0.046-0.166,0.078-0.336,0.078-0.516c0-0.178-0.032-0.348-0.076-0.512l26.498-15.298l0.25-0.144V35.639l27.114,15.653v65.551
		l27.243-15.728c0.355,0.359,0.848,0.582,1.394,0.582c1.084,0,1.963-0.879,1.963-1.963c0-0.911-0.623-1.669-1.464-1.891V35.084
		l27.931-16.126l0.25-0.144v-33.645L727.188,1.44V1.408L698.554,17.94L669.917,1.408v33.076l-27.864,16.087l-0.25,0.144V81.6
		c-0.84,0.223-1.463,0.981-1.463,1.891c0,0.91,0.623,1.668,1.463,1.891v30.89l28.136,16.243v31.91l-27.136,15.666v-31.915
		l-28.136-16.244v-0.579l-0.501,0.289l-0.499-0.288v0.577l-27.886,16.1l-0.25,0.144v33.644l27.241-15.728
		c0.355,0.359,0.849,0.583,1.395,0.583s1.039-0.223,1.395-0.583l26.241,15.149v65.557l28.636-16.533l27.637,15.954l0,0
		l27.636,15.956l-27.136,15.667l-0.5-0.288v0.577l-0.5,0.289l0.5,0.288v32.489l28.136,16.243v30.31
		c-0.84,0.223-1.463,0.98-1.463,1.891c0,1.084,0.879,1.963,1.963,1.963s1.963-0.879,1.963-1.963c0-0.179-0.031-0.348-0.076-0.513
		l26.499-15.299l0.25-0.144V310.04l-28.136,16.244V294.95L755.847,278.418z M727.233,132.509l27.136-15.666v31.331l-27.136,15.666
		V132.509z M754.347,245.639l-27.136,15.667v-31.333l27.136-15.667V245.639z M754.347,212.574l-27.136-15.667v-31.334l27.136,15.668
		V212.574z M726.711,197.773l27.136,15.667l-12.327,7.117l-14.808,8.55l-26.25-15.155c0.045-0.164,0.076-0.333,0.076-0.512
		s-0.031-0.348-0.076-0.512L726.711,197.773z M698.075,181.245v30.305c-0.343,0.09-0.651,0.265-0.895,0.51l-12.674-7.317
		l-13.568-7.833v-31.331l13.568,7.833L698.075,181.245z M699.053,51.292l27.136-15.666v31.332l-27.136,15.666V51.292z
		 M699.053,115.111V83.78l27.136-15.666v29.729c-0.84,0.222-1.462,0.98-1.462,1.891c0,0.178,0.031,0.348,0.075,0.512
		L699.053,115.111z M727.233,2.569l27.136-15.667v31.334l-27.136,15.667V2.569z M726.188,34.471l-27.136,15.666V18.806L726.188,3.14
		V34.471z M670.917,3.14l27.136,15.666v31.331l-27.114-15.653v-0.59l-0.021,0.013V3.14z M669.938,35.626v31.332l-26.242,15.15
		c-0.242-0.244-0.551-0.418-0.894-0.509V51.292L669.938,35.626z M642.803,115.693V85.381c0.342-0.09,0.648-0.263,0.891-0.505
		l26.245,15.152v31.331L642.803,115.693z M698.075,148.758v31.331l-13.568-7.833l-13.568-7.833v-31.332L698.075,148.758z
		 M586.531,180.085v-31.333l27.136-15.667v29.734c-0.84,0.222-1.463,0.98-1.463,1.891c0,0.178,0.031,0.346,0.075,0.51
		L586.531,180.085z M614.667,162.819v-29.733l27.136,15.667v31.331l-25.748-14.865c0.044-0.164,0.075-0.332,0.075-0.51
		C616.13,163.8,615.508,163.042,614.667,162.819z M642.803,181.245l27.136-15.666v31.33l-27.136,15.667V181.245z M642.803,213.731
		l27.136-15.667v31.333l-27.136,15.667V213.731z M670.938,229.396v-31.331l13.568,7.833l12.181,7.032
		c-0.044,0.164-0.075,0.333-0.075,0.51c0,0.91,0.623,1.668,1.463,1.891v29.731L670.938,229.396z M699.075,215.331
		c0.343-0.091,0.651-0.265,0.893-0.509l26.243,15.151v31.333l-27.136-15.667V215.331z M726.211,263.038L726.211,263.038l0.5-0.288
		l0.5,0.289v-0.001l26.636,15.38l-27.135,15.666l-27.137-15.666L726.211,263.038z M699.075,279.284l27.136,15.667v31.333
		l-27.136-15.667V279.284z M754.347,311.772v31.333l-26.243,15.151c-0.241-0.244-0.55-0.418-0.893-0.509v-30.309L754.347,311.772z
		 M587.994,115.977c0-0.178-0.031-0.348-0.076-0.512l26.499-15.299l0.25-0.144V35.083l26.085-15.061
		c0.355,0.499,0.937,0.826,1.596,0.826c1.084,0,1.963-0.879,1.963-1.963c0-0.911-0.623-1.669-1.464-1.891v-31.826L614.711,1.414
		v-31.912l-29.136-16.821v33.644l27.608,15.939L586.032,17.94l-26.25-15.154c0.045-0.164,0.076-0.333,0.076-0.512
		c0-1.084-0.879-1.963-1.963-1.963s-1.963,0.879-1.963,1.963c0,0.911,0.622,1.669,1.463,1.891v29.728l-0.001,0v33.067
		l-27.636,15.956l-27.136-15.667l27.386-15.813l0.25-0.144V18.803l0.5-0.289l-0.5-0.289v-31.911l27.886-16.1l0.25-0.144v-33.643
		l-28.886,16.677l-0.25,0.144v31.91l-27.136-15.667v-0.578l-0.5,0.289L472.987-47.33v31.464c-0.343,0.091-0.651,0.266-0.895,0.51
		l-26.242-15.149v-33.058l-28.136,16.245v-0.007l-28.886,16.677l-0.25,0.144V1.405l-27.136-15.667v-0.578l-0.5,0.289l-0.5-0.289
		v0.578L332.808,1.693l-28.637-16.532v33.064l-27.136,15.666V1.979l-29.136-16.821v0.001l-28.136-16.245V1.98l-26.243,15.151
		c-0.356-0.358-0.848-0.581-1.394-0.581c-1.084,0-1.963,0.879-1.963,1.963s0.879,1.963,1.963,1.963c0.545,0,1.038-0.223,1.394-0.581
		l26.243,15.151v33.067l28.886-16.679l0.25-0.144V19.379l27.136,15.667v33.063l27.242-15.728c0.242,0.245,0.551,0.419,0.894,0.51
		v30.885l29.137,16.82V68.109l28.136,16.244V50.71l-27.635-15.954l27.133-15.665l28.638,16.534V2.56l27.136-15.667v63.824
		l-27.886,16.1l-0.25,0.144v33.645l27.243-15.729c0.355,0.359,0.848,0.582,1.393,0.582c1.085,0,1.964-0.879,1.964-1.963
		c0-0.91-0.623-1.668-1.464-1.891V51.293l27.886-16.102l0.25-0.144V3.137l27.137,15.666v30.31c-0.84,0.222-1.463,0.98-1.463,1.891
		c0,0.178,0.031,0.348,0.076,0.512l-26.5,15.299l-0.25,0.144V100.6l28.636-16.532l28.137,16.245l28.136-16.244l28.136,16.244
		l27.637-15.955v29.729c-0.84,0.222-1.463,0.98-1.463,1.891c0,1.084,0.879,1.963,1.963,1.963S587.994,117.061,587.994,115.977z
		 M613.667,99.445l-26.242,15.15c-0.242-0.244-0.551-0.418-0.894-0.509V83.78l0.5-0.289l0,0l26.636-15.378V99.445z M558.395,35.626
		l27.137,15.667v31.333l-27.137-15.667V35.626z M586.531,51.292l27.136-15.666v31.332l-27.136,15.666V51.292z M613.667,34.471
		l-27.136,15.666V18.806L613.667,3.14V34.471z M641.847-13.098v30.094c-0.84,0.222-1.462,0.98-1.462,1.891
		c0,0.063,0.013,0.122,0.019,0.184l-25.692,14.833V2.569L641.847-13.098z M586.575-45.586l27.136,15.667V1.414l-27.136-15.667
		V-45.586z M558.396,4.165c0.343-0.09,0.651-0.265,0.893-0.509l26.243,15.15v31.33L558.396,34.47V4.165z M501.624,34.181
		l-27.136-15.667l12.326-7.117l14.809-8.549l27.136,15.667l-12.327,7.117L501.624,34.181z M473.987-12.083
		c0.343-0.091,0.65-0.265,0.893-0.509L500.623,2.27l-26.636,15.378V-12.083z M501.123,1.404l-25.749-14.866
		c0.045-0.164,0.076-0.333,0.076-0.512s-0.031-0.348-0.076-0.512l25.749-14.866V1.404z M501.123,35.047v31.334l-25.748-14.867
		c0.044-0.164,0.075-0.333,0.075-0.511c0-0.91-0.622-1.668-1.463-1.891V19.38L501.123,35.047z M473.987,52.895
		c0.343-0.091,0.651-0.265,0.894-0.51l25.742,14.863l-26.636,15.378V52.895z M529.259,50.713l-27.136,15.668V35.047l27.136-15.667
		V50.713z M530.259-46.172l27.136-15.666v31.332L530.259-14.84V-46.172z M529.259-13.685v31.333L502.123,1.981v-31.333
		L529.259-13.685z M500.623-30.218l-25.742,14.863c-0.242-0.245-0.551-0.419-0.894-0.509v-29.732L500.623-30.218z M444.851-61.83
		v31.326l-27.136,15.666v-31.325L444.851-61.83z M360.443-13.107v31.331L333.308,33.89V2.559L360.443-13.107z M305.171-13.107
		l27.137,15.666V33.89l-13.568-7.833l-13.568-7.833V-13.107z M332.308,66.376l-13.568-7.833l-12.181-7.032
		c0.044-0.164,0.076-0.333,0.076-0.512c0-0.91-0.623-1.669-1.463-1.891v-29.73l13.568,7.833l13.568,7.833V66.376z M276.035,33.89
		l-27.136-15.667V-13.11l27.136,15.667V33.89z M220.764-29.354l27.136,15.668v31.333L220.764,1.98V-29.354z M194.014,18.001
		l26.249-15.154l27.136,15.667l-12.327,7.117l-14.809,8.55l-26.25-15.155c0.044-0.164,0.076-0.333,0.076-0.512
		C194.09,18.335,194.059,18.166,194.014,18.001z M247.899,50.712L220.764,66.38V35.046l27.136-15.667V50.712z M277.035,66.376
		V35.045l27.136-15.666v29.73c-0.84,0.222-1.463,0.98-1.463,1.891c0,0.178,0.032,0.347,0.076,0.511L277.035,66.376z M332.308,98.864
		l-27.137-15.666V52.891c0.343-0.09,0.651-0.265,0.894-0.509l12.675,7.317l13.568,7.833V98.864z M360.443,82.621l-27.136-15.667
		V35.623l27.136,15.666V82.621z M388.579,33.893l-27.136-15.667v-31.333L388.579,2.56V33.893z M389.579,1.405v-31.331l27.136-15.666
		v31.331L389.579,1.405z M444.851-29.343V1.982l-27.136,15.666v-31.324L444.851-29.343z M389.579,98.874V67.54l27.136-15.667v29.732
		c-0.84,0.223-1.463,0.98-1.463,1.891c0,0.179,0.032,0.348,0.076,0.512L389.579,98.874z M444.851,34.47l-27.136,15.668V18.804
		l27.136-15.667V34.47z M445.851-29.349L471.6-14.484c-0.044,0.164-0.075,0.333-0.075,0.51c0,0.91,0.623,1.668,1.463,1.891v29.731
		L445.851,1.982V-29.349z M445.851,67.537l26.243-15.151c0.242,0.244,0.551,0.418,0.894,0.509v30.307l-27.137,15.666V67.537z
		 M501.623,99.159l-27.136-15.667l26.636-15.378v0l0.5-0.289l0.5,0.289v0l26.636,15.378L501.623,99.159z M530.759,83.492
		l27.136-15.667l27.137,15.667l-27.137,15.667L530.759,83.492z"/>
</g>
</svg>
