<svg xmlns="http://www.w3.org/2000/svg" xml:space="preserve" width="195.734" height="80"><path fill="#00732F" d="M39.095 19.012q4.24 6.177 4.241 13.708-.135 7.565-4.478 13.669-4.444 5.972-11.229 8.619a25.3 25.3 0 0 1-6.888 1.66q-.882.07-1.763.104h-6.311q-4.173-.104-6.938-2.885-2.766-2.782-2.867-6.955l.034-28.631q.136-4.307 3.053-7.228 2.918-2.917 7.125-2.916h4.649q1.661.034 3.459.237a25.2 25.2 0 0 1 6.854 1.798q6.75 2.749 11.059 8.82m-8.346 21.714q2.408-3.696 2.443-8.075.032-4.376-2.307-8.142-2.41-3.732-6.582-5.734a16.4 16.4 0 0 0-4.308-1.254 15 15 0 0 0-2.307-.17l-2.918-.034h-1.696v30.397h1.357l2.884-.035h.712l.577-.033q.576-.032 1.12-.102a16.7 16.7 0 0 0 4.343-1.188q4.171-1.898 6.682-5.63m42.543-10.092c0-3.292 1.228-6.593 3.769-8.686a9.6 9.6 0 0 1 4.218-2.038c1.127-.234 2.191.661 2.191 1.812v24.141c0 3.293-1.22 6.6-3.759 8.694q-2.723 2.247-6.385 2.248v-1.562q-3.359 1.393-7.328 1.392-7.53 0-13.197-5.124-2.171-1.93-4.121-5.715-1.952-3.782-1.952-9.854v-5.308c0-3.292 1.229-6.593 3.77-8.686a9.6 9.6 0 0 1 4.218-2.038c1.127-.234 2.191.661 2.191 1.812v14.22q-.001 5.427 2.917 8.209 2.578 2.342 6.174 2.341 1.901 0 4.598-1.187t2.697-4.684v-9.987zm48.987-1.512q3.393 6.618 1.426 13.945-2.138 7.26-8.482 11.16-4.342 2.579-9.058 2.579-2.34 0-4.647-.644a17.6 17.6 0 0 1-4.478-2.002v2.646q-3.682 0-6.427-2.285c-2.526-2.104-3.751-5.396-3.751-8.683V19.062c0-3.292 1.226-6.591 3.76-8.694q1.89-1.57 4.226-2.06c1.127-.235 2.193.66 2.193 1.813v12.657a.9.9 0 0 1 .236-.167q.271-.204.545-.373 6.545-3.833 13.737-1.901 7.125 2.104 10.72 8.785m-8.989 4.716q-1.528-2.847-4.479-3.732a7 7 0 0 0-1.898-.271q-1.97 0-3.868 1.121-2.884 1.796-3.901 5.224-.882 3.462.56 6.344c.962 1.921 2.482 3.202 4.564 3.833q2.95.815 5.731-.814 2.917-1.795 3.903-5.224.947-3.462-.612-6.481m47.903-11.89c2.541 2.093 3.771 5.394 3.771 8.686v15.204c0 3.286-1.226 6.579-3.751 8.683q-2.746 2.285-6.426 2.285v-2.408q-4.242 2.578-9.092 2.579-2.31 0-4.616-.645-7.156-2.105-10.753-8.788-3.359-6.615-1.391-13.943 2.305-7.564 8.583-11.245 6.276-3.681 13.604-1.85 1.966.544 3.664 1.527v-2.341q3.668 0 6.407 2.256m-8.256 12.197q-1.443-2.883-4.563-3.869a8 8 0 0 0-1.901-.237q-2.577 0-4.732 1.712-2.153 1.715-3.036 4.598-.915 3.425.646 6.48 1.527 2.847 4.479 3.729 3.155.782 5.867-.933 2.716-1.712 3.766-5.138.915-3.46-.526-6.342"/><path fill="red" d="M173.688 13.992q-2.68-.001-4.597-1.898-1.917-1.9-1.917-4.616 0-2.68 1.917-4.58Q171.008 1 173.688 1q2.679 0 4.596 1.898 1.917 1.902 1.917 4.58 0 2.715-1.917 4.616-1.916 1.897-4.596 1.898"/><path fill="#00732F" d="M168.599 30.636c0-3.296 1.23-6.6 3.776-8.693q1.885-1.55 4.21-2.032c1.128-.234 2.191.661 2.191 1.812v24.042c0 3.296-1.229 6.599-3.767 8.702q-1.888 1.565-4.218 2.054c-1.129.235-2.193-.66-2.193-1.813z"/><path d="M88.138 66.113q.428-.001.758.311t.329.773v10.292q0 .462-.338.776a1.13 1.13 0 0 1-.783.311q-.5 0-.801-.311a1.07 1.07 0 0 1-.303-.776V67.197c0-.309.106-.564.321-.773q.319-.312.817-.311m-.053 5.18h7.941v2.049h-7.941zm7.941-5.18q.498-.001.803.311.3.312.302.773v10.292q0 .462-.312.776-.313.31-.827.311-.428 0-.758-.311a1.03 1.03 0 0 1-.329-.776V67.197c0-.309.112-.564.338-.773s.486-.311.783-.311m17.912 6.232q0 1.335-.445 2.493c-.445 1.158-.716 1.45-1.256 2.038a5.8 5.8 0 0 1-1.922 1.38 5.9 5.9 0 0 1-2.43.499 5.8 5.8 0 0 1-2.423-.499 5.8 5.8 0 0 1-1.912-1.38 6.4 6.4 0 0 1-1.257-2.038 6.9 6.9 0 0 1-.444-2.493q0-1.337.444-2.493a6.3 6.3 0 0 1 1.257-2.039 5.8 5.8 0 0 1 1.912-1.38q1.104-.499 2.423-.498 1.317 0 2.43.498 1.111.499 1.922 1.38c.811.881.959 1.268 1.256 2.039q.445 1.156.445 2.493m-2.314 0q0-1.194-.48-2.164a3.9 3.9 0 0 0-1.318-1.539q-.837-.57-1.939-.57-1.105 0-1.942.57a3.9 3.9 0 0 0-1.309 1.53q-.47.961-.471 2.173 0 1.194.471 2.162.472.97 1.309 1.541c.559.382 1.206.568 1.942.568q1.103.002 1.939-.568.839-.57 1.318-1.541.48-.969.48-2.162m15.881-6.252q.464 0 .748.313.284.311.284.774v6.446q0 1.476-.632 2.617a4.6 4.6 0 0 1-1.735 1.78q-1.105.641-2.564.641c-1.459 0-1.83-.213-2.572-.641a4.6 4.6 0 0 1-1.745-1.78q-.632-1.141-.632-2.617V67.18q0-.463.32-.774.319-.312.818-.313.41 0 .739.313.33.311.329.774v6.446q0 .89.383 1.539.383.651 1.016 1.006c.633.355.87.357 1.344.357q.764 0 1.425-.357a2.85 2.85 0 0 0 1.068-1.006q.409-.649.409-1.539V67.18q0-.463.268-.774.265-.312.729-.313m10.203 12.662q-1.247 0-2.244-.312t-1.903-1.096q-.232-.196-.357-.445c-.125-.249-.125-.332-.125-.498q0-.411.295-.722a.96.96 0 0 1 .738-.312q.34-.001.605.214a5.8 5.8 0 0 0 1.344.838q.666.283 1.647.284.658 0 1.21-.205a2.4 2.4 0 0 0 .892-.552q.338-.346.338-.794 0-.532-.321-.908-.32-.372-.979-.63-.66-.26-1.674-.401a7.4 7.4 0 0 1-1.691-.436 3.9 3.9 0 0 1-1.22-.749q-.49-.454-.739-1.068c-.249-.614-.249-.868-.249-1.38q0-1.157.596-1.977.598-.818 1.612-1.247 1.016-.426 2.244-.426 1.156 0 2.146.346.985.35 1.611.883.516.41.516.943 0 .392-.304.712a.94.94 0 0 1-.711.321.8.8 0 0 1-.481-.16 3.2 3.2 0 0 0-.765-.474 7 7 0 0 0-1.016-.373 3.7 3.7 0 0 0-.996-.15q-.768 0-1.291.195-.527.196-.792.534-.269.338-.268.783 0 .533.312.883.311.346.899.552.587.203 1.405.362a15 15 0 0 1 1.88.463q.808.269 1.344.688.534.416.801 1.049c.267.633.268.935.268 1.541q0 1.158-.643 1.992-.64.84-1.682 1.283a5.6 5.6 0 0 1-2.252.449m11.518-1.266q0 .463-.338.776a1.13 1.13 0 0 1-.782.311q-.5 0-.803-.311a1.07 1.07 0 0 1-.302-.776V67.197c0-.309.105-.564.32-.773q.318-.312.818-.311.427-.001.757.311c.33.312.329.465.329.773zm14.798-11.376q.427 0 .694.285a1 1 0 0 1 .266.711v10.38a1.06 1.06 0 0 1-1.085 1.087q-.232 0-.472-.081a.8.8 0 0 1-.365-.221l-6.997-8.887.463-.283v8.474a1 1 0 0 1-.276.714.97.97 0 0 1-.722.284.9.9 0 0 1-.693-.284 1 1 0 0 1-.268-.714V67.197c0-.309.104-.564.312-.773q.311-.312.774-.311.25 0 .517.099a.74.74 0 0 1 .392.293l6.783 8.652-.303.214v-8.262a1 1 0 0 1 .267-.711q.268-.286.713-.285m12.177 12.642a6.4 6.4 0 0 1-2.527-.499 6.6 6.6 0 0 1-2.066-1.379q-.89-.883-1.397-2.039c-.507-1.156-.509-1.604-.509-2.493q0-1.337.509-2.493a6.56 6.56 0 0 1 3.463-3.419 6.4 6.4 0 0 1 2.527-.498q.838 0 1.62.179a5.6 5.6 0 0 1 1.442.533.97.97 0 0 1 .401.382q.133.24.133.491 0 .427-.285.765a.9.9 0 0 1-.729.34 1.34 1.34 0 0 1-.587-.143 4.9 4.9 0 0 0-1.995-.409 4 4 0 0 0-2.109.579 4.28 4.28 0 0 0-2.076 3.695q0 1.159.561 2.136a4.3 4.3 0 0 0 1.515 1.56 4 4 0 0 0 2.109.576q.535 0 1.176-.105a4.7 4.7 0 0 0 1.05-.284l-.16.531v-3.042l.303.265h-1.977q-.462.001-.774-.302-.31-.302-.311-.765c-.001-.463.104-.563.311-.766a1.07 1.07 0 0 1 .774-.304h2.92q.464 0 .766.313.304.311.304.774v3.775a.97.97 0 0 1-.17.586 1.5 1.5 0 0 1-.383.374 7.6 7.6 0 0 1-1.791.793 7 7 0 0 1-2.038.293"/></svg>