<?xml version="1.0" encoding="utf-8"?>
<!-- Generator: Adobe Illustrator 16.0.0, SVG Export Plug-In . SVG Version: 6.00 Build 0)  -->
<!DOCTYPE svg PUBLIC "-//W3C//DTD SVG 1.1//EN" "http://www.w3.org/Graphics/SVG/1.1/DTD/svg11.dtd">
<svg version="1.1" id="Layer_1" xmlns="http://www.w3.org/2000/svg" xmlns:xlink="http://www.w3.org/1999/xlink" x="0px" y="0px"
	 width="609.646px" height="134.734px" viewBox="1.506 330.893 609.646 134.734"
	 enable-background="new 1.506 330.893 609.646 134.734" xml:space="preserve">
<g>
	<g>
		<path fill="#494743" d="M89.069,354.525l-0.471-8.851h1.978c0.941,2.354,2.071,4.143,3.389,5.461
			c1.318,1.224,2.825,1.883,4.425,1.883c1.224,0,2.166-0.282,2.919-0.941s1.13-1.412,1.13-2.354c0-0.848-0.283-1.601-0.848-2.166
			c-0.565-0.564-1.694-1.036-3.201-1.506l-3.295-1.13c-1.789-0.565-3.201-1.412-4.143-2.636c-0.941-1.13-1.506-2.542-1.506-4.143
			c0-1.978,0.659-3.578,1.977-4.802c1.318-1.224,3.013-1.883,5.179-1.883c0.471,0,0.941,0.094,1.506,0.188
			c0.471,0.094,1.13,0.282,1.789,0.471c0.282,0.094,0.659,0.188,0.941,0.376c0.282,0.094,0.471,0.188,0.471,0.188s0.094,0,0.282,0
			c0.094,0,0.283,0,0.377,0c0.282,0,0.471-0.094,0.659-0.283c0.188-0.188,0.377-0.471,0.471-0.847h1.412l0.376,7.062h-1.506
			c-0.847-1.883-1.883-3.201-2.919-4.143c-1.036-0.942-2.259-1.318-3.578-1.318c-1.13,0-2.071,0.282-2.73,0.753
			c-0.659,0.471-1.036,1.224-1.036,1.977c0,0.659,0.282,1.318,0.941,1.883c0.565,0.565,1.413,1.036,2.542,1.318l3.389,1.036
			c2.072,0.659,3.672,1.601,4.708,2.825s1.506,2.73,1.506,4.52c0,2.071-0.659,3.766-2.071,5.084
			c-1.413,1.318-3.201,1.978-5.367,1.978c-0.565,0-1.13-0.094-1.695-0.188s-1.224-0.282-2.072-0.565
			c-0.282-0.094-0.753-0.282-1.412-0.565c-0.659-0.282-1.13-0.376-1.412-0.376c-0.283,0-0.565,0.094-0.753,0.376
			c-0.188,0.283-0.376,0.659-0.376,1.13h-1.978V354.525z"/>
		<path fill="#494743" d="M116.092,354.619c-1.036,0-2.071-0.188-2.919-0.564c-0.941-0.377-1.695-0.848-2.448-1.601
			c-0.848-0.753-1.413-1.695-1.883-2.73c-0.471-1.036-0.659-2.26-0.659-3.484c0-2.448,0.753-4.52,2.166-6.026
			c1.413-1.506,3.39-2.354,5.744-2.354c2.354,0,4.237,0.753,5.743,2.354s2.26,3.578,2.26,6.026c0,1.224-0.188,2.448-0.659,3.484
			c-0.471,1.036-1.036,1.977-1.883,2.73c-0.753,0.659-1.506,1.224-2.448,1.601C118.069,354.431,117.127,354.619,116.092,354.619z
			 M116.092,353.207c0.941,0,1.601-0.471,1.977-1.412c0.376-0.942,0.565-2.825,0.565-5.461c0-2.73-0.188-4.52-0.565-5.555
			c-0.376-0.941-1.036-1.413-1.977-1.413s-1.601,0.471-1.978,1.413c-0.376,0.941-0.565,2.825-0.565,5.555s0.188,4.519,0.565,5.461
			C114.491,352.736,115.15,353.207,116.092,353.207z"/>
		<path fill="#494743" d="M125.79,354.148v-1.412c0.659-0.094,1.036-0.282,1.318-0.565c0.188-0.283,0.282-0.753,0.282-1.601v-9.039
			c0-0.753-0.094-1.224-0.282-1.507c-0.188-0.188-0.659-0.282-1.413-0.376v-1.412c1.224-0.094,2.26-0.188,3.295-0.188
			c1.036-0.094,1.977-0.188,2.919-0.283v3.672c0.565-1.13,1.224-1.978,1.977-2.542c0.753-0.565,1.601-0.847,2.542-0.847
			c0.942,0,1.695,0.282,2.354,0.847s0.941,1.224,0.941,2.072c0,0.753-0.188,1.318-0.659,1.694c-0.471,0.471-1.036,0.659-1.789,0.659
			c-0.565,0-1.036-0.188-1.506-0.471c-0.377-0.282-0.565-0.753-0.565-1.224c0-0.094,0-0.094,0-0.188s0-0.094,0-0.188l0.188-0.659
			v-0.094c0,0,0-0.094,0-0.188s0-0.283-0.094-0.283c-0.094-0.094-0.188-0.094-0.376-0.094c-0.659,0-1.224,0.564-1.695,1.789
			c-0.565,1.13-0.753,2.636-0.753,4.331v4.425c0,0.753,0.094,1.318,0.376,1.695c0.282,0.283,0.659,0.471,1.318,0.471h0.753v1.413
			h-9.133V354.148z"/>
		<path fill="#494743" d="M141.042,354.148v-1.412c0.659-0.094,1.036-0.282,1.318-0.565c0.188-0.283,0.282-0.753,0.282-1.601v-9.039
			c0-0.753-0.094-1.224-0.282-1.507c-0.188-0.188-0.659-0.282-1.413-0.376v-1.412c1.224-0.094,2.26-0.188,3.295-0.188
			c1.036-0.094,1.977-0.188,2.919-0.283v3.672c0.565-1.13,1.224-1.978,1.977-2.542s1.601-0.847,2.542-0.847
			c0.942,0,1.695,0.282,2.354,0.847s0.941,1.224,0.941,2.072c0,0.753-0.188,1.318-0.659,1.694c-0.471,0.471-1.036,0.659-1.789,0.659
			c-0.565,0-1.036-0.188-1.506-0.471c-0.377-0.282-0.565-0.753-0.565-1.224c0-0.094,0-0.094,0-0.188s0-0.094,0-0.188l0.188-0.659
			v-0.094c0,0,0-0.094,0-0.188s0-0.283-0.094-0.283c-0.094-0.094-0.188-0.094-0.376-0.094c-0.659,0-1.224,0.564-1.695,1.789
			c-0.565,1.13-0.753,2.636-0.753,4.331v4.425c0,0.753,0.094,1.318,0.376,1.695c0.282,0.283,0.659,0.471,1.318,0.471h0.753v1.413
			h-9.133V354.148z"/>
		<path fill="#494743" d="M163.545,354.055l-5.744-11.77c-0.471-0.847-0.847-1.506-1.224-1.883
			c-0.376-0.377-0.847-0.565-1.412-0.659l-0.094-1.413h8.945v1.413c-0.565,0-1.036,0.094-1.318,0.188
			c-0.282,0.094-0.376,0.282-0.376,0.564c0,0.094,0,0.283,0.094,0.377s0.094,0.282,0.188,0.471l3.201,7.156l2.637-6.591
			c0.094-0.188,0.094-0.283,0.188-0.471c0.094-0.188,0.094-0.283,0.094-0.471c0-0.377-0.188-0.659-0.471-0.848
			c-0.282-0.188-0.847-0.282-1.506-0.376v-1.413h6.026v1.413c-0.565,0.094-1.036,0.282-1.413,0.659
			c-0.376,0.376-0.753,0.847-1.036,1.601l-5.272,12.616c-0.941,2.26-1.883,3.86-2.919,4.802c-1.036,0.941-2.166,1.506-3.483,1.506
			c-1.036,0-1.883-0.283-2.448-0.753s-0.941-1.13-0.941-1.977c0-0.659,0.188-1.224,0.659-1.695c0.376-0.376,0.941-0.659,1.601-0.659
			c0.659,0,1.13,0.188,1.506,0.471c0.376,0.377,0.565,0.753,0.565,1.318c0,0.282-0.094,0.659-0.188,0.941
			c-0.094,0.283-0.188,0.471-0.188,0.471c0,0.094,0,0.094,0.094,0.094c0.094,0,0.188,0,0.377,0c0.565,0,1.224-0.471,1.977-1.412
			C162.227,356.973,162.886,355.749,163.545,354.055z"/>
		<path fill="#494743" d="M169.759,357.162c0.942-0.376,1.695-0.753,2.26-1.224s0.847-0.941,0.847-1.318
			c0-0.188-0.376-0.376-1.036-0.564c-0.188-0.094-0.376-0.094-0.471-0.094c-0.471-0.094-0.753-0.377-1.036-0.659
			c-0.282-0.283-0.376-0.753-0.376-1.224c0-0.753,0.188-1.318,0.753-1.789c0.471-0.471,1.036-0.659,1.789-0.659
			c0.848,0,1.506,0.282,2.071,0.847s0.753,1.318,0.753,2.26c0,1.318-0.471,2.448-1.412,3.484c-0.942,1.036-2.26,1.789-3.955,2.259
			L169.759,357.162z"/>
		<path fill="#494743" d="M187.555,339.743h-1.883v-1.413c1.318-0.376,2.354-1.036,3.201-2.071c0.848-1.036,1.413-2.354,1.883-4.143
			h1.695v6.214h3.672v1.413h-3.672v9.133c0,1.036,0.094,1.789,0.282,2.26s0.471,0.753,0.847,0.753c0.471,0,0.753-0.282,1.036-0.941
			c0.282-0.659,0.471-1.601,0.565-2.825h1.506v0.188c0,2.071-0.471,3.578-1.318,4.708c-0.847,1.13-2.071,1.601-3.672,1.601
			c-1.412,0-2.448-0.376-3.107-1.224c-0.659-0.848-0.942-2.26-0.942-4.237v-9.415H187.555z"/>
		<path fill="#494743" d="M213.823,350.571c0,0.753,0.094,1.318,0.377,1.601c0.188,0.283,0.659,0.471,1.318,0.565v1.412h-8.097
			v-1.412c0.659-0.094,1.036-0.282,1.318-0.471c0.188-0.283,0.376-0.848,0.376-1.601v-6.779c0-1.224-0.094-2.071-0.376-2.448
			c-0.283-0.471-0.659-0.659-1.318-0.659c-0.941,0-1.601,0.471-2.166,1.318c-0.565,0.848-0.753,2.072-0.753,3.672v4.896
			c0,0.847,0.094,1.318,0.377,1.601c0.188,0.282,0.659,0.471,1.318,0.471v1.412H198.1v-1.412c0.659-0.094,1.036-0.282,1.318-0.565
			c0.282-0.283,0.282-0.753,0.282-1.601v-15.724c0-0.753-0.094-1.224-0.376-1.506c-0.283-0.283-0.848-0.377-1.601-0.377v-1.318
			c1.036,0,2.071-0.094,3.107-0.283c1.13-0.094,2.26-0.282,3.484-0.471v10.075c0.753-0.942,1.601-1.695,2.448-2.166
			c0.848-0.471,1.789-0.659,2.73-0.659c1.507,0,2.636,0.471,3.295,1.506s0.941,2.73,0.941,5.084v5.837H213.823z"/>
		<path fill="#494743" d="M217.213,354.148v-1.412c0.659-0.094,1.036-0.282,1.318-0.565c0.188-0.283,0.282-0.753,0.282-1.601v-9.039
			c0-0.753-0.094-1.224-0.376-1.413c-0.188-0.188-0.659-0.376-1.413-0.376v-1.413c1.036-0.094,2.072-0.094,3.202-0.188
			c1.129-0.094,2.259-0.188,3.389-0.283v12.711c0,0.753,0.094,1.318,0.283,1.601c0.188,0.283,0.659,0.471,1.318,0.565v1.412H217.213
			z M218.249,333.152c0-0.659,0.283-1.224,0.753-1.601c0.471-0.471,1.13-0.659,1.977-0.659c0.753,0,1.413,0.188,1.978,0.659
			s0.753,0.941,0.753,1.601s-0.282,1.224-0.753,1.601c-0.471,0.376-1.13,0.659-1.978,0.659c-0.847,0-1.506-0.188-1.977-0.659
			C218.437,334.376,218.249,333.812,218.249,333.152z"/>
		<path fill="#494743" d="M227.853,354.431v-5.649h1.412c0.753,1.506,1.506,2.636,2.354,3.39c0.847,0.659,1.695,1.036,2.73,1.036
			c0.753,0,1.412-0.188,1.977-0.659s0.753-0.941,0.753-1.601c0-0.941-1.036-1.883-3.202-2.636c-0.188-0.094-0.376-0.188-0.471-0.188
			c-2.166-0.753-3.672-1.601-4.425-2.448c-0.753-0.848-1.224-1.883-1.224-3.107c0-1.413,0.471-2.542,1.506-3.484
			c1.036-0.847,2.354-1.318,3.955-1.318c0.847,0,1.789,0.188,2.73,0.471c0.941,0.376,1.412,0.471,1.506,0.471
			c0.188,0,0.471-0.094,0.565-0.188c0.188-0.188,0.282-0.376,0.282-0.565h1.318v4.802h-1.413c-0.564-1.224-1.224-2.071-1.977-2.73
			s-1.601-0.941-2.542-0.941c-0.848,0-1.506,0.188-1.978,0.565c-0.471,0.376-0.753,0.847-0.753,1.412
			c0,0.942,1.13,1.695,3.295,2.448c0.282,0.094,0.471,0.188,0.565,0.188c2.26,0.847,3.86,1.601,4.708,2.448
			c0.848,0.848,1.224,1.883,1.224,3.107c0,1.601-0.471,2.825-1.506,3.766c-1.036,0.942-2.354,1.413-4.049,1.413
			c-1.036,0-2.166-0.188-3.201-0.565c-1.13-0.376-1.695-0.565-1.695-0.565c-0.188,0-0.376,0.094-0.565,0.188
			c-0.188,0.188-0.376,0.376-0.471,0.659h-1.412V354.431z"/>
		<path fill="#494743" d="M257.322,357.162c0,0.847,0.188,1.412,0.471,1.695c0.283,0.282,0.848,0.376,1.695,0.376h0.377v1.412
			h-9.039v-1.318c0.659-0.094,1.13-0.283,1.318-0.565c0.188-0.283,0.376-0.753,0.376-1.506v-15.63c0-0.753-0.094-1.224-0.376-1.412
			c-0.283-0.282-0.753-0.376-1.413-0.376v-1.413c0.942,0,1.978-0.094,2.919-0.188c1.036-0.094,2.071-0.188,3.201-0.283v3.013
			c0.565-0.942,1.224-1.695,1.978-2.26c0.847-0.471,1.789-0.753,2.824-0.753c1.978,0,3.672,0.753,4.896,2.26
			c1.224,1.506,1.883,3.578,1.883,6.12c0,2.448-0.659,4.519-1.883,6.026c-1.224,1.506-2.824,2.259-4.802,2.259
			c-1.036,0-1.977-0.188-2.73-0.659c-0.753-0.471-1.318-1.036-1.695-1.695V357.162L257.322,357.162z M260.241,352.736
			c0.941,0,1.695-0.565,2.166-1.601c0.471-1.13,0.753-2.73,0.753-4.802c0-2.166-0.283-3.766-0.753-4.802
			c-0.471-1.13-1.224-1.601-2.166-1.601s-1.695,0.564-2.166,1.694s-0.753,2.73-0.753,4.802c0,2.071,0.283,3.766,0.753,4.802
			C258.546,352.171,259.3,352.736,260.241,352.736z"/>
		<path fill="#494743" d="M280.014,352.077c-0.942,0.848-1.883,1.506-2.73,1.883c-0.848,0.376-1.883,0.659-2.73,0.659
			c-1.224,0-2.354-0.376-3.107-1.129c-0.847-0.753-1.224-1.695-1.224-2.919c0-1.695,0.753-2.919,2.354-3.86s3.955-1.506,7.25-1.789
			v-2.166c0-1.412-0.188-2.26-0.659-2.824c-0.471-0.471-1.224-0.753-2.26-0.753c-0.471,0-0.847,0.094-1.224,0.188
			c-0.377,0.188-0.565,0.283-0.565,0.471c0,0,0,0.094,0.094,0.188c0,0.094,0.094,0.094,0.094,0.094l0.471,0.659
			c0.094,0.094,0.188,0.282,0.188,0.471c0.094,0.188,0.094,0.376,0.094,0.659c0,0.565-0.188,1.036-0.659,1.506
			c-0.471,0.376-1.036,0.565-1.789,0.565c-0.753,0-1.318-0.188-1.789-0.659s-0.659-0.941-0.659-1.601c0-1.13,0.659-2.071,1.883-2.73
			c1.224-0.753,2.824-1.13,4.802-1.13c2.354,0,4.143,0.471,5.272,1.413c1.13,0.941,1.695,2.448,1.695,4.519v7.626
			c0,0.283,0.094,0.471,0.188,0.659s0.282,0.188,0.471,0.188s0.376-0.094,0.565-0.188c0.282-0.094,0.471-0.188,0.565-0.188
			s0.188,0.094,0.282,0.188s0.188,0.188,0.188,0.377c0,0.471-0.376,0.847-1.13,1.318s-1.506,0.659-2.448,0.659
			c-0.753,0-1.412-0.188-1.977-0.565C280.767,353.49,280.296,352.925,280.014,352.077z M279.731,346.24
			c-1.601,0.188-2.825,0.659-3.578,1.224c-0.753,0.565-1.224,1.412-1.224,2.354c0,0.659,0.188,1.224,0.565,1.601
			c0.376,0.377,0.941,0.565,1.601,0.565c0.941,0,1.601-0.376,1.978-1.036c0.471-0.659,0.659-1.789,0.659-3.201
			c0-0.188,0-0.376,0-0.565C279.731,346.993,279.731,346.71,279.731,346.24z"/>
		<path fill="#494743" d="M291.688,353.583c-0.941-0.282-1.695-0.565-2.166-1.036s-0.753-1.036-0.753-1.789
			c0-0.565,0.188-1.13,0.659-1.695c0.377-0.565,1.036-1.036,1.883-1.507c-0.847-0.471-1.506-1.129-1.977-1.883
			s-0.659-1.601-0.659-2.542c0-1.601,0.659-2.825,1.977-3.86c1.318-0.942,3.013-1.507,5.084-1.507c0.753,0,1.412,0.094,2.071,0.188
			c0.659,0.188,1.318,0.376,1.977,0.659c0.565-0.941,1.13-1.601,1.695-1.978c0.565-0.376,1.318-0.659,1.978-0.659
			s1.13,0.188,1.506,0.471c0.376,0.282,0.565,0.753,0.565,1.224c0,0.376-0.094,0.753-0.376,1.036
			c-0.283,0.282-0.565,0.376-1.036,0.376c-0.377,0-0.848-0.094-1.318-0.282c-0.471-0.188-0.848-0.283-0.941-0.283
			c-0.283,0-0.471,0.094-0.659,0.188s-0.283,0.282-0.471,0.565c0.659,0.565,1.13,1.13,1.506,1.883
			c0.376,0.659,0.471,1.413,0.471,2.26c0,1.601-0.659,2.919-1.977,3.766c-1.318,0.941-3.107,1.413-5.461,1.413
			c-0.471,0-0.941,0-1.413-0.094c-0.376-0.094-0.847-0.094-1.13-0.283c-0.471,0.188-0.847,0.377-1.036,0.659
			c-0.188,0.282-0.376,0.471-0.376,0.753c0,0.376,0.188,0.659,0.659,0.847s1.506,0.283,3.013,0.283c1.695,0,2.919,0.094,3.86,0.188
			c0.942,0.094,1.601,0.188,1.978,0.283c1.224,0.376,2.166,0.941,2.73,1.601s0.847,1.601,0.847,2.636
			c0,1.695-0.847,3.013-2.448,3.955c-1.601,0.941-3.86,1.412-6.685,1.412c-2.354,0-4.331-0.376-5.744-1.224
			c-1.506-0.753-2.259-1.789-2.259-3.013c0-0.848,0.282-1.506,0.941-1.978C289.241,354.243,290.276,353.866,291.688,353.583z
			 M290.559,356.785c0,0.753,0.471,1.412,1.413,1.883c0.941,0.471,2.26,0.659,3.86,0.659s2.918-0.188,3.86-0.659
			c0.941-0.471,1.412-1.13,1.412-1.883c0-0.753-0.471-1.413-1.412-1.883c-0.942-0.471-2.26-0.659-3.86-0.659
			s-2.919,0.188-3.86,0.659C291.029,355.373,290.559,356.032,290.559,356.785z M295.832,347.181c0.847,0,1.506-0.376,1.977-1.036
			c0.471-0.753,0.753-1.695,0.753-2.919c0-1.224-0.283-2.166-0.753-2.918c-0.471-0.753-1.13-1.036-1.977-1.036
			c-0.848,0-1.507,0.376-1.978,1.036s-0.753,1.695-0.753,2.918c0,1.224,0.282,2.166,0.753,2.919
			C294.325,346.805,294.984,347.181,295.832,347.181z"/>
		<path fill="#494743" d="M321.253,345.957h-9.792c0,0.094,0,0.283,0,0.471c0,0.188,0,0.376,0,0.659
			c0,1.978,0.282,3.484,0.848,4.425c0.564,0.942,1.412,1.413,2.636,1.413c0.941,0,1.789-0.283,2.637-0.942
			c0.848-0.565,1.506-1.506,2.071-2.636l1.507,0.471c-0.659,1.601-1.601,2.73-2.825,3.484c-1.224,0.753-2.73,1.13-4.52,1.13
			c-1.035,0-1.977-0.188-2.918-0.565c-0.942-0.376-1.695-0.848-2.448-1.506c-0.848-0.753-1.507-1.695-1.884-2.825
			c-0.376-1.13-0.659-2.26-0.659-3.484c0-2.448,0.753-4.519,2.166-6.026c1.412-1.506,3.39-2.354,5.743-2.354
			c2.26,0,4.049,0.753,5.367,2.166c1.318,1.412,2.071,3.389,2.071,5.743V345.957z M311.461,344.639h4.708v-0.283
			c0-1.789-0.188-3.107-0.565-3.86c-0.377-0.753-0.941-1.13-1.789-1.13c-0.847,0-1.412,0.377-1.789,1.13
			C311.743,341.155,311.555,342.568,311.461,344.639z"/>
		<path fill="#494743" d="M339.801,331.552c1.318,0,2.543-0.094,3.86-0.188c1.318-0.094,2.543-0.282,3.767-0.471v19.96
			c0,0.753,0.094,1.224,0.282,1.413s0.659,0.282,1.318,0.282h0.471v1.507c-1.13,0-2.26,0.094-3.295,0.188
			c-1.036,0.094-1.978,0.283-2.919,0.565v-3.672c-0.659,1.13-1.412,1.977-2.26,2.542s-1.789,0.848-2.919,0.848
			c-1.978,0-3.672-0.753-4.896-2.26c-1.224-1.506-1.883-3.578-1.883-6.026c0-2.448,0.659-4.52,1.883-6.026
			c1.225-1.506,2.919-2.354,4.896-2.354c1.036,0,1.978,0.188,2.73,0.659c0.753,0.376,1.318,1.036,1.694,1.695v-5.461
			c0-0.753-0.188-1.224-0.471-1.412c-0.282-0.188-0.941-0.377-1.977-0.377h-0.283V331.552z M339.707,352.736
			c0.941,0,1.694-0.565,2.166-1.601c0.471-1.13,0.753-2.73,0.753-4.802c0-2.166-0.282-3.766-0.753-4.802
			c-0.472-1.036-1.225-1.601-2.166-1.601s-1.694,0.564-2.165,1.694c-0.472,1.13-0.754,2.73-0.754,4.802
			c0,2.071,0.282,3.672,0.754,4.802C338.013,352.171,338.766,352.736,339.707,352.736z"/>
		<path fill="#494743" d="M358.632,354.619c-1.035,0-2.071-0.188-2.919-0.564c-0.941-0.377-1.694-0.848-2.447-1.601
			c-0.848-0.753-1.413-1.695-1.884-2.73c-0.471-1.036-0.659-2.26-0.659-3.484c0-2.448,0.754-4.52,2.166-6.026
			c1.507-1.601,3.39-2.354,5.743-2.354s4.237,0.753,5.743,2.354c1.507,1.601,2.26,3.578,2.26,6.026c0,1.224-0.188,2.448-0.659,3.484
			c-0.471,1.036-1.035,1.977-1.883,2.73c-0.753,0.659-1.507,1.224-2.448,1.601C360.609,354.431,359.668,354.619,358.632,354.619z
			 M358.632,353.207c0.941,0,1.601-0.471,1.978-1.412c0.377-0.942,0.564-2.825,0.564-5.461c0-2.73-0.188-4.52-0.564-5.555
			c-0.377-0.941-1.036-1.413-1.978-1.413s-1.601,0.471-1.978,1.413c-0.376,0.941-0.564,2.825-0.564,5.555s0.188,4.519,0.564,5.461
			C357.031,352.736,357.69,353.207,358.632,353.207z"/>
		<path fill="#494743" d="M383.583,345.957h-9.792c0,0.094,0,0.283,0,0.471c0,0.188,0,0.376,0,0.659
			c0,1.978,0.282,3.484,0.847,4.425c0.565,0.942,1.413,1.413,2.637,1.413c0.941,0,1.789-0.283,2.637-0.942
			c0.847-0.565,1.506-1.506,2.071-2.636l1.412,0.471c-0.659,1.601-1.601,2.73-2.824,3.484c-1.225,0.753-2.73,1.13-4.52,1.13
			c-1.036,0-1.978-0.188-2.919-0.565s-1.695-0.848-2.448-1.506c-0.848-0.753-1.507-1.695-1.883-2.825
			c-0.377-1.13-0.659-2.26-0.659-3.484c0-2.448,0.753-4.519,2.165-6.026c1.507-1.601,3.39-2.354,5.744-2.354
			c2.26,0,4.048,0.753,5.366,2.166c1.318,1.412,2.071,3.389,2.071,5.743v0.376H383.583z M373.791,344.639h4.707v-0.283
			c0-1.789-0.188-3.107-0.564-3.86c-0.377-0.753-0.941-1.13-1.789-1.13s-1.412,0.377-1.789,1.13
			C373.979,341.155,373.791,342.568,373.791,344.639z"/>
		<path fill="#494743" d="M386.313,354.431v-5.649h1.412c0.753,1.506,1.507,2.636,2.354,3.39c0.754,0.659,1.695,1.036,2.73,1.036
			c0.754,0,1.412-0.188,1.978-0.659c0.471-0.376,0.753-0.941,0.753-1.601c0-0.941-1.035-1.883-3.201-2.636
			c-0.188-0.094-0.376-0.188-0.471-0.188c-2.165-0.753-3.578-1.601-4.425-2.448c-0.848-0.848-1.225-1.883-1.225-3.107
			c0-1.413,0.471-2.542,1.507-3.484c1.036-0.847,2.354-1.318,3.954-1.318c0.848,0,1.789,0.188,2.73,0.471
			c0.941,0.376,1.412,0.471,1.507,0.471c0.188,0,0.471-0.094,0.564-0.188c0.095-0.094,0.283-0.376,0.283-0.565h1.317v4.802h-1.412
			c-0.564-1.224-1.224-2.071-1.977-2.73c-0.754-0.659-1.602-0.941-2.543-0.941c-0.847,0-1.506,0.188-1.977,0.565
			s-0.754,0.847-0.754,1.412c0,0.942,1.13,1.695,3.296,2.448c0.282,0.094,0.471,0.188,0.564,0.188
			c2.26,0.847,3.86,1.601,4.708,2.448c0.848,0.848,1.224,1.883,1.224,3.107c0,1.601-0.471,2.825-1.506,3.766
			c-1.036,0.942-2.354,1.413-4.049,1.413c-1.036,0-2.166-0.188-3.201-0.565c-1.13-0.376-1.694-0.565-1.694-0.565
			c-0.188,0-0.377,0.094-0.565,0.188c-0.188,0.188-0.377,0.376-0.471,0.659h-1.412V354.431z"/>
		<path fill="#494743" d="M417.102,350.571c0,0.753,0.094,1.318,0.377,1.601c0.188,0.283,0.659,0.471,1.317,0.565v1.412h-8.097
			v-1.412c0.659-0.094,1.035-0.282,1.318-0.471c0.188-0.283,0.376-0.848,0.376-1.601v-6.779c0-1.224-0.094-2.071-0.376-2.448
			c-0.283-0.471-0.659-0.659-1.318-0.659c-0.941,0-1.601,0.471-2.166,1.318c-0.564,0.848-0.753,2.072-0.753,3.672v4.896
			c0,0.753,0.094,1.318,0.377,1.601c0.188,0.282,0.659,0.471,1.317,0.471v1.412h-8.097v-1.412c0.659-0.094,1.035-0.282,1.318-0.565
			c0.282-0.283,0.282-0.753,0.282-1.601v-9.039c0-0.753-0.094-1.224-0.377-1.413c-0.188-0.188-0.659-0.376-1.412-0.376v-1.413
			c1.224-0.094,2.26-0.188,3.296-0.188c1.035-0.094,1.977-0.188,2.918-0.283v3.578c0.848-1.13,1.695-1.978,2.637-2.542
			s1.883-0.847,3.013-0.847c1.507,0,2.637,0.471,3.296,1.506s1.035,2.73,1.035,5.084v5.932H417.102z"/>
		<path fill="#494743" d="M419.267,339.837c0.942-0.377,1.601-0.848,2.26-1.318c0.565-0.565,0.848-1.036,0.848-1.412
			c0-0.188-0.377-0.471-1.13-0.659c-0.188-0.094-0.282-0.094-0.377-0.094c-0.376-0.094-0.753-0.376-0.941-0.753
			c-0.188-0.376-0.376-0.753-0.376-1.318c0-0.753,0.188-1.413,0.659-1.883s1.035-0.753,1.788-0.753c0.848,0,1.507,0.282,2.072,0.941
			c0.564,0.659,0.847,1.412,0.847,2.354c0,1.506-0.471,2.824-1.412,3.86c-0.941,1.13-2.26,1.883-3.954,2.354L419.267,339.837z"/>
		<path fill="#494743" d="M428.494,339.743h-1.883v-1.413c1.318-0.376,2.354-1.036,3.201-2.071s1.412-2.354,1.883-4.143h1.695v6.214
			h3.672v1.413h-3.672v9.133c0,1.036,0.094,1.789,0.282,2.26s0.471,0.753,0.847,0.753c0.471,0,0.754-0.282,1.036-0.941
			s0.471-1.601,0.565-2.825h1.506v0.188c0,2.071-0.471,3.578-1.318,4.708c-0.847,1.13-2.071,1.601-3.672,1.601
			c-1.412,0-2.448-0.376-3.106-1.224c-0.659-0.848-0.942-2.26-0.942-4.237v-9.415H428.494z"/>
		<path fill="#494743" d="M462.295,345.957h-9.792c0,0.094,0,0.283,0,0.471c0,0.188,0,0.376,0,0.659
			c0,1.978,0.283,3.484,0.848,4.425c0.565,0.942,1.412,1.413,2.637,1.413c0.941,0,1.789-0.283,2.636-0.942
			c0.848-0.565,1.507-1.506,2.071-2.636l1.413,0.471c-0.659,1.601-1.601,2.73-2.825,3.484c-1.224,0.753-2.73,1.13-4.52,1.13
			c-1.035,0-1.977-0.188-2.918-0.565c-0.942-0.376-1.695-0.848-2.448-1.506c-0.848-0.753-1.507-1.695-1.883-2.825
			c-0.377-1.13-0.659-2.26-0.659-3.484c0-2.448,0.753-4.519,2.165-6.026c1.507-1.601,3.39-2.354,5.743-2.354
			c2.26,0,4.049,0.753,5.367,2.166c1.318,1.412,2.071,3.389,2.071,5.743v0.376H462.295z M452.503,344.639h4.708v-0.283
			c0-1.789-0.188-3.107-0.564-3.86c-0.377-0.753-0.941-1.13-1.789-1.13s-1.412,0.377-1.789,1.13
			C452.786,341.155,452.598,342.568,452.503,344.639z"/>
		<path fill="#494743" d="M478.02,350.853c0.376,0.565,0.847,1.036,1.224,1.318s0.941,0.471,1.507,0.659v1.412h-9.228v-1.412
			c0.565-0.094,0.941-0.094,1.224-0.283c0.283-0.094,0.377-0.282,0.377-0.565c0-0.094,0-0.188,0-0.282s-0.094-0.188-0.094-0.283
			l-2.166-3.107l-2.448,2.825c-0.094,0.188-0.188,0.282-0.282,0.471s-0.094,0.282-0.094,0.376c0,0.188,0.188,0.377,0.471,0.471
			c0.282,0.094,0.753,0.188,1.412,0.282v1.412h-6.309v-1.412c0.659-0.188,1.318-0.471,1.884-0.848
			c0.564-0.376,1.317-1.224,2.259-2.354l2.26-2.73l-3.483-5.179c-0.377-0.565-0.848-1.036-1.224-1.318
			c-0.377-0.283-0.941-0.471-1.507-0.565v-1.413h8.757v1.413c-0.472,0-0.848,0.094-1.036,0.188
			c-0.188,0.094-0.282,0.188-0.282,0.376c0,0.094,0,0.188,0.094,0.282c0,0.094,0.095,0.188,0.188,0.377l1.978,3.013l2.165-2.542
			c0.095-0.094,0.188-0.283,0.282-0.471c0.095-0.188,0.095-0.377,0.095-0.471c0-0.282-0.095-0.471-0.377-0.564
			c-0.282-0.094-0.659-0.188-1.224-0.188v-1.413h6.309v1.413c-0.565,0.094-1.13,0.282-1.602,0.565
			c-0.471,0.282-0.941,0.753-1.601,1.506l-3.013,3.578L478.02,350.853z"/>
		<path fill="#494743" d="M481.221,354.148v-1.412c0.658-0.094,1.035-0.282,1.317-0.565c0.283-0.283,0.283-0.753,0.283-1.601v-9.039
			c0-0.753-0.095-1.224-0.377-1.413c-0.282-0.188-0.659-0.376-1.412-0.376v-1.413c1.035-0.094,2.071-0.094,3.201-0.188
			s2.26-0.188,3.39-0.283v12.711c0,0.753,0.094,1.318,0.282,1.601s0.659,0.471,1.318,0.565v1.412H481.221z M482.162,333.152
			c0-0.659,0.282-1.224,0.753-1.601c0.471-0.471,1.13-0.659,1.978-0.659c0.753,0,1.412,0.188,1.977,0.659
			c0.565,0.471,0.754,0.941,0.754,1.601s-0.283,1.224-0.754,1.601s-1.13,0.659-1.977,0.659c-0.848,0-1.507-0.188-1.978-0.659
			C482.444,334.376,482.162,333.812,482.162,333.152z"/>
		<path fill="#494743" d="M491.859,354.431v-5.649h1.413c0.753,1.506,1.506,2.636,2.354,3.39c0.753,0.659,1.694,1.036,2.73,1.036
			c0.753,0,1.412-0.188,1.978-0.659c0.471-0.376,0.753-0.941,0.753-1.601c0-0.941-1.036-1.883-3.201-2.636
			c-0.188-0.094-0.377-0.188-0.471-0.188c-2.166-0.753-3.578-1.601-4.426-2.448c-0.847-0.848-1.224-1.883-1.224-3.107
			c0-1.413,0.471-2.542,1.506-3.484c1.036-0.847,2.354-1.318,3.955-1.318c0.848,0,1.789,0.188,2.73,0.471
			c0.941,0.376,1.412,0.471,1.506,0.471c0.188,0,0.472-0.094,0.565-0.188s0.282-0.376,0.282-0.565h1.318v4.802h-1.412
			c-0.565-1.224-1.225-2.071-1.978-2.73s-1.601-0.941-2.542-0.941c-0.848,0-1.507,0.188-1.978,0.565s-0.753,0.847-0.753,1.412
			c0,0.942,1.13,1.695,3.295,2.448c0.283,0.094,0.472,0.188,0.565,0.188c2.26,0.847,3.86,1.601,4.708,2.448
			c0.847,0.848,1.224,1.883,1.224,3.107c0,1.601-0.471,2.825-1.507,3.766c-1.035,0.942-2.354,1.413-4.048,1.413
			c-1.036,0-2.166-0.188-3.202-0.565c-1.129-0.376-1.694-0.565-1.694-0.565c-0.188,0-0.377,0.094-0.564,0.188
			c-0.188,0.188-0.377,0.376-0.471,0.659h-1.413V354.431z"/>
		<path fill="#494743" d="M508.242,339.743h-1.883v-1.413c1.318-0.376,2.354-1.036,3.201-2.071s1.412-2.354,1.883-4.143h1.695v6.214
			h3.672v1.413h-3.672v9.133c0,1.036,0.094,1.789,0.282,2.26s0.471,0.753,0.848,0.753c0.471,0,0.753-0.282,1.035-0.941
			s0.471-1.601,0.565-2.825h1.506v0.188c0,2.071-0.471,3.578-1.318,4.708c-0.847,1.13-2.071,1.601-3.672,1.601
			c-1.412,0-2.447-0.376-3.106-1.224c-0.659-0.848-0.941-2.26-0.941-4.237v-9.415H508.242z"/>
		<path fill="#494743" d="M519.07,351.983c0-0.753,0.282-1.412,0.848-1.883c0.564-0.471,1.224-0.753,1.883-0.753
			c0.753,0,1.412,0.283,1.977,0.753c0.565,0.471,0.754,1.13,0.754,1.883c0,0.753-0.282,1.413-0.754,1.883
			c-0.564,0.471-1.224,0.753-1.977,0.753s-1.412-0.282-1.883-0.753C519.353,353.301,519.07,352.642,519.07,351.983z"/>
		<path fill="#494743" d="M4.143,382.866c0-0.942-0.188-1.601-0.471-1.978c-0.282-0.376-1.036-0.471-2.166-0.565v-1.506h12.24
			c3.295,0,5.743,0.471,7.344,1.506c1.601,0.942,2.448,2.448,2.448,4.425c0,2.166-0.848,3.766-2.448,4.802s-4.237,1.507-7.909,1.507
			H9.886v5.744c0,0.941,0.188,1.601,0.565,1.977c0.376,0.282,1.224,0.471,2.636,0.565v1.506H1.506v-1.506
			c1.13-0.095,1.883-0.283,2.166-0.565c0.283-0.282,0.471-0.941,0.471-1.977V382.866z M9.792,383.054v6.309h1.789
			c2.071,0,3.578-0.377,4.519-1.13c0.942-0.753,1.413-1.883,1.413-3.484s-0.376-2.73-1.13-3.483c-0.753-0.753-1.883-1.13-3.484-1.13
			c-1.224,0-2.071,0.188-2.542,0.565C9.98,381.171,9.792,381.924,9.792,383.054z"/>
		<path fill="#494743" d="M26.175,381.547c0-0.753-0.094-1.224-0.376-1.412c-0.283-0.283-0.753-0.377-1.413-0.377v-1.412
			c0.941,0,1.978-0.094,3.107-0.283c1.129-0.094,2.259-0.282,3.578-0.471v19.772c0,0.753,0.094,1.318,0.376,1.601
			c0.188,0.282,0.659,0.471,1.318,0.565v1.412H24.48v-1.412c0.659-0.095,1.036-0.283,1.318-0.565
			c0.188-0.282,0.282-0.753,0.282-1.601v-15.818H26.175z"/>
		<path fill="#494743" d="M49.808,392.658h-9.792c0,0.094,0,0.282,0,0.471c0,0.188,0,0.376,0,0.659c0,1.977,0.282,3.484,0.847,4.425
			s1.412,1.412,2.636,1.412c0.941,0,1.789-0.282,2.636-0.941c0.848-0.565,1.506-1.507,2.071-2.637l1.413,0.471
			c-0.659,1.601-1.601,2.73-2.825,3.484c-1.224,0.753-2.73,1.13-4.52,1.13c-1.036,0-1.977-0.188-2.918-0.565
			c-0.942-0.377-1.695-0.848-2.448-1.507c-0.847-0.753-1.506-1.694-1.883-2.824c-0.471-1.036-0.659-2.26-0.659-3.484
			c0-2.448,0.753-4.519,2.166-6.026c1.412-1.506,3.39-2.354,5.743-2.354c2.26,0,4.049,0.753,5.367,2.166
			c1.318,1.412,2.071,3.39,2.071,5.743v0.377H49.808z M40.016,391.339h4.708v-0.282c0-1.789-0.188-3.107-0.565-3.86
			c-0.376-0.753-0.941-1.13-1.789-1.13c-0.847,0-1.412,0.376-1.789,1.13C40.204,387.855,40.016,389.268,40.016,391.339z"/>
		<path fill="#494743" d="M61.577,398.777c-0.941,0.848-1.883,1.507-2.73,1.883c-0.941,0.472-1.883,0.659-2.73,0.659
			c-1.224,0-2.354-0.376-3.107-1.13c-0.848-0.753-1.224-1.694-1.224-2.918c0-1.695,0.753-2.919,2.354-3.861
			c1.601-0.941,3.954-1.506,7.25-1.789v-2.166c0-1.412-0.188-2.259-0.659-2.824c-0.471-0.471-1.224-0.753-2.259-0.753
			c-0.471,0-0.848,0.094-1.224,0.188c-0.376,0.188-0.565,0.282-0.565,0.471c0,0,0,0.094,0.094,0.188
			c0,0.094,0.094,0.094,0.094,0.094l0.471,0.659c0.094,0.094,0.188,0.283,0.188,0.471c0.094,0.188,0.094,0.377,0.094,0.659
			c0,0.565-0.188,1.036-0.659,1.506c-0.471,0.377-1.036,0.565-1.789,0.565c-0.753,0-1.318-0.188-1.789-0.659
			c-0.471-0.471-0.659-0.941-0.659-1.601c0-1.129,0.659-2.071,1.883-2.73c1.224-0.753,2.824-1.129,4.802-1.129
			c2.354,0,4.143,0.471,5.272,1.412s1.695,2.448,1.695,4.52v7.626c0,0.283,0.094,0.471,0.188,0.659
			c0.094,0.095,0.282,0.188,0.471,0.188c0.188,0,0.376-0.094,0.565-0.188c0.282-0.094,0.471-0.188,0.565-0.188
			s0.188,0.095,0.282,0.188c0.094,0.095,0.188,0.188,0.188,0.377c0,0.471-0.376,0.848-1.13,1.318s-1.506,0.659-2.448,0.659
			c-0.753,0-1.412-0.188-1.977-0.565S61.859,399.625,61.577,398.777z M61.294,392.94c-1.601,0.188-2.824,0.659-3.578,1.224
			s-1.224,1.412-1.224,2.354c0,0.659,0.188,1.225,0.565,1.601c0.377,0.377,0.941,0.565,1.601,0.565c0.942,0,1.601-0.377,1.978-1.036
			c0.471-0.659,0.659-1.789,0.659-3.201c0-0.188,0-0.376,0-0.565C61.294,393.693,61.294,393.411,61.294,392.94z"/>
		<path fill="#494743" d="M70.145,401.132v-5.65h1.413c0.753,1.506,1.506,2.636,2.354,3.39c0.848,0.659,1.695,1.035,2.73,1.035
			c0.753,0,1.413-0.188,1.978-0.659s0.753-0.941,0.753-1.601c0-0.941-1.036-1.883-3.201-2.636c-0.188-0.094-0.376-0.188-0.471-0.188
			c-2.166-0.753-3.672-1.601-4.425-2.448c-0.847-0.847-1.224-1.883-1.224-3.107c0-1.413,0.471-2.542,1.507-3.484
			c1.036-0.847,2.354-1.318,3.954-1.318c0.848,0,1.789,0.188,2.73,0.471c0.942,0.376,1.413,0.471,1.507,0.471
			c0.188,0,0.471-0.094,0.564-0.188c0.188-0.188,0.283-0.376,0.283-0.565h1.318v4.802h-1.413c-0.565-1.224-1.224-2.071-1.977-2.73
			c-0.753-0.659-1.601-0.941-2.542-0.941c-0.847,0-1.506,0.188-1.977,0.565s-0.753,0.848-0.753,1.413
			c0,0.941,1.13,1.694,3.295,2.448c0.283,0.094,0.471,0.188,0.565,0.188c2.26,0.847,3.86,1.601,4.708,2.448
			c0.847,0.848,1.224,1.883,1.224,3.107c0,1.601-0.471,2.824-1.506,3.766s-2.354,1.413-4.048,1.413
			c-1.036,0-2.166-0.188-3.201-0.565c-1.13-0.377-1.695-0.564-1.695-0.564c-0.188,0-0.377,0.094-0.565,0.188
			c-0.188,0.188-0.377,0.377-0.471,0.659h-1.413V401.132z"/>
		<path fill="#494743" d="M100.368,392.658h-9.792c0,0.094,0,0.282,0,0.471c0,0.188,0,0.376,0,0.659
			c0,1.977,0.282,3.484,0.847,4.425s1.413,1.412,2.636,1.412c0.942,0,1.789-0.282,2.636-0.941c0.848-0.565,1.507-1.507,2.072-2.637
			l1.412,0.471c-0.659,1.601-1.601,2.73-2.825,3.484c-1.224,0.753-2.73,1.13-4.519,1.13c-1.036,0-1.978-0.188-2.919-0.565
			s-1.695-0.848-2.448-1.507c-0.847-0.753-1.506-1.694-1.883-2.824c-0.471-1.036-0.659-2.26-0.659-3.484
			c0-2.448,0.753-4.519,2.166-6.026c1.412-1.506,3.39-2.354,5.744-2.354c2.259,0,4.048,0.753,5.367,2.166
			c1.318,1.412,2.071,3.39,2.071,5.743v0.377H100.368z M90.482,391.339h4.708v-0.282c0-1.789-0.188-3.107-0.565-3.86
			c-0.376-0.753-0.941-1.13-1.789-1.13c-0.848,0-1.413,0.376-1.789,1.13C90.764,387.855,90.576,389.268,90.482,391.339z"/>
		<path fill="#494743" d="M125.413,397.459c-0.848,1.318-1.883,2.26-3.013,2.919c-1.224,0.659-2.542,1.036-3.955,1.036
			c-2.354,0-4.237-0.754-5.743-2.26c-1.506-1.507-2.166-3.484-2.166-5.932c0-2.542,0.753-4.614,2.354-6.214s3.578-2.354,6.12-2.354
			c1.789,0,3.295,0.471,4.425,1.318c1.13,0.847,1.789,1.977,1.789,3.201c0,0.753-0.188,1.318-0.753,1.789s-1.13,0.659-1.883,0.659
			c-0.659,0-1.224-0.188-1.695-0.565c-0.471-0.377-0.659-0.848-0.659-1.413c0-0.282,0.094-0.659,0.188-0.941
			c0.094-0.283,0.376-0.565,0.659-0.753l0.471-0.471c0.094-0.094,0.188-0.188,0.188-0.188s0.094-0.188,0.094-0.283
			c0-0.188-0.188-0.471-0.659-0.659c-0.471-0.188-0.941-0.282-1.601-0.282c-1.318,0-2.259,0.471-2.824,1.506
			s-0.942,2.636-0.942,4.896c0,2.354,0.283,4.048,0.942,5.178c0.659,1.13,1.694,1.695,3.013,1.695c0.753,0,1.412-0.188,2.166-0.659
			s1.506-1.13,2.166-1.978L125.413,397.459z"/>
		<path fill="#494743" d="M142.643,397.271c0,0.753,0.094,1.317,0.376,1.601c0.188,0.282,0.659,0.471,1.318,0.564v1.412h-8.097
			v-1.412c0.659-0.094,1.036-0.282,1.318-0.471c0.188-0.282,0.377-0.848,0.377-1.601v-6.779c0-1.224-0.094-2.071-0.377-2.448
			c-0.282-0.471-0.659-0.659-1.318-0.659c-0.942,0-1.601,0.471-2.166,1.318c-0.565,0.847-0.753,2.071-0.753,3.672v4.896
			c0,0.848,0.094,1.318,0.376,1.601c0.188,0.282,0.659,0.471,1.318,0.471v1.412h-8.097v-1.412c0.659-0.094,1.036-0.282,1.318-0.564
			c0.188-0.283,0.283-0.754,0.283-1.601v-15.724c0-0.753-0.094-1.224-0.376-1.506c-0.283-0.283-0.753-0.377-1.413-0.377v-1.412
			c1.036,0,2.071-0.094,3.107-0.282c1.13-0.094,2.26-0.283,3.484-0.471v10.074c0.753-0.941,1.601-1.695,2.448-2.166
			c0.847-0.471,1.789-0.659,2.73-0.659c1.506,0,2.636,0.471,3.295,1.506c0.659,1.036,0.941,2.73,0.941,5.084v5.932H142.643z"/>
		<path fill="#494743" d="M161.38,392.658h-9.792c0,0.094,0,0.282,0,0.471c0,0.188,0,0.376,0,0.659c0,1.977,0.282,3.484,0.847,4.425
			s1.412,1.412,2.636,1.412c0.941,0,1.789-0.282,2.636-0.941c0.848-0.565,1.507-1.507,2.072-2.637l1.412,0.471
			c-0.659,1.601-1.601,2.73-2.825,3.484c-1.224,0.753-2.73,1.13-4.52,1.13c-1.036,0-1.977-0.188-2.918-0.565
			s-1.695-0.848-2.448-1.507c-0.847-0.753-1.506-1.694-1.883-2.824c-0.471-1.036-0.659-2.26-0.659-3.484
			c0-2.448,0.753-4.519,2.166-6.026c1.412-1.506,3.39-2.354,5.743-2.354c2.26,0,4.049,0.753,5.367,2.166
			c1.318,1.412,2.071,3.39,2.071,5.743v0.377H161.38z M151.588,391.339h4.708v-0.282c0-1.789-0.188-3.107-0.565-3.86
			c-0.376-0.753-0.941-1.13-1.789-1.13c-0.847,0-1.412,0.376-1.789,1.13C151.776,387.855,151.588,389.268,151.588,391.339z"/>
		<path fill="#494743" d="M178.233,397.459c-0.848,1.318-1.883,2.26-3.013,2.919c-1.224,0.659-2.542,1.036-3.955,1.036
			c-2.354,0-4.237-0.754-5.743-2.26c-1.506-1.507-2.166-3.484-2.166-5.932c0-2.542,0.753-4.614,2.354-6.214s3.578-2.354,6.12-2.354
			c1.789,0,3.295,0.471,4.425,1.318c1.13,0.847,1.789,1.977,1.789,3.201c0,0.753-0.188,1.318-0.753,1.789s-1.13,0.659-1.883,0.659
			c-0.659,0-1.224-0.188-1.695-0.565c-0.471-0.377-0.659-0.848-0.659-1.413c0-0.282,0.094-0.659,0.188-0.941
			c0.094-0.283,0.376-0.565,0.659-0.753l0.471-0.471c0.094-0.094,0.188-0.188,0.188-0.188s0.094-0.188,0.094-0.283
			c0-0.188-0.188-0.471-0.659-0.659c-0.471-0.188-0.941-0.282-1.601-0.282c-1.318,0-2.259,0.471-2.824,1.506
			s-0.942,2.636-0.942,4.896c0,2.354,0.283,4.048,0.942,5.178c0.659,1.13,1.694,1.695,3.013,1.695c0.753,0,1.412-0.188,2.166-0.659
			s1.506-1.13,2.166-1.978L178.233,397.459z"/>
		<path fill="#494743" d="M186.142,397.271c0,0.847,0.094,1.317,0.376,1.601c0.188,0.282,0.659,0.471,1.318,0.471v1.412h-8.097
			v-1.412c0.659-0.095,1.036-0.283,1.318-0.565c0.188-0.282,0.283-0.753,0.283-1.601v-15.629c0-0.753-0.094-1.224-0.376-1.412
			c-0.283-0.283-0.753-0.377-1.413-0.377v-1.412c1.036,0,2.071-0.094,3.107-0.283c1.13-0.094,2.26-0.282,3.484-0.471v14.688
			l4.425-3.766c0.188-0.094,0.282-0.282,0.376-0.471s0.188-0.376,0.188-0.471c0-0.282-0.188-0.565-0.471-0.659
			c-0.283-0.094-0.848-0.282-1.601-0.376v-1.413h8.003v1.413c-0.659,0.094-1.224,0.188-1.695,0.471
			c-0.471,0.188-1.036,0.565-1.506,0.941l-3.013,2.448l5.084,7.532c0.376,0.565,0.659,0.942,1.036,1.13
			c0.283,0.283,0.659,0.377,1.13,0.472v1.412h-8.474v-1.412c0.471-0.095,0.847-0.095,1.036-0.283
			c0.188-0.188,0.282-0.282,0.282-0.471c0-0.094,0-0.188-0.094-0.282c-0.094-0.094-0.094-0.188-0.188-0.377l-3.39-4.99l-1.036,0.847
			v3.296H186.142z"/>
		<path fill="#494743" d="M207.892,386.443h-1.883v-1.412c1.318-0.377,2.354-1.036,3.201-2.072c0.847-1.036,1.412-2.354,1.883-4.143
			h1.695v6.214h3.672v1.412h-3.672v9.133c0,1.036,0.094,1.789,0.283,2.26c0.188,0.471,0.471,0.753,0.847,0.753
			c0.471,0,0.753-0.282,1.036-0.941c0.283-0.659,0.471-1.601,0.565-2.824h1.506v0.188c0,2.072-0.471,3.578-1.318,4.708
			c-0.848,1.13-2.071,1.601-3.672,1.601c-1.413,0-2.448-0.471-3.107-1.224c-0.659-0.848-0.941-2.26-0.941-4.237v-9.416H207.892z"/>
		<path fill="#494743" d="M234.161,397.271c0,0.753,0.094,1.317,0.376,1.601c0.188,0.282,0.659,0.471,1.318,0.564v1.412h-8.097
			v-1.412c0.659-0.094,1.036-0.282,1.318-0.471c0.188-0.282,0.377-0.848,0.377-1.601v-6.779c0-1.224-0.094-2.071-0.377-2.448
			c-0.282-0.471-0.659-0.659-1.318-0.659c-0.942,0-1.601,0.471-2.166,1.318c-0.565,0.847-0.753,2.071-0.753,3.672v4.896
			c0,0.848,0.094,1.318,0.376,1.601c0.188,0.282,0.659,0.471,1.318,0.471v1.412h-8.097v-1.412c0.659-0.094,1.036-0.282,1.318-0.564
			c0.188-0.283,0.283-0.754,0.283-1.601v-15.724c0-0.753-0.094-1.224-0.377-1.506c-0.282-0.283-0.753-0.377-1.412-0.377v-1.412
			c1.036,0,2.071-0.094,3.107-0.282c1.13-0.094,2.26-0.283,3.484-0.471v10.074c0.753-0.941,1.601-1.695,2.448-2.166
			c0.848-0.471,1.789-0.659,2.73-0.659c1.507,0,2.637,0.471,3.295,1.506c0.659,1.036,0.942,2.73,0.942,5.084v5.932H234.161z"/>
		<path fill="#494743" d="M252.897,392.658h-9.792c0,0.094,0,0.282,0,0.471c0,0.188,0,0.376,0,0.659
			c0,1.977,0.282,3.484,0.847,4.425s1.412,1.412,2.636,1.412c0.941,0,1.789-0.282,2.636-0.941c0.848-0.565,1.506-1.507,2.071-2.637
			l1.413,0.471c-0.659,1.601-1.601,2.73-2.825,3.484c-1.224,0.753-2.73,1.13-4.52,1.13c-1.036,0-1.977-0.188-2.918-0.565
			c-0.942-0.377-1.695-0.848-2.448-1.507c-0.847-0.753-1.506-1.694-1.883-2.824c-0.471-1.036-0.659-2.26-0.659-3.484
			c0-2.448,0.753-4.519,2.166-6.026c1.412-1.506,3.39-2.354,5.743-2.354c2.26,0,4.049,0.753,5.367,2.166
			c1.318,1.412,2.071,3.39,2.071,5.743v0.377H252.897z M243.011,391.339h4.708v-0.282c0-1.789-0.188-3.107-0.565-3.86
			c-0.376-0.753-0.941-1.13-1.789-1.13c-0.847,0-1.412,0.376-1.789,1.13C243.293,387.855,243.105,389.268,243.011,391.339z"/>
		<path fill="#494743" d="M265.608,382.866c0-1.036-0.188-1.695-0.471-1.978c-0.282-0.282-1.036-0.471-2.26-0.565v-1.506h10.734
			v1.506c-1.036,0.094-1.601,0.283-1.978,0.565c-0.376,0.283-0.471,0.942-0.471,1.978v9.698c0,2.354,0.376,3.954,1.224,5.084
			c0.847,1.036,2.166,1.601,3.954,1.601c1.789,0,3.202-0.564,4.049-1.601c0.847-1.035,1.318-2.73,1.318-4.99v-9.792
			c0-1.036-0.188-1.695-0.471-1.978c-0.282-0.282-0.941-0.471-1.977-0.565v-1.506h7.062v1.506c-1.13,0.094-1.883,0.283-2.166,0.565
			c-0.282,0.283-0.471,0.942-0.471,1.978v9.321c0,3.202-0.753,5.556-2.166,6.968c-1.412,1.506-3.766,2.165-6.873,2.165
			c-3.107,0-5.461-0.753-6.874-2.165c-1.412-1.507-2.166-3.766-2.166-6.968V382.866L265.608,382.866z"/>
		<path fill="#494743" d="M296.396,396.801c0,0.941,0.188,1.601,0.565,1.883c0.376,0.282,1.224,0.471,2.448,0.659v1.506h-11.298
			v-1.506c1.13-0.095,1.883-0.283,2.166-0.565c0.282-0.282,0.471-0.941,0.471-1.977v-13.935c0-0.942-0.188-1.601-0.471-1.978
			c-0.283-0.376-1.036-0.471-2.166-0.565v-1.506h11.393c3.39,0,5.932,0.471,7.533,1.318c1.601,0.847,2.447,2.259,2.447,4.048
			c0,1.413-0.564,2.542-1.789,3.39c-1.224,0.847-3.013,1.412-5.46,1.695c1.601,0.376,2.825,0.847,3.766,1.506
			s1.507,1.506,1.789,2.542c0.188,0.753,0.377,1.789,0.471,3.107c0.094,0.471,0.094,0.848,0.094,1.035
			c0.095,0.565,0.188,0.942,0.377,1.13c0.188,0.188,0.377,0.283,0.659,0.283c0.471,0,0.848-0.283,1.035-0.754
			c0.188-0.471,0.377-1.224,0.377-2.165h1.412c0,0.094,0,0.188,0,0.282s0,0.282,0,0.471c0,1.507-0.376,2.637-1.224,3.483
			c-0.848,0.848-1.978,1.225-3.39,1.225c-0.848,0-1.601-0.095-2.26-0.377s-1.13-0.659-1.601-1.13
			c-0.565-0.753-0.941-2.071-1.036-4.143c0-0.188,0-0.283,0-0.376c-0.188-2.166-0.565-3.672-1.412-4.331
			c-0.377-0.377-0.848-0.565-1.413-0.753s-1.318-0.282-2.166-0.282h-1.412v6.779H296.396z M296.396,382.771v5.649h1.694
			c1.978,0,3.484-0.282,4.331-0.941c0.848-0.659,1.318-1.695,1.318-3.107c0-1.413-0.376-2.448-1.13-3.201
			c-0.753-0.753-1.789-1.13-3.201-1.13c-1.224,0-2.071,0.188-2.448,0.471C296.584,381.077,296.396,381.736,296.396,382.771z"/>
		<path fill="#494743" d="M320.971,396.801c0,1.035,0.188,1.788,0.659,2.071c0.471,0.282,1.412,0.471,2.918,0.471
			c2.166,0,3.955-0.565,5.179-1.789c1.225-1.225,1.978-2.919,2.166-5.273h1.789l-0.471,8.568h-20.526v-1.506
			c1.13-0.095,1.884-0.283,2.166-0.565s0.471-0.941,0.471-1.977v-13.935c0-0.942-0.188-1.601-0.471-1.978
			c-0.282-0.376-1.036-0.471-2.166-0.565v-1.506h10.922v1.506c-1.13,0.094-1.788,0.283-2.165,0.565
			c-0.377,0.283-0.471,0.942-0.471,1.978V396.801L320.971,396.801z"/>
		<path fill="#494743" d="M351.1,401.319c-1.035,0-2.071-0.188-2.919-0.564c-0.847-0.377-1.694-0.848-2.448-1.601
			c-0.847-0.753-1.412-1.695-1.883-2.73c-0.471-1.036-0.659-2.26-0.659-3.484c0-2.448,0.754-4.52,2.166-6.026
			c1.506-1.601,3.39-2.354,5.743-2.354s4.237,0.753,5.743,2.354c1.507,1.601,2.26,3.578,2.26,6.026c0,1.224-0.188,2.448-0.659,3.484
			c-0.471,1.035-1.035,1.978-1.883,2.73c-0.753,0.659-1.507,1.224-2.448,1.601S352.229,401.319,351.1,401.319z M351.1,399.907
			c0.941,0,1.601-0.471,1.978-1.412c0.376-0.941,0.564-2.825,0.564-5.461c0-2.73-0.188-4.52-0.564-5.555
			c-0.377-0.941-1.036-1.412-1.978-1.412s-1.601,0.471-1.978,1.412c-0.376,0.941-0.564,2.825-0.564,5.555s0.188,4.52,0.564,5.461
			C349.499,399.437,350.158,399.907,351.1,399.907z"/>
		<path fill="#494743" d="M360.892,400.849v-1.412c0.659-0.094,1.036-0.282,1.318-0.564c0.188-0.283,0.282-0.754,0.282-1.601v-9.039
			c0-0.753-0.094-1.224-0.282-1.506c-0.188-0.188-0.659-0.283-1.412-0.377v-1.412c1.224-0.094,2.26-0.188,3.295-0.188
			c1.036-0.094,1.978-0.188,2.919-0.282v3.672c0.564-1.13,1.224-1.977,1.978-2.542c0.753-0.565,1.601-0.848,2.542-0.848
			s1.694,0.283,2.354,0.848s0.941,1.224,0.941,2.071c0,0.753-0.188,1.318-0.659,1.695c-0.471,0.471-1.035,0.659-1.788,0.659
			c-0.565,0-1.036-0.188-1.507-0.471c-0.377-0.282-0.565-0.753-0.565-1.224c0-0.094,0-0.094,0-0.188s0-0.094,0-0.188l0.188-0.659
			v-0.094c0,0,0-0.094,0-0.188s0-0.282-0.094-0.282c-0.095-0.094-0.188-0.094-0.377-0.094c-0.659,0-1.224,0.565-1.694,1.789
			c-0.565,1.13-0.754,2.637-0.754,4.332v4.425c0,0.753,0.095,1.318,0.377,1.695c0.282,0.282,0.659,0.471,1.318,0.471h0.753v1.412
			h-9.133V400.849z"/>
		<path fill="#494743" d="M387.537,400.284c-0.941-0.282-1.694-0.565-2.165-1.036s-0.754-1.035-0.754-1.789
			c0-0.564,0.188-1.13,0.659-1.694c0.471-0.565,1.036-1.036,1.883-1.506c-0.847-0.471-1.506-1.13-1.977-1.883
			c-0.471-0.753-0.659-1.601-0.659-2.542c0-1.601,0.659-2.825,1.978-3.86c1.317-0.941,3.013-1.506,5.084-1.506
			c0.753,0,1.412,0.094,2.071,0.188c0.659,0.188,1.318,0.377,1.978,0.659c0.564-0.941,1.13-1.601,1.694-1.977
			c0.565-0.377,1.318-0.659,1.978-0.659s1.13,0.188,1.506,0.471c0.377,0.283,0.565,0.753,0.565,1.224
			c0,0.376-0.094,0.753-0.377,1.036c-0.282,0.282-0.564,0.376-1.035,0.376c-0.377,0-0.848-0.094-1.318-0.282
			c-0.471-0.188-0.848-0.283-0.941-0.283c-0.282,0-0.471,0.094-0.659,0.188s-0.282,0.282-0.471,0.565
			c0.659,0.565,1.13,1.13,1.506,1.883c0.377,0.753,0.472,1.413,0.472,2.26c0,1.601-0.659,2.919-1.978,3.766
			c-1.318,0.848-3.107,1.413-5.461,1.413c-0.471,0-0.941,0-1.412-0.094c-0.377-0.094-0.848-0.094-1.13-0.283
			c-0.471,0.188-0.754,0.377-1.036,0.659c-0.188,0.188-0.377,0.471-0.377,0.753c0,0.377,0.188,0.659,0.659,0.848
			s1.507,0.282,3.014,0.282c1.694,0,2.919,0.095,3.86,0.188c0.941,0.095,1.601,0.188,1.977,0.282
			c1.225,0.377,2.166,0.942,2.73,1.602c0.565,0.658,0.848,1.601,0.848,2.636c0,1.695-0.848,3.013-2.448,3.954
			c-1.601,0.942-3.86,1.413-6.685,1.413c-2.354,0-4.331-0.377-5.743-1.225c-1.413-0.847-2.26-1.789-2.26-3.013
			c0-0.848,0.282-1.507,0.941-1.978C385.089,400.943,386.125,400.566,387.537,400.284z M386.313,403.485
			c0,0.753,0.471,1.412,1.412,1.883s2.26,0.659,3.86,0.659s2.919-0.188,3.86-0.659s1.412-1.13,1.412-1.883s-0.471-1.412-1.412-1.883
			s-2.26-0.659-3.86-0.659s-2.919,0.188-3.86,0.659S386.313,402.732,386.313,403.485z M391.68,393.881
			c0.848,0,1.507-0.376,1.978-1.036c0.471-0.753,0.753-1.695,0.753-2.918c0-1.224-0.282-2.166-0.753-2.919s-1.13-1.036-1.978-1.036
			c-0.847,0-1.506,0.376-1.977,1.036s-0.754,1.695-0.754,2.919c0,1.224,0.283,2.166,0.754,2.918
			C390.174,393.505,390.833,393.881,391.68,393.881z"/>
		<path fill="#494743" d="M409.663,401.319c-1.035,0-2.071-0.188-2.919-0.564c-0.847-0.377-1.694-0.848-2.447-1.601
			c-0.848-0.753-1.412-1.695-1.884-2.73c-0.471-1.036-0.658-2.26-0.658-3.484c0-2.448,0.753-4.52,2.165-6.026
			c1.507-1.601,3.39-2.354,5.743-2.354c2.354,0,4.237,0.753,5.743,2.354c1.507,1.601,2.26,3.578,2.26,6.026
			c0,1.224-0.188,2.448-0.658,3.484c-0.472,1.035-1.036,1.978-1.884,2.73c-0.753,0.659-1.506,1.224-2.448,1.601
			C411.734,401.132,410.699,401.319,409.663,401.319z M409.663,399.907c0.941,0,1.601-0.471,1.978-1.412s0.564-2.825,0.564-5.461
			c0-2.73-0.188-4.52-0.564-5.555c-0.377-0.941-1.036-1.412-1.978-1.412s-1.601,0.471-1.977,1.412
			c-0.377,0.941-0.565,2.825-0.565,5.555s0.188,4.52,0.565,5.461C408.063,399.437,408.722,399.907,409.663,399.907z"/>
		<path fill="#494743" d="M430.001,401.319h-1.318v-19.772c0-0.659-0.095-1.13-0.377-1.412c-0.282-0.283-0.753-0.377-1.412-0.377
			v-1.412c0.941,0,1.978-0.094,3.013-0.188c1.036-0.094,2.26-0.282,3.578-0.565v9.321c0.564-0.753,1.318-1.412,1.978-1.789
			c0.753-0.376,1.506-0.564,2.447-0.564c1.978,0,3.673,0.753,4.896,2.259c1.224,1.507,1.883,3.578,1.883,6.12
			s-0.659,4.519-1.883,6.026s-2.919,2.26-4.99,2.26c-1.036,0-1.883-0.188-2.73-0.659c-0.848-0.377-1.601-1.035-2.26-1.883
			L430.001,401.319z M436.403,399.437c0.941,0,1.694-0.564,2.165-1.601c0.471-1.13,0.754-2.73,0.754-4.802
			c0-2.166-0.283-3.766-0.754-4.802s-1.224-1.601-2.165-1.601s-1.695,0.565-2.166,1.695c-0.471,1.129-0.753,2.73-0.753,4.802
			s0.282,3.766,0.753,4.801C434.803,398.872,435.462,399.437,436.403,399.437z"/>
		<path fill="#494743" d="M456.27,398.777c-0.941,0.848-1.883,1.507-2.73,1.883c-0.941,0.472-1.883,0.659-2.73,0.659
			c-1.224,0-2.354-0.376-3.107-1.13c-0.753-0.753-1.224-1.694-1.224-2.918c0-1.695,0.753-2.919,2.354-3.861
			c1.601-0.941,3.955-1.506,7.25-1.789v-2.166c0-1.412-0.188-2.259-0.659-2.824c-0.471-0.471-1.224-0.753-2.26-0.753
			c-0.471,0-0.847,0.094-1.224,0.188c-0.377,0.188-0.564,0.282-0.564,0.471c0,0,0,0.094,0.094,0.188
			c0,0.094,0.094,0.094,0.094,0.094l0.471,0.659c0.095,0.094,0.188,0.283,0.188,0.471c0.095,0.188,0.095,0.377,0.095,0.659
			c0,0.565-0.188,1.036-0.659,1.506c-0.471,0.377-1.036,0.565-1.789,0.565s-1.318-0.188-1.789-0.659
			c-0.471-0.376-0.659-0.941-0.659-1.601c0-1.129,0.659-2.071,1.883-2.73c1.225-0.753,2.825-1.129,4.803-1.129
			c2.354,0,4.143,0.471,5.272,1.412s1.694,2.448,1.694,4.52v7.626c0,0.283,0.095,0.471,0.188,0.659
			c0.094,0.095,0.282,0.188,0.471,0.188s0.377-0.094,0.565-0.188c0.282-0.094,0.471-0.188,0.564-0.188s0.188,0.095,0.282,0.188
			c0.095,0.095,0.188,0.188,0.188,0.377c0,0.471-0.377,0.848-1.13,1.318s-1.506,0.659-2.448,0.659c-0.753,0-1.412-0.188-1.977-0.565
			C457.211,400.189,456.552,399.625,456.27,398.777z M455.987,392.94c-1.601,0.188-2.825,0.659-3.578,1.224
			s-1.224,1.412-1.224,2.354c0,0.659,0.188,1.225,0.564,1.601c0.377,0.377,0.941,0.565,1.601,0.565c0.941,0,1.601-0.377,1.978-1.036
			c0.471-0.659,0.659-1.789,0.659-3.201c0-0.188,0-0.376,0-0.565C455.987,393.693,455.987,393.411,455.987,392.94z"/>
		<path fill="#494743" d="M478.961,397.459c-0.848,1.318-1.884,2.26-3.014,2.919c-1.224,0.659-2.542,1.036-3.954,1.036
			c-2.354,0-4.237-0.754-5.743-2.26c-1.507-1.507-2.166-3.484-2.166-5.932c0-2.542,0.754-4.614,2.354-6.214s3.577-2.354,6.12-2.354
			c1.788,0,3.295,0.471,4.425,1.318c1.13,0.847,1.789,1.977,1.789,3.201c0,0.753-0.282,1.318-0.753,1.789
			c-0.472,0.471-1.13,0.659-1.884,0.659c-0.659,0-1.224-0.188-1.694-0.565c-0.471-0.377-0.659-0.848-0.659-1.413
			c0-0.282,0.094-0.659,0.188-0.941c0.094-0.283,0.376-0.565,0.659-0.753l0.471-0.471c0.094-0.094,0.188-0.188,0.188-0.188
			s0.094-0.188,0.094-0.283c0-0.188-0.188-0.471-0.659-0.659c-0.471-0.188-0.941-0.282-1.601-0.282c-1.318,0-2.26,0.471-2.824,1.506
			c-0.565,1.036-0.941,2.636-0.941,4.896c0,2.354,0.282,4.048,0.941,5.178s1.694,1.695,3.013,1.695c0.753,0,1.412-0.188,2.165-0.659
			c0.754-0.471,1.507-1.13,2.166-1.978L478.961,397.459z"/>
		<path fill="#494743" d="M486.869,397.271c0,0.847,0.095,1.317,0.377,1.601c0.188,0.282,0.659,0.471,1.318,0.471v1.412h-8.098
			v-1.412c0.659-0.095,1.036-0.283,1.318-0.565c0.188-0.282,0.282-0.753,0.282-1.601v-15.629c0-0.753-0.094-1.224-0.376-1.412
			c-0.283-0.283-0.754-0.377-1.413-0.377v-1.412c1.036,0,2.072-0.094,3.107-0.283c1.13-0.094,2.26-0.282,3.483-0.471v14.688
			l4.426-3.766c0.188-0.094,0.282-0.282,0.377-0.471c0.094-0.188,0.188-0.376,0.188-0.471c0-0.282-0.188-0.565-0.471-0.659
			c-0.282-0.188-0.847-0.282-1.601-0.376v-1.413h8.003v1.413c-0.658,0.094-1.224,0.188-1.694,0.471
			c-0.471,0.188-1.036,0.565-1.507,0.941l-3.013,2.448l5.085,7.532c0.376,0.565,0.658,0.942,1.035,1.13
			c0.377,0.188,0.659,0.377,1.13,0.472v1.412h-8.474v-1.412c0.471-0.095,0.848-0.095,1.035-0.283
			c0.188-0.094,0.283-0.282,0.283-0.471c0-0.094,0-0.188-0.095-0.282c0-0.094-0.094-0.188-0.188-0.377l-3.39-4.99l-1.035,0.847
			v3.296H486.869z"/>
		<path fill="#494743" d="M516.904,398.777c-0.941,0.848-1.883,1.507-2.73,1.883c-0.941,0.472-1.883,0.659-2.73,0.659
			c-1.224,0-2.354-0.376-3.106-1.13c-0.754-0.753-1.225-1.694-1.225-2.918c0-1.695,0.754-2.919,2.354-3.861
			c1.601-0.941,3.954-1.506,7.25-1.789v-2.166c0-1.412-0.188-2.259-0.659-2.824c-0.472-0.471-1.225-0.753-2.26-0.753
			c-0.471,0-0.848,0.094-1.225,0.188c-0.376,0.188-0.564,0.282-0.564,0.471c0,0,0,0.094,0.094,0.188
			c0,0.094,0.095,0.094,0.095,0.094l0.471,0.659c0.094,0.094,0.188,0.283,0.188,0.471c0.095,0.188,0.095,0.377,0.095,0.659
			c0,0.565-0.188,1.036-0.659,1.506c-0.471,0.377-1.036,0.565-1.789,0.565s-1.318-0.188-1.789-0.659
			c-0.471-0.376-0.659-0.941-0.659-1.601c0-1.129,0.659-2.071,1.884-2.73c1.224-0.753,2.824-1.129,4.802-1.129
			c2.354,0,4.143,0.471,5.272,1.412s1.694,2.448,1.694,4.52v7.626c0,0.283,0.095,0.471,0.188,0.659
			c0.094,0.095,0.282,0.188,0.471,0.188s0.377-0.094,0.565-0.188c0.282-0.094,0.471-0.188,0.564-0.188s0.188,0.095,0.282,0.188
			c0.095,0.095,0.188,0.188,0.188,0.377c0,0.471-0.377,0.848-1.13,1.318s-1.506,0.659-2.448,0.659c-0.753,0-1.412-0.188-1.977-0.565
			C517.846,400.189,517.188,399.625,516.904,398.777z M516.622,392.94c-1.601,0.188-2.824,0.659-3.578,1.224
			c-0.753,0.565-1.224,1.412-1.224,2.354c0,0.659,0.188,1.225,0.564,1.601c0.377,0.377,0.942,0.565,1.602,0.565
			c0.941,0,1.601-0.377,1.977-1.036c0.471-0.659,0.659-1.789,0.659-3.201c0-0.188,0-0.376,0-0.565
			C516.622,393.693,516.622,393.411,516.622,392.94z"/>
		<path fill="#494743" d="M539.313,403.956c0,0.848,0.188,1.412,0.471,1.694c0.282,0.283,0.848,0.377,1.694,0.377h0.377v1.412
			h-9.039v-1.412c0.659-0.094,1.13-0.282,1.318-0.564c0.188-0.283,0.377-0.754,0.377-1.507v-15.629c0-0.753-0.095-1.224-0.377-1.413
			c-0.282-0.282-0.753-0.376-1.412-0.376v-1.413c0.941,0,1.977-0.094,2.919-0.188c1.035-0.094,2.071-0.188,3.201-0.283v2.919
			c0.564-0.941,1.224-1.695,1.977-2.26c0.848-0.471,1.789-0.753,2.825-0.753c1.977,0,3.672,0.753,4.896,2.259
			c1.225,1.507,1.884,3.578,1.884,6.12c0,2.448-0.659,4.519-1.884,6.026c-1.224,1.507-2.919,2.354-4.896,2.354
			c-1.036,0-1.978-0.188-2.73-0.659c-0.754-0.376-1.318-1.035-1.695-1.694v4.99H539.313z M542.232,399.437
			c0.941,0,1.694-0.564,2.165-1.601c0.471-1.13,0.753-2.73,0.753-4.802c0-2.166-0.282-3.766-0.753-4.802
			c-0.471-1.13-1.224-1.601-2.165-1.601c-0.942,0-1.695,0.565-2.166,1.695c-0.471,1.129-0.753,2.73-0.753,4.802
			s0.282,3.766,0.753,4.801C540.537,398.966,541.29,399.437,542.232,399.437z"/>
		<path fill="#494743" d="M562.004,398.777c-0.941,0.848-1.883,1.507-2.73,1.883c-0.941,0.472-1.883,0.659-2.73,0.659
			c-1.224,0-2.354-0.376-3.106-1.13c-0.754-0.753-1.225-1.694-1.225-2.918c0-1.695,0.754-2.919,2.354-3.861
			c1.601-0.941,3.954-1.506,7.25-1.789v-2.166c0-1.412-0.188-2.259-0.659-2.824c-0.471-0.471-1.225-0.753-2.26-0.753
			c-0.471,0-0.848,0.094-1.225,0.188c-0.376,0.188-0.564,0.282-0.564,0.471c0,0,0,0.094,0.094,0.188
			c0,0.094,0.095,0.094,0.095,0.094l0.471,0.659c0.094,0.094,0.188,0.283,0.188,0.471c0.094,0.188,0.094,0.377,0.094,0.659
			c0,0.565-0.188,1.036-0.659,1.506c-0.471,0.377-1.035,0.565-1.789,0.565c-0.753,0-1.318-0.188-1.789-0.659
			c-0.471-0.376-0.659-0.941-0.659-1.601c0-1.129,0.659-2.071,1.884-2.73c1.224-0.753,2.824-1.129,4.802-1.129
			c2.354,0,4.143,0.471,5.272,1.412s1.694,2.448,1.694,4.52v7.626c0,0.283,0.095,0.471,0.188,0.659
			c0.095,0.095,0.282,0.188,0.471,0.188s0.377-0.094,0.565-0.188c0.282-0.094,0.471-0.188,0.564-0.188
			c0.095,0,0.188,0.095,0.282,0.188c0.095,0.095,0.188,0.188,0.188,0.377c0,0.471-0.376,0.848-1.13,1.318
			c-0.753,0.471-1.506,0.659-2.447,0.659c-0.754,0-1.413-0.188-1.978-0.565C562.945,400.189,562.287,399.625,562.004,398.777z
			 M561.722,392.94c-1.601,0.188-2.824,0.659-3.578,1.224c-0.753,0.565-1.224,1.412-1.224,2.354c0,0.659,0.188,1.225,0.565,1.601
			c0.376,0.377,0.941,0.565,1.601,0.565c0.941,0,1.601-0.377,1.977-1.036c0.471-0.659,0.659-1.789,0.659-3.201
			c0-0.188,0-0.376,0-0.565C561.722,393.693,561.722,393.411,561.722,392.94z"/>
		<path fill="#494743" d="M573.68,400.284c-0.941-0.282-1.695-0.565-2.166-1.036s-0.753-1.035-0.753-1.789
			c0-0.564,0.188-1.13,0.659-1.694c0.471-0.565,1.035-1.036,1.883-1.506c-0.848-0.471-1.507-1.13-1.978-1.883
			c-0.471-0.753-0.659-1.601-0.659-2.542c0-1.601,0.659-2.825,1.978-3.86c1.318-0.941,3.013-1.506,5.085-1.506
			c0.753,0,1.412,0.094,2.071,0.188c0.659,0.188,1.317,0.377,1.977,0.659c0.565-0.941,1.13-1.601,1.695-1.977
			c0.564-0.377,1.317-0.659,1.977-0.659s1.13,0.188,1.507,0.471c0.377,0.283,0.564,0.753,0.564,1.224
			c0,0.376-0.094,0.753-0.376,1.036c-0.282,0.282-0.565,0.376-1.036,0.376c-0.376,0-0.848-0.094-1.318-0.282
			c-0.471-0.188-0.847-0.283-0.941-0.283c-0.282,0-0.471,0.094-0.659,0.188s-0.282,0.282-0.471,0.565
			c0.659,0.565,1.13,1.13,1.507,1.883c0.377,0.753,0.471,1.413,0.471,2.26c0,1.601-0.659,2.919-1.978,3.766
			c-1.317,0.848-3.106,1.413-5.461,1.413c-0.471,0-0.941,0-1.412-0.094c-0.377-0.094-0.848-0.094-1.13-0.283
			c-0.471,0.188-0.753,0.377-1.035,0.659c-0.188,0.188-0.377,0.471-0.377,0.753c0,0.377,0.188,0.659,0.659,0.848
			s1.506,0.282,3.013,0.282c1.695,0,2.919,0.095,3.86,0.188c0.941,0.095,1.601,0.188,1.978,0.282
			c1.224,0.377,2.165,0.942,2.73,1.602c0.564,0.658,0.847,1.601,0.847,2.636c0,1.695-0.847,3.013-2.447,3.954
			c-1.601,0.942-3.86,1.413-6.686,1.413c-2.354,0-4.331-0.377-5.743-1.225c-1.412-0.847-2.26-1.789-2.26-3.013
			c0-0.848,0.282-1.507,0.941-1.978C571.231,400.943,572.268,400.566,573.68,400.284z M572.55,403.485
			c0,0.753,0.471,1.412,1.412,1.883s2.26,0.659,3.86,0.659s2.919-0.188,3.86-0.659s1.412-1.13,1.412-1.883s-0.471-1.412-1.412-1.883
			s-2.26-0.659-3.86-0.659s-2.919,0.188-3.86,0.659S572.55,402.732,572.55,403.485z M577.822,393.881
			c0.848,0,1.506-0.376,1.978-1.036c0.471-0.753,0.753-1.695,0.753-2.918c0-1.224-0.282-2.166-0.753-2.919
			c-0.472-0.753-1.13-1.036-1.978-1.036s-1.507,0.376-1.978,1.036s-0.753,1.695-0.753,2.919c0,1.224,0.282,2.166,0.753,2.918
			C576.315,393.505,576.975,393.881,577.822,393.881z"/>
		<path fill="#494743" d="M603.244,392.658h-9.793c0,0.094,0,0.282,0,0.471c0,0.188,0,0.376,0,0.659
			c0,1.977,0.283,3.484,0.848,4.425c0.565,0.941,1.412,1.412,2.637,1.412c0.941,0,1.789-0.282,2.636-0.941
			c0.848-0.565,1.507-1.507,2.071-2.637l1.413,0.471c-0.659,1.601-1.601,2.73-2.825,3.484c-1.224,0.753-2.73,1.13-4.52,1.13
			c-1.035,0-1.977-0.188-2.918-0.565s-1.695-0.848-2.448-1.507c-0.848-0.753-1.507-1.694-1.883-2.824
			c-0.471-1.036-0.659-2.26-0.659-3.484c0-2.448,0.753-4.519,2.165-6.026c1.507-1.601,3.39-2.354,5.743-2.354
			c2.26,0,4.049,0.753,5.367,2.166c1.318,1.412,2.071,3.39,2.071,5.743v0.377H603.244z M593.451,391.339h4.708v-0.282
			c0-1.789-0.188-3.107-0.564-3.86c-0.377-0.753-0.941-1.13-1.789-1.13s-1.412,0.376-1.789,1.13
			C593.734,387.855,593.546,389.268,593.451,391.339z"/>
		<path fill="#494743" d="M605.691,398.684c0-0.754,0.283-1.412,0.848-1.883c0.564-0.565,1.224-0.754,1.883-0.754
			c0.754,0,1.412,0.282,1.978,0.754c0.564,0.471,0.753,1.129,0.753,1.883c0,0.753-0.282,1.318-0.753,1.883
			c-0.565,0.471-1.224,0.753-1.978,0.753c-0.753,0-1.412-0.282-1.883-0.753S605.691,399.343,605.691,398.684z"/>
	</g>
	<g>
		<path fill="#494743" d="M153.376,460.26v-5.272h-9.604v-1.507l9.039-13.84h2.26v13.84h3.013v1.507h-3.013v5.272H153.376z
			 M153.376,453.387v-12.24l-7.814,12.24H153.376z"/>
		<path fill="#494743" d="M160.909,449.903c0-3.39,0.659-6.026,1.883-7.909s3.013-2.73,5.272-2.73s4.049,0.941,5.273,2.73
			c1.224,1.789,1.883,4.425,1.883,7.909c0,3.39-0.659,6.025-1.883,7.909c-1.224,1.883-3.013,2.824-5.273,2.824
			s-4.048-0.941-5.272-2.824C161.474,455.929,160.909,453.293,160.909,449.903z M162.604,449.903c0,2.919,0.471,5.179,1.413,6.685
			c0.941,1.601,2.26,2.354,4.048,2.354c1.695,0,3.107-0.753,4.049-2.354s1.412-3.766,1.412-6.685s-0.471-5.179-1.412-6.779
			s-2.26-2.354-4.049-2.354c-1.695,0-3.107,0.753-3.954,2.354C163.074,444.725,162.604,446.984,162.604,449.903z"/>
		<path fill="#494743" d="M187.272,460.26v-5.272h-9.604v-1.507l9.039-13.84h2.26v13.84h3.013v1.507h-3.013v5.272H187.272z
			 M187.272,453.387v-12.24l-7.815,12.24H187.272z"/>
		<path fill="#494743" d="M216.931,458.565v1.694h-12.24v-20.619h11.863v1.694h-9.886v7.25h7.156v1.694h-7.156v8.475h10.263V458.565
			z"/>
		<path fill="#494743" d="M220.132,460.26v-14.971h1.789v2.637h0.188c0.471-0.941,1.13-1.694,1.789-2.165
			c0.659-0.472,1.506-0.659,2.448-0.659h0.094v1.694h-0.282c-1.036,0-1.883,0.282-2.637,0.941c-0.659,0.659-1.224,1.695-1.694,3.013
			v9.51H220.132z"/>
		<path fill="#494743" d="M228.982,460.26v-14.971h1.789v2.637h0.188c0.471-0.941,1.13-1.694,1.789-2.165
			c0.659-0.472,1.507-0.659,2.448-0.659h0.094v1.694h-0.283c-1.036,0-1.883,0.282-2.636,0.941c-0.659,0.659-1.224,1.695-1.695,3.013
			v9.51H228.982z"/>
		<path fill="#494743" d="M236.326,452.728c0-2.354,0.565-4.236,1.695-5.649c1.13-1.412,2.636-2.071,4.425-2.071
			c1.883,0,3.39,0.659,4.425,2.071c1.13,1.413,1.694,3.296,1.694,5.649c0,2.354-0.565,4.237-1.694,5.649
			c-1.13,1.412-2.637,2.071-4.425,2.071c-1.883,0-3.39-0.659-4.425-2.071C236.891,456.965,236.326,455.082,236.326,452.728z
			 M238.115,452.728c0,1.978,0.376,3.483,1.13,4.613c0.753,1.13,1.789,1.695,3.201,1.695c1.318,0,2.448-0.565,3.201-1.695
			c0.753-1.13,1.13-2.636,1.13-4.613s-0.377-3.483-1.13-4.613c-0.753-1.13-1.789-1.601-3.201-1.601
			c-1.413,0-2.448,0.564-3.201,1.601C238.492,449.244,238.115,450.75,238.115,452.728z"/>
		<path fill="#494743" d="M252.05,460.26v-14.971h1.789v2.637h0.188c0.471-0.941,1.13-1.694,1.789-2.165
			c0.659-0.472,1.506-0.659,2.448-0.659h0.094v1.694h-0.283c-1.036,0-1.883,0.282-2.636,0.941c-0.659,0.659-1.224,1.695-1.695,3.013
			v9.51H252.05z"/>
		<path fill="#494743" d="M259.111,460.26v-2.73h2.354v2.73H259.111z"/>
		<path fill="#494743" d="M281.237,439.546c2.448,0,4.332,0.471,5.555,1.412c1.224,0.942,1.883,2.354,1.883,4.331
			c0,1.884-0.565,3.39-1.789,4.332c-1.224,0.941-2.919,1.506-5.272,1.506h-3.766v9.133h-1.883v-20.619h5.272V439.546z
			 M277.754,449.338h4.237c1.506,0,2.636-0.376,3.39-1.035s1.224-1.695,1.224-3.014c0-1.412-0.377-2.354-1.224-3.106
			c-0.848-0.659-2.166-1.036-3.86-1.036h-3.766V449.338z"/>
		<path fill="#494743" d="M298.562,460.26c-0.094-0.471-0.188-0.753-0.188-1.13c0-0.282-0.094-0.564-0.094-0.847
			c-0.847,0.753-1.695,1.317-2.448,1.694c-0.848,0.377-1.695,0.565-2.542,0.565c-1.224,0-2.166-0.377-2.918-1.13
			c-0.753-0.754-1.13-1.695-1.13-2.919c0-1.601,0.659-2.919,2.071-3.86c1.318-0.941,3.766-1.695,7.062-2.26v-1.412
			c0-0.754-0.283-1.318-0.847-1.789c-0.565-0.471-1.413-0.659-2.354-0.659c-0.848,0-1.506,0.188-2.166,0.564
			c-0.565,0.377-1.13,1.036-1.601,1.789l-1.413-0.753c0.659-1.036,1.318-1.883,2.166-2.354c0.848-0.472,1.883-0.754,3.107-0.754
			c1.412,0,2.542,0.377,3.483,1.13c0.941,0.754,1.318,1.695,1.318,2.825v9.321c0,0.188,0,0.471,0.094,0.753
			c0,0.376,0.094,0.753,0.188,1.224H298.562z M298.185,456.399v-4.613c-2.918,0.659-4.896,1.318-5.837,1.978
			s-1.506,1.506-1.506,2.636c0,0.848,0.188,1.507,0.659,1.978c0.471,0.471,1.036,0.659,1.789,0.659c0.753,0,1.507-0.188,2.354-0.659
			C296.49,458,297.338,457.341,298.185,456.399z"/>
		<path fill="#494743" d="M305.435,454.328v-0.188c-0.565-0.564-1.036-1.13-1.318-1.788c-0.282-0.659-0.471-1.413-0.471-2.166
			c0-1.507,0.471-2.73,1.507-3.767c1.036-1.035,2.259-1.506,3.86-1.506c0.754,0,1.318,0.094,1.978,0.282
			c0.564,0.188,1.13,0.471,1.694,0.848c0.471-0.471,0.942-0.754,1.413-1.036c0.471-0.188,1.035-0.282,1.601-0.282v1.694h-0.377
			c-0.377,0-0.753,0-1.036,0.095c-0.282,0.094-0.564,0.188-0.847,0.377c0.282,0.471,0.564,0.941,0.659,1.506
			c0.188,0.471,0.188,1.036,0.188,1.601c0,1.601-0.471,2.919-1.412,3.955c-0.941,1.035-2.165,1.506-3.766,1.506
			c-0.377,0-0.754,0-1.13-0.094c-0.377-0.095-0.754-0.188-1.13-0.282c-0.565,0.094-0.942,0.282-1.224,0.564
			c-0.283,0.188-0.471,0.471-0.471,0.753c0,0.659,1.224,1.036,3.671,1.225c0.754,0,1.318,0.094,1.789,0.094
			c1.601,0.095,2.825,0.471,3.672,1.13c0.848,0.659,1.318,1.507,1.318,2.637c0,1.412-0.564,2.447-1.694,3.106
			c-1.13,0.754-2.73,1.036-4.802,1.036c-1.978,0-3.484-0.282-4.52-0.941c-1.13-0.659-1.601-1.601-1.601-2.73
			c0-0.659,0.188-1.13,0.565-1.601c0.376-0.471,0.941-0.941,1.694-1.318v-0.282c-0.471-0.188-0.847-0.377-1.13-0.754
			c-0.282-0.282-0.376-0.753-0.376-1.13c0-0.471,0.188-0.847,0.471-1.224C304.305,455.176,304.776,454.799,305.435,454.328z
			 M307.13,459.13c-0.848,0.377-1.506,0.754-1.883,1.225c-0.376,0.471-0.659,0.941-0.659,1.506c0,0.754,0.376,1.413,1.224,1.789
			c0.848,0.471,1.978,0.659,3.39,0.659c1.507,0,2.73-0.282,3.578-0.753c0.847-0.471,1.224-1.13,1.224-2.071
			s-0.471-1.507-1.507-1.884C311.555,459.318,309.767,459.13,307.13,459.13z M305.341,450.186c0,1.13,0.377,1.978,1.036,2.824
			c0.753,0.754,1.601,1.13,2.636,1.13c1.036,0,1.978-0.376,2.637-1.13c0.659-0.753,1.035-1.694,1.035-2.824
			s-0.376-2.071-1.035-2.824c-0.659-0.754-1.601-1.13-2.637-1.13c-1.035,0-1.883,0.376-2.636,1.13
			C305.718,448.208,305.341,449.056,305.341,450.186z"/>
		<path fill="#494743" d="M327.373,455.929l1.318,0.754c-0.659,1.317-1.413,2.354-2.354,2.918c-0.847,0.565-1.977,0.942-3.295,0.942
			c-1.883,0-3.296-0.659-4.426-2.072c-1.13-1.412-1.601-3.201-1.601-5.555c0-2.448,0.565-4.331,1.601-5.743
			c1.13-1.412,2.543-2.166,4.426-2.166c1.789,0,3.201,0.659,4.143,1.884c0.941,1.224,1.412,3.013,1.412,5.366v0.471h-9.886
			c0,2.071,0.376,3.578,1.13,4.708c0.753,1.13,1.883,1.601,3.295,1.601c0.941,0,1.789-0.282,2.448-0.753
			S326.808,456.965,327.373,455.929z M326.902,451.409c0-1.601-0.377-2.824-1.036-3.672c-0.659-0.847-1.601-1.318-2.824-1.318
			s-2.166,0.472-2.919,1.318c-0.753,0.848-1.224,2.071-1.318,3.672H326.902z"/>
		<path fill="#494743" d="M342.626,441.053v19.113h-1.883v-20.62h3.106l9.887,17.419v-17.419h1.883v20.62h-2.071L342.626,441.053z"
			/>
		<path fill="#494743" d="M359.385,452.728c0-2.354,0.565-4.236,1.695-5.649c1.13-1.412,2.636-2.071,4.425-2.071
			c1.884,0,3.39,0.659,4.426,2.071c1.13,1.413,1.694,3.296,1.694,5.649c0,2.354-0.564,4.237-1.694,5.649s-2.637,2.071-4.426,2.071
			c-1.883,0-3.39-0.659-4.425-2.071C359.95,456.965,359.385,455.082,359.385,452.728z M361.174,452.728
			c0,1.978,0.377,3.483,1.13,4.613c0.754,1.13,1.789,1.695,3.201,1.695c1.318,0,2.448-0.565,3.201-1.695
			c0.754-1.13,1.13-2.636,1.13-4.613s-0.376-3.483-1.13-4.613c-0.753-1.13-1.788-1.601-3.201-1.601
			c-1.412,0-2.447,0.564-3.201,1.601C361.551,449.244,361.174,450.75,361.174,452.728z"/>
		<path fill="#494743" d="M376.992,457.436c0,0.564,0.094,1.035,0.376,1.318c0.283,0.282,0.659,0.376,1.225,0.376
			c0.188,0,0.376,0,0.659-0.094c0.188,0,0.564-0.095,0.941-0.188v1.412c-0.377,0.095-0.753,0.188-1.036,0.188
			c-0.376,0.094-0.659,0.094-0.941,0.094c-1.035,0-1.789-0.282-2.26-0.753s-0.753-1.318-0.753-2.448v-10.639h-2.26v-1.413h2.26
			v-4.425h1.789v4.425h3.106v1.413h-3.106V457.436z"/>
		<path fill="#494743" d="M391.774,460.26v-20.619h11.581v1.694h-9.698v7.25h7.155v1.694h-7.155v10.075h-1.883V460.26z"/>
		<path fill="#494743" d="M404.108,452.728c0-2.354,0.564-4.236,1.694-5.649c1.13-1.412,2.637-2.071,4.426-2.071
			c1.883,0,3.39,0.659,4.425,2.071c1.13,1.413,1.695,3.296,1.695,5.649c0,2.354-0.565,4.237-1.695,5.649s-2.636,2.071-4.425,2.071
			c-1.883,0-3.39-0.659-4.426-2.071C404.673,456.965,404.108,455.082,404.108,452.728z M405.897,452.728
			c0,1.978,0.376,3.483,1.13,4.613c0.753,1.13,1.789,1.695,3.201,1.695c1.318,0,2.448-0.565,3.201-1.695s1.13-2.636,1.13-4.613
			s-0.377-3.483-1.13-4.613s-1.789-1.601-3.201-1.601s-2.448,0.564-3.201,1.601C406.273,449.244,405.897,450.75,405.897,452.728z"/>
		<path fill="#494743" d="M430.565,445.289v14.971h-1.789v-2.354c-0.847,0.848-1.694,1.506-2.636,1.978
			c-0.848,0.471-1.695,0.659-2.543,0.659c-1.317,0-2.354-0.377-3.013-1.225c-0.659-0.753-1.035-1.978-1.035-3.578v-10.356h1.789
			v9.792c0,1.506,0.188,2.542,0.658,3.013c0.377,0.565,1.13,0.848,2.166,0.848c0.753,0,1.507-0.282,2.26-0.753
			c0.753-0.472,1.601-1.13,2.354-2.072v-10.827h1.789V445.289z"/>
		<path fill="#494743" d="M435.273,460.26v-14.971h1.789v2.354c0.847-0.848,1.788-1.507,2.636-1.978s1.695-0.659,2.542-0.659
			c1.318,0,2.354,0.377,3.014,1.225c0.659,0.847,1.035,1.977,1.035,3.577v10.357h-1.883v-9.792c0-1.507-0.188-2.542-0.659-3.107
			c-0.377-0.564-1.13-0.848-2.165-0.848c-0.754,0-1.507,0.188-2.26,0.659c-0.754,0.471-1.601,1.13-2.354,2.071v10.922h-1.694V460.26
			z"/>
		<path fill="#494743" d="M459.471,458.283h-0.094c-0.659,0.753-1.413,1.317-2.166,1.694s-1.506,0.565-2.354,0.565
			c-1.601,0-2.919-0.659-3.86-2.072c-0.941-1.412-1.412-3.295-1.412-5.648c0-2.354,0.471-4.237,1.412-5.649s2.26-2.071,3.86-2.071
			c0.848,0,1.601,0.188,2.354,0.564s1.412,0.941,2.166,1.695h0.094v-7.627h1.789v18.454c0,0.659,0,1.13,0,1.412
			c0,0.283,0.094,0.565,0.094,0.754h-1.412L459.471,458.283z M459.471,456.211v-6.967c-0.753-0.941-1.412-1.695-2.165-2.166
			c-0.754-0.471-1.507-0.659-2.26-0.659c-1.225,0-2.166,0.565-2.825,1.601c-0.659,1.13-1.035,2.637-1.035,4.708
			c0,1.978,0.376,3.578,1.035,4.613c0.659,1.13,1.601,1.601,2.825,1.601c0.753,0,1.506-0.188,2.26-0.658
			C457.964,457.906,458.718,457.153,459.471,456.211z"/>
		<path fill="#494743" d="M466.627,460.26v-2.73h2.354v2.73H466.627z"/>
	</g>
</g>
</svg>
