<?xml version="1.0" encoding="utf-8"?>
<!-- Generator: Adobe Illustrator 16.0.0, SVG Export Plug-In . SVG Version: 6.00 Build 0)  -->
<!DOCTYPE svg PUBLIC "-//W3C//DTD SVG 1.1//EN" "http://www.w3.org/Graphics/SVG/1.1/DTD/svg11.dtd">
<svg version="1.1" id="Layer_1" xmlns="http://www.w3.org/2000/svg" xmlns:xlink="http://www.w3.org/1999/xlink" x="0px" y="0px"
	 width="168.25px" height="90px" viewBox="0 0 168.25 90" enable-background="new 0 0 168.25 90" xml:space="preserve">
<g id="Group_1">
	<path id="Path_1" fill="#010101" d="M27.524,33.617l2.557,7.082c-4.656,1.995-9.669,3.021-14.733,3.017
		c-5.066,0.006-10.08-1.021-14.736-3.019l2.557-7.08c3.833,1.713,7.986,2.596,12.185,2.589
		C19.548,36.211,23.696,35.329,27.524,33.617 M15.348,51.23c-4.197,0.006-8.347-0.877-12.179-2.589l-2.557,7.079
		c4.656,1.998,9.669,3.024,14.736,3.019c5.064,0.005,10.077-1.021,14.733-3.015l-2.557-7.083
		C23.694,50.354,19.544,51.236,15.348,51.23 M142.346,45.71c0.115,7.085-5.533,12.923-12.62,13.039c-0.243,0.003-0.488,0-0.73-0.01
		h-8.361V33.617h8.9C138.004,33.617,142.346,39.532,142.346,45.71 M136.549,45.71c0-3.589-2.128-6.768-6.899-6.768h-3.283v14.471
		h2.571C134.083,53.414,136.549,49.598,136.549,45.71 M92.109,58.739l-5.56-10.529c2.507-1.271,4.048-3.882,3.949-6.692
		c0-3.935-2.756-7.901-9.417-7.901H71.045v25.123h5.73v-9.355h4.115l4.806,9.355H92.109z M76.776,44.49v-5.55h3.098
		c2.944,0,4.585,0.559,4.585,2.721c0,2.417-1.892,2.82-4.585,2.82L76.776,44.49z M59.583,33.617h-7.064l-8.951,25.123h5.885
		l1.686-4.977h9.826l1.686,4.977h5.885L59.583,33.617z M52.872,48.642l3.18-9.386l3.177,9.386H52.872z M108.99,33.617h-7.063
		l-8.952,25.123h5.885l1.687-4.977h9.825l1.682,4.977h5.885L108.99,33.617z M102.28,48.642l3.177-9.386l3.179,9.386H102.28z
		 M158.688,33.617h-7.064l-8.951,25.123h5.885l1.687-4.977h9.823l1.688,4.977h5.885L158.688,33.617z M151.977,48.642l3.178-9.386
		l3.18,9.386H151.977z"/>
</g>
</svg>
