<?xml version="1.0" encoding="utf-8"?>
<!-- Generator: Adobe Illustrator 16.0.0, SVG Export Plug-In . SVG Version: 6.00 Build 0)  -->
<!DOCTYPE svg PUBLIC "-//W3C//DTD SVG 1.1//EN" "http://www.w3.org/Graphics/SVG/1.1/DTD/svg11.dtd">
<svg version="1.1" id="Layer_1" xmlns="http://www.w3.org/2000/svg" xmlns:xlink="http://www.w3.org/1999/xlink" x="0px" y="0px"
	 width="155px" height="90px" viewBox="0 -26 155 90" enable-background="new 0 -26 155 90" xml:space="preserve">
<g>
	<defs>
		<rect id="SVGID_1_" width="155" height="38"/>
	</defs>
	<clipPath id="SVGID_2_">
		<use xlink:href="#SVGID_1_"  overflow="visible"/>
	</clipPath>
	<g clip-path="url(#SVGID_2_)">
		<path fill="#1C1E27" d="M118.252,1.167h7.971V9.12h-7.971V1.167z M132.094,1.167h7.971V9.12h-7.971V1.167z M118.252,14.981h7.971
			v7.953h-7.971V14.981z M132.094,14.981h7.971v7.953h-7.971V14.981z M118.252,28.628h7.971v7.953h-7.971V28.628z M132.094,28.628
			h7.971v7.953h-7.971V28.628z M146.021,14.981h7.97v7.953h-7.97V14.981z M146.021,28.628h7.97v7.953h-7.97V28.628z"/>
		<path fill="#1C1E27" d="M154.075,5.186c0,2.344-1.931,4.186-4.195,4.186c-2.349,0-4.194-1.925-4.194-4.186
			c0-2.344,1.93-4.186,4.194-4.186C152.23,1,154.075,2.926,154.075,5.186z"/>
		<path fill="#1C1E27" d="M89.5,8.657l0.667-2.4h4c0,0,5.416,0,5.416,5.914c0,5.572-5.25,5.4-5.25,5.4h-8.75l0.667-2.4h7.5
			c0,0,2.833,0,2.833-3.085C96.583,9,94,8.657,94,8.657H89.5z M78.455,8.914l3.039-1.285v5.914c0,0-0.254,3.514-4.812,3.857H21.98
			c0,0-4.643,0.086-4.643-4.543V1.543l3.123-1.2v12c0,0-0.169,2.4,2.28,2.657h53.772c0,0,1.773-0.086,2.026-1.543V8.914H78.455z"/>
		<path fill="#1C1E27" d="M72.48,20.48h3.04v3.039h-3.04V20.48z"/>
		<path fill="#1C1E27" d="M75.1,20.48H78v3.039h-2.9V20.48z"/>
		<path fill="#1C1E27" d="M14.559,7.168v10.695c0,0,0,4.463-5.735,4.463h-8.56l1.589-2.694H9c0,0,2.118-0.169,2.118-1.769V8.684
			L14.559,7.168L14.559,7.168z"/>
		<path fill="#1C1E27" d="M19.35,25.432V37.07h13.3v-2.758h-9.8v-1.983h5.687v-2.673H22.85v-1.811h9.8v-2.414H19.35z"/>
		<path fill="#1C1E27" d="M35.583,25.43h3.834l3.5,4.113l3.5-4.113H50l-5.75,6.256v5.229h-2.917v-5.057L35.583,25.43z"/>
		<path fill="#1C1E27" d="M8.667,25.43h-8.5v11.484h8.166c0,0,6.25-0.257,6.25-5.484C14.583,26.2,10,25.43,8.667,25.43z M8,34.258
			c-1.5,0-4.583,0.086-4.583,0.086v-6.515H8.5c0,0,2.917,0.171,2.917,3.085C11.417,33.914,9.5,34.258,8,34.258z M56.055,25.43
			l-6.29,11.484h3.06L54.1,34.43h6.375l1.36,2.485h3.4l-6.46-11.485H56.055z M55.545,31.943l1.87-3.344l1.785,3.344H55.545z
			 M72.055,25.43l-6.29,11.484h3.06L70.1,34.43h6.375l1.36,2.485h3.399L74.775,25.43H72.055z M71.46,31.943l1.87-3.344l1.785,3.344
			H71.46z M94.583,32.887c0,0,4.167,0.084,4.167-3.857c0,0-0.083-3.6-3.417-3.6h-10.25v11.484h3.167v-4.113h2.167l4.416,4.113H99.5
			L94.583,32.887z M88.25,30.4v-2.571h6.167c0,0,1.166,0.171,1.166,1.2c0,1.285-1.166,1.371-1.166,1.371H88.25z"/>
	</g>
</g>
</svg>
