<?xml version="1.0" encoding="utf-8"?>
<!-- Generator: Adobe Illustrator 16.0.0, SVG Export Plug-In . SVG Version: 6.00 Build 0)  -->
<!DOCTYPE svg PUBLIC "-//W3C//DTD SVG 1.1//EN" "http://www.w3.org/Graphics/SVG/1.1/DTD/svg11.dtd">
<svg version="1.1" id="Layer_1" xmlns="http://www.w3.org/2000/svg" xmlns:xlink="http://www.w3.org/1999/xlink" x="0px" y="0px"
	 width="333.25px" height="90px" viewBox="-182.25 0 333.25 90" enable-background="new -182.25 0 333.25 90" xml:space="preserve">
<rect x="-180.375" y="0.554" fill="none" width="330.5" height="88.892"/>
<g>
	<path fill="#8C2E47" d="M-135.537,89.081V74.399h3.089c2.125,0,3.669,0.143,4.664,0.449c0.995,0.307,1.841,0.788,2.569,1.447
		c0.713,0.66,1.277,1.478,1.664,2.426c0.387,0.949,0.579,2.074,0.579,3.348c0,1.269-0.297,2.466-0.906,3.593
		c-0.61,1.125-1.426,1.973-2.452,2.543c-1.04,0.568-2.524,0.863-4.455,0.863h-4.753V89.081z M-134.097,87.692h1.723
		c1.797,0,3.104-0.089,3.921-0.264c0.817-0.173,1.515-0.524,2.124-1.051c0.609-0.524,1.07-1.17,1.397-1.913
		c0.311-0.747,0.476-1.606,0.476-2.573c0-0.962-0.178-1.855-0.55-2.672c-0.372-0.819-0.893-1.49-1.575-2.033
		c-0.682-0.525-1.485-0.891-2.405-1.065c-0.921-0.19-2.273-0.279-4.071-0.279h-1.054v11.862L-134.097,87.692z"/>
	<path fill="#8C2E47" d="M-112.165,74.399h8.569v1.46h-7.068v4.571h7.009v1.436h-7.009v5.769h7.009v1.446h-8.509V74.399z"/>
	<path fill="#8C2E47" d="M-94.27,74.399h1.62l4.945,11.719l5.034-11.719h1.618l-6.505,15.047h-0.311L-94.27,74.399z"/>
	<path fill="#8C2E47" d="M-70.639,74.399h8.555v1.46h-7.054v4.571h6.995v1.436h-6.995v5.769h6.995v1.446h-8.496V74.399z"/>
	<path fill="#8C2E47" d="M-51.629,74.399h1.514v13.266h5.748v1.416h-7.262V74.399z"/>
	<path fill="#8C2E47" d="M-34.77,81.806c0-1.42,0.342-2.733,1.039-3.929c0.699-1.198,1.65-2.133,2.852-2.822
		c1.203-0.688,2.525-1.02,3.936-1.02s2.748,0.332,3.966,1.006c1.232,0.671,2.183,1.605,2.88,2.802
		c0.698,1.198,1.055,2.485,1.055,3.89c0,1.401-0.342,2.688-1.039,3.885c-0.699,1.198-1.649,2.133-2.852,2.806
		c-1.219,0.689-2.525,1.023-3.951,1.023c-1.426,0-2.732-0.334-3.965-1.007c-1.218-0.671-2.184-1.606-2.882-2.79
		c-0.697-1.185-1.053-2.472-1.053-3.844 M-20.616,81.744c0-1.75-0.624-3.239-1.857-4.457c-1.231-1.21-2.732-1.823-4.485-1.823
		c-1.752,0-3.283,0.613-4.486,1.823c-1.202,1.229-1.796,2.707-1.796,4.457c0,1.754,0.609,3.233,1.857,4.443
		c1.231,1.216,2.718,1.824,4.47,1.824c1.753,0,3.238-0.595,4.457-1.78c1.231-1.183,1.841-2.688,1.841-4.499"/>
	<path fill="#8C2E47" d="M-8.175,74.399h2.969c1.752,0,2.912,0.071,3.447,0.205c0.533,0.128,1.038,0.377,1.484,0.71
		c0.446,0.341,0.8,0.763,1.056,1.275c0.252,0.511,0.37,1.083,0.37,1.709c0,1.006-0.281,1.826-0.831,2.472
		c-0.549,0.641-1.249,1.051-2.093,1.21c-0.832,0.175-2.123,0.248-3.861,0.248h-1.055v6.821h-1.502V74.367L-8.175,74.399z
		 M-6.676,75.829v5.012h2.511c1.515,0.032,2.509-0.218,3.013-0.73c0.508-0.512,0.743-1.112,0.743-1.812
		c0-1.652-1.217-2.47-3.637-2.47h-2.644H-6.676z"/>
	<path fill="#8C2E47" d="M11.354,89.081l2.123-14.682H13.7l6.075,12.038l6.014-12.038h0.24l2.136,14.682h-1.471l-1.456-10.507
		l-5.286,10.507h-0.371L14.25,78.485l-1.454,10.596H11.354z"/>
	<path fill="#8C2E47" d="M39.045,74.399H47.6v1.46h-7.071v4.571h7.01v1.436h-7.01v5.769h7.01v1.446h-8.494V74.399z"/>
	<path fill="#8C2E47" d="M58.062,89.081V74.399h0.342l9.908,11.25v-11.25h1.483v14.682h-0.342l-9.847-11.104v11.104H58.062z"/>
	<path fill="#8C2E47" d="M79.851,75.829v-1.43h8.181v1.43h-3.324v13.252h-1.518V75.829H79.851z"/>
	<path fill="#8C2E47" d="M96.53,86.333l1.265-0.728c0.889,1.605,1.914,2.406,3.088,2.406c0.757,0,1.413-0.229,1.961-0.712
		c0.534-0.484,0.817-1.068,0.817-1.784c0-0.556-0.224-1.128-0.686-1.696c-0.459-0.569-1.22-1.255-2.271-2.03
		c-1.055-0.788-1.767-1.372-2.138-1.753c-0.371-0.393-0.64-0.804-0.817-1.244c-0.179-0.437-0.251-0.889-0.251-1.338
		c0-0.954,0.34-1.773,1.021-2.427c0.686-0.66,1.548-0.992,2.587-0.992c0.816,0,1.529,0.199,2.137,0.597
		c0.609,0.409,1.204,0.991,1.769,1.779l-1.204,0.921c-0.386-0.512-0.787-0.947-1.202-1.286c-0.419-0.334-0.921-0.508-1.531-0.508
		c-0.605,0-1.097,0.174-1.47,0.527c-0.386,0.346-0.563,0.801-0.563,1.343c0,0.54,0.164,1.019,0.508,1.417
		c0.339,0.407,1.11,1.036,2.301,1.914c1.203,0.876,2.063,1.676,2.611,2.411c0.551,0.731,0.818,1.519,0.818,2.322
		c0,1.065-0.415,1.988-1.261,2.776c-0.832,0.788-1.813,1.17-2.931,1.17c-1.958,0-3.471-1.042-4.571-3.114"/>
	<path fill="#8C2E47" d="M-39.658,6.238v42.387c0,3.098,0.43,6.194,1.276,8.839h-13.039c0.846-2.645,1.278-5.729,1.278-8.839V6.238
		h-8.348c-5.228,0.118-10.41,0.76-15.504,1.898l1.188-7.394h55.812l1.187,7.394c-5.093-1.139-10.29-1.768-15.503-1.898H-39.658z"/>
	<path fill="#8C2E47" d="M150.09,50.083l-1.202,4.97l-0.579,2.411H92.93l10.706-13.515l29.762-37.711h-21.37
		c-5.883,0.059-11.747,0.702-17.497,1.943l1.813-7.438h53.764l-33.536,43.395l-4.189,5.408l-2.123,2.701h0.031l20.734-0.19
		c6.801-0.058,12.37-0.713,19.051-1.974"/>
	<path fill="#8C2E47" d="M8.669,55.985c0.179,0.602,0.371,1.198,0.548,1.461H-3.924c0.178-0.275,0.371-0.859,0.549-1.461
		c0.194-0.568,0.34-1.151,0.447-1.734l0.294-3.655V7.947l-0.294-3.653C-3.035,3.71-3.181,3.126-3.375,2.555
		C-3.553,1.957-3.746,1.357-3.924,0.73H9.218c-0.177,0.627-0.37,1.226-0.548,1.825C8.477,3.126,8.328,3.71,8.224,4.294L7.927,7.947
		v42.648l0.297,3.655C8.328,54.834,8.477,55.417,8.669,55.985z"/>
	<path fill="#8C2E47" d="M-76.204,44.564l-6.713-15.3l-2.584-6.077l-9.98-22.588h-0.714h-9.757l2.897,7.071
		c1.053,2.38,1.113,5.172,0.178,7.611l-9.86,28.053l-17.541-42.707h-4.96h-0.34h-6.001l3.387,7.466
		c1.069,2.353,1.159,5.142,0.236,7.583c-0.073,0.205-0.147,0.395-0.208,0.555c-2.465,6.575-5.361,13.866-8.688,21.888l-3.178,7.465
		c-0.238,0.67-0.505,1.328-0.816,1.973c-0.535,1.183-0.937,2.075-1.218,2.672c-0.667,1.563-1.426,3.057-2.288,4.502
		c-0.698,1.153-1.247,2.062-1.618,2.759h11.583l-1.114-1.836c-0.135-0.79-0.15-1.609-0.044-2.414
		c0.504-2.657,1.291-5.213,2.346-7.638c3-8.069,6-16.119,9.06-24.139c0.533-1.418,1.084-2.82,1.618-4.224l15.058,40.27h5.853
		l13.367-39.364c0.711,1.637,1.425,3.288,2.153,4.925c1.916,4.368,3.83,8.751,5.747,13.12c1.396,3.156,2.777,6.34,4.188,9.497
		l0.223,0.543l0.164,0.567c0.133,0.249,0.251,0.513,0.37,0.789c0.43,0.922,0.847,1.928,1.263,2.997
		c0.46,1.094,0.876,2.202,1.247,3.343c0.268,0.862-0.089,1.9-0.415,3.564h14.524c-1.396-1.94-2.673-3.899-3.846-5.96
		c-1.144-2-2.376-4.323-3.61-6.939"/>
	<path fill="#8C2E47" d="M-168.3,4.25c0.103-0.584,0.252-1.167,0.445-1.737c0.177-0.599,0.356-1.183,0.549-1.813h-13.069
		c0.179,0.63,0.356,1.214,0.55,1.813c0.192,0.57,0.342,1.139,0.445,1.737l0.297,3.625v42.399l-0.297,3.624
		c-0.104,0.585-0.253,1.166-0.445,1.737c-0.178,0.602-0.371,1.184-0.55,1.812h13.054c-0.178-0.628-0.357-1.21-0.55-1.812
		c-0.193-0.571-0.341-1.152-0.445-1.737l-0.297-3.624V7.875l0.297-3.625H-168.3z"/>
	<path fill="#8C2E47" d="M65.73,57.407l16.853-0.033l-0.668-0.799c-1.411-1.728-2.734-3.541-3.903-5.396
		c-3.093-4.894-5.496-10.239-7.816-15.413c-0.475-1.083-0.963-2.149-1.454-3.215c-1.278-2.806-2.554-5.626-3.833-8.431
		c-1.278-2.805-2.538-5.626-3.829-8.43c-0.686-1.476-1.354-2.952-2.021-4.428c-0.625-1.388-1.261-2.777-1.888-4.165l-2.749-6.53
		H42.321l0.817,0.846c0.758,0.79,0.815,0.995,0.921,1.315V2.79c0.116,0.423,0.161,0.848,0.161,1.271
		c-0.026,0.76-0.161,1.52-0.385,2.25l-0.043,0.146C43.73,6.661,43.657,6.879,43.6,7.056c-6.343,14.348-18.419,41.67-18.776,42.357
		c-0.785,1.562-1.677,3.085-2.656,4.484c-0.726,1.053-1.323,1.872-1.75,2.474l-0.729,1.019h13.649l-1.844-2.467
		c-0.133-0.717-0.146-1.446-0.03-2.149c0.063-0.275,0.862-2.41,5.481-13.486c1.814-0.499,3.655-0.787,5.454-0.865h12.638
		c1.811,0.078,3.653,0.366,5.478,0.865c0.699,1.431,4.961,10.142,6.861,14.918c0.09,0.857-0.208,1.724-0.814,2.352l-0.818,0.85
		H65.73z M48.366,12.156l9.402,20.616H39.694C43.243,24.34,47.133,15.091,48.366,12.156z"/>
</g>
</svg>
