<?xml version="1.0" encoding="utf-8"?>
<!-- Generator: Adobe Illustrator 16.0.0, SVG Export Plug-In . SVG Version: 6.00 Build 0)  -->
<!DOCTYPE svg PUBLIC "-//W3C//DTD SVG 1.0//EN" "http://www.w3.org/TR/2001/REC-SVG-20010904/DTD/svg10.dtd">
<svg version="1.0" id="Layer_1" xmlns="http://www.w3.org/2000/svg" xmlns:xlink="http://www.w3.org/1999/xlink" x="0px" y="0px"
	 width="488.564px" height="90px" viewBox="0 0 488.564 90" enable-background="new 0 0 488.564 90" xml:space="preserve">
<path fill="#010101" d="M242.668,70.439c0,0.317,0.159,0.359,0.36,0.4c0.641,0.119,1.962,0.159,2.521,0.159
	c0.917,0,1.838-0.159,2.399-0.642c0.842-0.678,1.322-2.08,1.322-3.799c0-3.242-1.603-5.962-4.761-5.962
	c-0.642,0-1.121,0.079-1.441,0.199c-0.242,0.08-0.4,0.16-0.4,0.723V70.439z M242.668,76.798c0,1.923-0.04,4.721,0.081,6.761
	c0.078,1.282,0.239,1.801,1.042,2.203c0.877,0.519,1.839,0.64,2.639,0.64c2.081,0,4.559-1.443,4.559-5.443
	c0-2.079-0.519-4.439-2.36-6.161c-1.078-1.038-2.48-1.44-3.719-1.519c-0.64-0.04-1.601-0.04-2,0c-0.16,0-0.241,0.078-0.241,0.282
	V76.798z M235.747,69.996c0-5.88-0.04-7.001-0.08-8.28c-0.041-1.641-0.599-2.279-1.761-2.4c-0.479-0.038-1.04-0.075-1.48-0.122
	c-0.601-0.038-0.721-0.196-0.721-0.396c0-0.322,0.319-0.4,0.802-0.4c2.44,0,4.44,0.122,6.4,0.122c2.642,0,4.999-0.122,6.562-0.122
	c8.442,0,10.04,3.92,10.04,6.162c0,3.239-2.239,5.319-4.881,6.68c4.202,1.28,7.764,3.844,7.764,8.682
	c0,4.438-4.162,8.838-12.124,8.838c-1.481,0-6.2-0.235-7.401-0.235c-1.761,0-3.64,0.122-5.802,0.122
	c-0.558,0-0.837-0.122-0.837-0.406c0-0.278,0.198-0.399,0.798-0.399c0.523-0.038,0.88-0.077,1.2-0.16
	c0.722-0.116,1.162-0.717,1.28-2.197c0.161-2.201,0.241-4.523,0.241-9.563V69.996z"/>
<path fill="#010101" d="M263.433,69.996c0-6.197,0-7.357-0.121-8.641c-0.078-1.121-0.519-1.84-1.398-2.002
	c-0.282-0.076-0.679-0.113-1.201-0.16c-0.48,0-0.76-0.157-0.76-0.438c0-0.237,0.199-0.359,0.877-0.359
	c1.601,0,5.525,0.122,5.842,0.122c0.36,0,5.08-0.122,6.522-0.122c0.679,0,0.88,0.159,0.88,0.4c0,0.321-0.361,0.396-0.76,0.396
	c-0.4,0.047-0.643,0.047-1.16,0.122c-1.041,0.2-1.442,0.721-1.52,2.158c-0.121,1.284-0.121,2.325-0.121,8.522v7.043
	c0,3.16,0.038,6.883,0.198,8.561c0.081,1.041,0.323,1.76,1.52,2.042c0.521,0.12,1.243,0.159,1.762,0.197
	c0.681,0,0.84,0.163,0.84,0.399c0,0.205-0.201,0.406-0.84,0.406c-2.72,0-7.003-0.122-7.362-0.122c-0.199,0-4.4,0.122-5.76,0.122
	c-0.639,0-0.959-0.084-0.959-0.406c0-0.278,0.32-0.399,0.8-0.399c0.401-0.038,0.798-0.077,1.238-0.16
	c0.842-0.116,1.122-0.997,1.24-2.157c0.161-1.681,0.242-4.563,0.242-8.482V69.996z"/>
<path fill="#010101" d="M280.676,59.715c0.04-1.201,0.2-1.92,0.68-1.92c0.322,0,0.521,0.121,1.563,0.961
	c1.679,1.401,3.76,3.397,12.922,11.802c4.08,3.76,6.841,6.443,7.922,7.401l-0.239-15c-0.082-2.242-0.281-3.281-1.883-3.563
	c-0.558-0.119-1.2-0.16-1.759-0.199c-0.521,0-0.721-0.203-0.721-0.4c0-0.283,0.359-0.4,0.8-0.4c1.601,0,4.201,0.117,5.802,0.117
	c0.88,0,2.881-0.117,4.562-0.117c0.599,0,0.88,0.117,0.88,0.359c0,0.2-0.202,0.441-0.682,0.441c-0.52,0.039-0.718,0.039-1.001,0.118
	c-1.317,0.16-1.718,0.842-1.84,3.319c-0.32,8.042-0.32,16.045-0.481,24.085c0,2.042-0.279,2.483-0.799,2.483
	c-0.639,0-1.879-0.965-4.48-3.243c-2.721-2.401-6.239-5.561-8.64-7.762c-2.241-2.039-6.243-5.801-9.162-8.642l0.4,13.644
	c0.078,2.881,0.239,3.959,1.361,4.362c0.599,0.197,1.317,0.197,2.121,0.278c0.599,0.039,0.797,0.161,0.797,0.397
	c0,0.325-0.318,0.403-0.958,0.403c-1.402,0-2.682-0.078-5.16-0.121c-0.923,0-3.885,0.121-5.445,0.121
	c-0.558,0-0.88-0.078-0.88-0.403c0-0.236,0.202-0.397,0.763-0.397c0.359-0.04,0.878-0.04,1.318-0.119
	c1.562-0.242,1.761-1.241,1.881-4.962C280.516,74.519,280.435,64.876,280.676,59.715"/>
<path fill="#010101" d="M342.515,84.801c0,2.36-0.079,2.6-0.801,2.878c-2.121,0.844-6.202,1.521-9.803,1.521
	c-11.244,0-19.042-5.039-19.042-15.684c0-6.68,3.48-10.92,7.2-13.042c4.122-2.44,8.441-2.638,11.483-2.638
	c2.438,0,4.76,0.28,6.479,0.56c1.36,0.159,2.68,0.441,3.842,0.48c0.358,0,0.44,0.159,0.399,0.518c-0.08,0.4-0.438,2.04-0.438,7.362
	c0,0.639-0.162,0.84-0.438,0.84c-0.284,0-0.442-0.317-0.48-0.642c-0.084-0.595-0.084-1.036-0.484-1.999
	c-0.759-2.718-4.318-4.644-9.881-4.644c-2.959,0-5.36,0.843-7.162,2.886c-1.558,1.758-2.521,4.72-2.521,8.64
	c0,7.16,3.44,14.803,11.846,14.803c0.559,0,1.638-0.038,2.237-0.479c0.322-0.242,0.482-0.603,0.482-1.081v-2.439
	c0-1.641,0-3.2-0.04-4.682c0-2.28-0.518-3.12-1.882-3.323c-0.521-0.076-1.04-0.117-1.72-0.197c-0.32,0-0.64-0.16-0.64-0.397
	c0-0.241,0.201-0.403,0.841-0.403c2.6,0,5.681,0.121,6.759,0.121c1.442,0,4.042-0.121,6.202-0.121c0.602,0,0.918,0.079,0.918,0.403
	c0,0.276-0.235,0.356-0.638,0.397c-0.159,0-0.678,0.08-1.082,0.121c-0.956,0.196-1.396,0.64-1.519,2.041
	c-0.079,1.279-0.118,3.36-0.118,5.317V84.801z"/>
<path fill="#010101" d="M370.399,70.719c0.117,0,0.24-0.082,0.24-0.282V69.6c0-6.204,0-6.883-0.082-8.165
	c-0.075-1.156-0.399-1.84-1.719-2.119c-0.322-0.038-0.922-0.079-1.399-0.118c-0.563,0-0.764-0.241-0.764-0.4
	c0-0.241,0.2-0.4,0.802-0.4c2.32,0,5.92,0.122,6.324,0.122c0.355,0,4.956-0.122,6.68-0.122c0.599,0,0.798,0.159,0.798,0.4
	c0,0.197-0.199,0.4-0.603,0.4c-0.678,0.08-0.919,0.08-1.396,0.159c-1.042,0.159-1.359,0.84-1.482,2.12
	c-0.081,1.279-0.081,2.322-0.081,8.52v7.043c0,3.8,0,6.762,0.204,8.442c0.117,1.321,0.438,1.998,1.636,2.203
	c0.563,0.075,1.362,0.116,1.764,0.156c0.481,0,0.679,0.2,0.679,0.397c0,0.282-0.319,0.403-0.797,0.403
	c-2.764,0-6.803-0.121-7.521-0.121c-0.644,0-3.762,0.121-5.72,0.121c-0.727,0-0.886-0.198-0.886-0.439
	c0-0.2,0.241-0.361,0.761-0.361c0.4-0.04,0.883-0.081,1.24-0.156c0.962-0.205,1.201-0.965,1.322-2.243
	c0.158-1.682,0.24-4.202,0.24-8.001v-3.243c0-0.16-0.123-0.241-0.24-0.241h-12.482c-0.118,0-0.241,0.044-0.241,0.241v4.164
	c0,3.8,0.042,5.439,0.2,7.157c0.121,1.163,0.479,1.922,1.679,2.119c0.839,0.122,1.243,0.163,1.683,0.203
	c0.438,0,0.76,0.119,0.76,0.397c0,0.205-0.197,0.403-0.798,0.403c-2.28,0-7.005-0.121-7.405-0.121c-0.358,0-4.558,0.121-5.84,0.121
	c-0.439,0-0.881-0.081-0.881-0.359c0-0.28,0.16-0.441,0.684-0.441c0.478-0.04,0.715-0.081,1.237-0.156
	c0.961-0.122,1.321-1.166,1.402-2.363c0.117-1.678,0.2-4.482,0.2-8.282v-6.958c0-6.203-0.042-7.124-0.121-8.404
	c-0.079-1.398-0.521-2.161-1.919-2.361c-0.48-0.079-0.681-0.079-1.124-0.118c-0.719-0.042-0.802-0.241-0.802-0.438
	c0-0.284,0.442-0.362,0.884-0.362c2.318,0,5.401,0.122,6.321,0.122c1.52,0,4.88-0.122,6.602-0.122c0.72,0,0.841,0.159,0.841,0.4
	c0,0.197-0.241,0.4-0.723,0.4c-0.482,0.039-1.001,0.08-1.4,0.159c-1.078,0.238-1.279,1.159-1.356,2.32
	c-0.123,1.28-0.123,2.919-0.123,7.923v0.837c0,0.2,0.123,0.282,0.241,0.282H370.399z"/>
<path fill="#010101" d="M402.772,77.16c0.24,0,0.24-0.121,0.196-0.202l-3.519-8.56c-0.116-0.281-0.2-0.2-0.279,0l-3.4,8.56
	c-0.043,0.119,0.04,0.202,0.16,0.202H402.772z M394.771,80.357c-0.197,0-0.279,0.084-0.362,0.284l-1.238,3.28
	c-0.402,1.041-0.64,2.076-0.64,2.559c0,0.76,0.359,1.119,1.201,1.204c0.438,0.075,1.077,0.116,1.398,0.156
	c0.598,0,0.721,0.198,0.721,0.397c0,0.322-0.321,0.403-0.839,0.403c-1.799,0-3.167-0.121-5.283-0.121
	c-0.438,0-3.077,0.121-5.081,0.121c-0.56,0-0.799-0.16-0.799-0.403c0-0.319,0.281-0.397,0.758-0.397
	c0.484-0.04,0.883-0.081,1.284-0.156c1.396-0.284,2.197-1.523,3.039-3.445l10.68-24.164c0.76-1.719,1.202-2.32,1.644-2.32
	c0.4,0,0.76,0.563,1.44,1.999c1.038,2.241,7.759,17.565,10.481,23.647c1.357,3.117,2.238,4.078,3.641,4.283
	c0.438,0.116,0.92,0.116,1.277,0.156c0.519,0,0.761,0.161,0.761,0.397c0,0.282-0.278,0.403-1.036,0.403
	c-3.924,0-8.484-0.081-11.045-0.121c-0.643,0-0.878-0.123-0.878-0.361c0-0.24,0.198-0.399,0.56-0.475
	c0.441-0.085,0.601-0.363,0.481-0.723L404.25,80.6c-0.037-0.158-0.199-0.242-0.317-0.242H394.771z"/>
<path fill="#010101" d="M431.136,77.039c0,3.122,0,6.84,0.199,8.523c0.082,1.04,0.359,1.878,1.561,2.075
	c0.519,0.084,0.998,0.122,1.719,0.203c0.642,0.039,0.804,0.161,0.804,0.441c0,0.238-0.201,0.359-0.923,0.359
	c-2.718,0-6.601-0.121-7.242-0.121c-0.681,0-4.561,0.121-5.88,0.121c-0.641,0-0.918-0.081-0.918-0.403
	c0-0.274,0.318-0.397,0.795-0.397c0.404-0.04,0.843-0.081,1.283-0.156c0.878-0.163,1.159-1.044,1.278-2.203
	c0.16-1.681,0.242-4.562,0.242-8.442V61.355c-1.562,0-4.041-0.038-6.04,0.079c-2.242,0.122-3.122,0.644-3.644,2.042
	c-0.201,0.439-0.276,0.681-0.358,0.92c-0.078,0.32-0.202,0.64-0.48,0.64c-0.361,0-0.361-0.319-0.321-0.8
	c0.163-1.64,0.6-3.799,0.884-5.318c0.075-0.6,0.197-1.002,0.438-1.002c0.28,0,0.439,0.121,1.361,0.318
	c0.716,0.162,2.918,0.279,4.439,0.279h17.402c1.239,0,1.964-0.076,2.52-0.157c0.642-0.122,0.964-0.242,1.24-0.242
	c0.359,0,0.4,0.242,0.4,1.242c0,0.56-0.238,4.28-0.282,5.281c-0.036,0.561-0.159,0.801-0.395,0.801c-0.322,0-0.4-0.24-0.442-0.722
	c-0.041-0.44-0.041-0.601-0.083-0.801c-0.157-1.237-0.76-2.2-3.12-2.359c-1.318-0.122-3.399-0.201-6.438-0.201V77.039z"/>
<path fill="#010101" d="M461.358,77.039c0,3.122,0,6.84,0.2,8.523c0.083,1.04,0.361,1.878,1.56,2.075
	c0.519,0.084,1.002,0.122,1.721,0.203c0.638,0.039,0.801,0.161,0.801,0.441c0,0.238-0.201,0.359-0.922,0.359
	c-2.719,0-6.6-0.121-7.242-0.121c-0.677,0-4.56,0.121-5.879,0.121c-0.643,0-0.918-0.081-0.918-0.403
	c0-0.274,0.317-0.397,0.795-0.397c0.402-0.04,0.841-0.081,1.283-0.156c0.883-0.163,1.158-1.044,1.28-2.203
	c0.159-1.681,0.24-4.562,0.24-8.442V61.355c-1.561,0-4.042-0.038-6.04,0.079c-2.241,0.122-3.122,0.644-3.641,2.042
	c-0.203,0.439-0.279,0.681-0.36,0.92c-0.078,0.32-0.203,0.64-0.482,0.64c-0.354,0-0.354-0.319-0.32-0.8
	c0.161-1.64,0.6-3.799,0.884-5.318c0.076-0.6,0.197-1.002,0.438-1.002c0.279,0,0.438,0.121,1.359,0.318
	c0.724,0.162,2.92,0.279,4.44,0.279h17.404c1.237,0,1.961-0.076,2.521-0.157c0.64-0.122,0.96-0.242,1.24-0.242
	c0.355,0,0.4,0.242,0.4,1.242c0,0.56-0.242,4.28-0.28,5.281c-0.041,0.561-0.157,0.801-0.4,0.801c-0.32,0-0.4-0.24-0.441-0.722
	c-0.041-0.44-0.041-0.601-0.082-0.801c-0.159-1.237-0.761-2.2-3.115-2.359c-1.323-0.122-3.406-0.201-6.444-0.201V77.039z"/>
<path fill="#010101" d="M477.161,69.996c0-6.197,0-7.357-0.118-8.641c-0.079-1.121-0.518-1.84-1.401-2.002
	c-0.28-0.076-0.678-0.113-1.198-0.16c-0.48,0-0.761-0.157-0.761-0.438c0-0.237,0.197-0.359,0.881-0.359
	c1.597,0,5.52,0.122,5.837,0.122c0.363,0,5.083-0.122,6.525-0.122c0.679,0,0.879,0.159,0.879,0.4c0,0.321-0.359,0.396-0.761,0.396
	c-0.398,0.047-0.64,0.047-1.159,0.122c-1.043,0.2-1.443,0.721-1.52,2.158c-0.122,1.284-0.122,2.325-0.122,8.522v7.043
	c0,3.16,0.041,6.883,0.198,8.561c0.083,1.041,0.323,1.76,1.519,2.042c0.525,0.12,1.244,0.159,1.763,0.197
	c0.682,0,0.842,0.163,0.842,0.399c0,0.205-0.2,0.406-0.842,0.406c-2.72,0-6.997-0.122-7.36-0.122c-0.196,0-4.399,0.122-5.761,0.122
	c-0.639,0-0.957-0.084-0.957-0.406c0-0.278,0.318-0.399,0.799-0.399c0.399-0.038,0.799-0.077,1.239-0.16
	c0.843-0.116,1.119-0.997,1.237-2.157c0.162-1.681,0.241-4.563,0.241-8.482V69.996z"/>
<path fill="#010101" d="M255.678,51.075c0,0.81-0.281,1.502-0.843,2.088c-0.564,0.584-1.269,0.878-2.123,0.878
	c-0.853,0-1.571-0.28-2.156-0.847c-0.584-0.559-0.877-1.267-0.877-2.119c0-0.857,0.293-1.574,0.877-2.156
	c0.585-0.586,1.303-0.879,2.156-0.879c0.808,0,1.505,0.293,2.09,0.879C255.385,49.501,255.678,50.218,255.678,51.075
	 M247.728,51.075c0,0.81-0.283,1.502-0.843,2.088c-0.561,0.584-1.271,0.878-2.124,0.878c-0.854,0-1.571-0.28-2.157-0.847
	c-0.582-0.559-0.874-1.267-0.874-2.119c0-0.857,0.292-1.574,0.874-2.156c0.586-0.586,1.303-0.879,2.157-0.879
	c0.809,0,1.505,0.293,2.09,0.879C247.435,49.501,247.728,50.218,247.728,51.075 M279.615,32.609h-6.753
	c-2.248,0-4.021-0.651-5.323-1.953c-1.303-1.304-1.954-3.102-1.954-5.392V15.087h-4.65c-4.132,0-6.2,2.631-6.2,7.888
	c0,4.042,1.549,6.108,4.65,6.197h4.11v3.237c0,2.871-0.907,5.357-2.729,7.445c-1.818,2.091-4.256,3.31-7.312,3.672h-7.684
	c-4.671,0-8.222-1.413-10.646-4.246c-2.202-2.604-3.302-6.291-3.302-11.05v-8.963h7.262v8.827c0,3.864,0.839,6.874,2.519,9.03
	c0.949,1.219,2.381,2.095,3.449,2.622c0.825,0.409,1.729,0.616,2.646,0.616c1.549,0,3.105-0.298,4.484-1.014
	c0.956-0.492,1.813-1.143,2.371-1.952c0.986-1.305,1.503-2.695,1.546-4.18c-2.559-0.043-4.628-0.874-6.199-2.494
	c-1.711-1.662-2.561-3.973-2.561-6.938c0-3.55,1.062-6.448,3.191-8.695c2.125-2.244,6.476-3.369,9.922-3.369h11.613v12.402
	c0,2.692,1.19,4.041,3.57,4.041h3.979V32.609z"/>
<path fill="#010101" d="M322.584,28.162v-6.739c0-3.775,0.01-5.537-4.873-5.66c-2.847-0.071-6.034,1.685-9.558,5.053
	c-2.985,2.787-4.837,5.234-5.561,7.346H322.584z M329.848,32.609h-50.23v-4.448h14.933V8.885l-0.742-6.064l8.543-0.536l-0.539,6.536
	v14.287c1.439-2.648,3.549-5.099,6.336-7.345c3.369-2.786,6.653-4.179,9.841-4.179c3.457,0,6.299,0.807,8.521,2.426
	c2.224,1.617,3.338,3.82,3.338,6.604V32.609z"/>
<path fill="#010101" d="M350.733,32.609h-6.184c-2.248,0-4.021-0.651-5.322-1.953c-1.306-1.304-1.955-3.102-1.955-5.392V8.482
	l-0.875-6.333l8.139-1.348v23.319c0,2.692,1.188,4.041,3.571,4.041h2.626V32.609z"/>
<path fill="#010101" d="M378.085,3.834c0,0.81-0.286,1.505-0.863,2.088c-0.578,0.585-1.288,0.877-2.135,0.877
	c-0.797,0-1.496-0.28-2.096-0.842c-0.601-0.563-0.902-1.27-0.902-2.124c0-0.854,0.302-1.573,0.902-2.156
	c0.6-0.586,1.299-0.877,2.096-0.877c0.804,0,1.502,0.291,2.102,0.877C377.79,2.262,378.085,2.98,378.085,3.834 M385.837,32.609
	h-35.105v-4.448h17.184c-1.307-1.662-1.958-3.749-1.958-6.267c0-3.054,0.919-5.558,2.763-7.513c1.844-1.953,4.201-2.911,7.077-2.866
	c2.739,0,5.638,1.169,8.692,3.505l-1.887,2.224c0,0-1.359-1.886-3.387-1.886c-3.999,0-5.995,2.312-5.995,6.939
	c0,1.888,0.563,3.369,1.685,4.451c0.99,0.942,2.204,1.413,3.641,1.413h2.563l4.057-0.675L385.837,32.609z"/>
<path fill="#010101" d="M411.226,19.132c0,0.807-0.296,1.505-0.875,2.091c-0.585,0.581-1.305,0.875-2.155,0.875
	c-0.811,0-1.505-0.283-2.09-0.843c-0.583-0.563-0.877-1.289-0.877-2.191c0-0.811,0.294-1.505,0.877-2.088
	c0.585-0.586,1.279-0.878,2.09-0.878c0.851,0,1.57,0.292,2.155,0.878C410.93,17.559,411.226,18.278,411.226,19.132 M473.222,32.609
	h-46.417c-0.942,0-1.845-0.113-2.691-0.336c-0.631,3.458-2.227,6.188-4.789,8.187c-2.561,2-5.86,3.002-9.907,3.002
	c-4.672,0-10.561-1.44-12.988-4.315c-2.203-2.694-3.301-6.426-3.301-11.188v-8.962h7.259v8.826c0,3.867,0.649,7.088,2.544,9.166
	c1.461,1.605,2.901,3.373,6.38,3.373c2.397,0,4.188-0.889,5.521-2.966c1.76-2.73,2.287-5.481,2.287-9.166v-8.559l-0.876-6.539
	l8.137-1.346v11.457c0,3.281,1.19,4.918,3.57,4.918h45.272V32.609z"/>
<path fill="#010101" d="M485.42,40.528c0,0.763-0.296,1.449-0.877,2.056c-0.584,0.607-1.302,0.91-2.157,0.91
	c-0.81,0-1.505-0.283-2.092-0.845c-0.583-0.561-0.871-1.291-0.871-2.189c0-0.807,0.288-1.504,0.871-2.09
	c0.587-0.581,1.282-0.875,2.092-0.875c0.855,0,1.573,0.295,2.157,0.875C485.124,38.956,485.42,39.674,485.42,40.528 M488.047,25.432
	c0,2.202-0.65,3.944-1.957,5.225c-1.301,1.278-3.073,1.92-5.318,1.92h-7.55v-4.447h3.945c2.412,0,3.617-1.305,3.617-3.908v-4.854
	l-0.811-6.333l8.073-1.281V25.432z"/>
<path fill="#010101" d="M157.843,49.214c-7.105-6.745-15.951-11.198-25.592-12.888L109.186,14.44
	C99.96,5.684,87.722,0.804,75.002,0.804H26.19l2.021,2.618c3.772,4.877,9.588,7.738,15.761,7.738h27.569
	c12.351,0,24.085,4.68,33.042,13.179l11.834,11.236H53.169l4.662,6.016c2.121,2.74,5.39,4.341,8.852,4.341h53.517
	c2.705,0,5.416,0.229,8.055,0.685c7.12,1.207,14,4.076,19.89,8.293c1.758,1.256,3.475,2.669,5.094,4.203l20.794,19.732H90.099
	c-16.262,0-31.338-8.088-40.335-21.63L18.997,10.979C14.766,4.621,7.635,0.804,0,0.804l15.379,23.313
	c0.155,0.256,0.302,0.516,0.469,0.764l27.873,41.944C53.027,80.839,68.625,89.2,85.445,89.2h114.563L157.843,49.214z"/>
<rect x="215.441" y="0.041" fill="#010101" width="2.422" height="89.918"/>
</svg>
