<?xml version="1.0" encoding="utf-8"?>
<!-- Generator: Adobe Illustrator 16.0.0, SVG Export Plug-In . SVG Version: 6.00 Build 0)  -->
<!DOCTYPE svg PUBLIC "-//W3C//DTD SVG 1.1//EN" "http://www.w3.org/Graphics/SVG/1.1/DTD/svg11.dtd">
<svg version="1.1" id="Layer_1" xmlns="http://www.w3.org/2000/svg" xmlns:xlink="http://www.w3.org/1999/xlink" x="0px" y="0px"
	 width="300px" height="90px" viewBox="0 0 300 90" enable-background="new 0 0 300 90" xml:space="preserve">
<g>
	<path d="M2.274,45.357l3.485-7.731c3.739,2.725,9.315,4.626,14.638,4.626c6.083,0,8.555-2.028,8.555-4.753
		c0-8.301-25.792-2.598-25.792-19.074c0-7.541,6.083-13.814,18.694-13.814c5.577,0,11.28,1.331,15.399,3.929l-3.168,7.794
		c-4.119-2.345-8.365-3.485-12.294-3.485c-6.083,0-8.428,2.281-8.428,5.07c0,8.175,25.792,2.535,25.792,18.821
		c0,7.414-6.147,13.751-18.821,13.751C13.301,50.49,6.203,48.398,2.274,45.357z"/>
	<path d="M75.401,40.224H54.806l-3.929,9.505h-10.52L60.129,5.371h10.139l19.834,44.359H79.33L75.401,40.224z M72.169,32.43
		l-7.034-16.983L58.101,32.43H72.169z"/>
	<path d="M135.093,49.729l-0.063-26.615L121.976,45.04h-4.626l-12.991-21.355v26.045h-9.632V5.371h8.492l16.603,27.566l16.35-27.566
		h8.428l0.126,44.359H135.093z"/>
	<path d="M184.455,40.224H163.86l-3.929,9.505h-10.52l19.771-44.359h10.139l19.835,44.359h-10.772L184.455,40.224z M181.224,32.43
		l-7.034-16.983l-7.034,16.983H181.224z"/>
	<path d="M244.465,5.371v44.359h-8.429L213.92,22.797v26.932h-10.139V5.371h8.491l22.053,26.932V5.371H244.465z"/>
	<path d="M284.195,40.224h-20.595l-3.929,9.505h-10.52l19.771-44.359h10.139l19.835,44.359h-10.772L284.195,40.224z M280.964,32.43
		l-7.034-16.983l-7.034,16.983H280.964z"/>
	<path d="M4.254,60.675h10.547c8.044,0,13.514,5.181,13.514,12.77s-5.47,12.77-13.514,12.77H4.254V60.675z M14.586,83.04
		c6.185,0,10.153-3.867,10.153-9.596c0-5.728-3.968-9.595-10.153-9.595H7.829v19.19H14.586z"/>
	<path d="M51.949,83.04v3.174H33.787V60.675h17.661v3.175H37.362v7.844h12.549v3.102H37.362v8.245H51.949z"/>
	<path d="M79.122,60.675L68.146,86.214h-3.54L53.596,60.675h3.861l9.01,20.979l9.081-20.979H79.122z"/>
	<path d="M100.468,83.04v3.174H82.306V60.675h17.661v3.175H85.881v7.844H98.43v3.102H85.881v8.245H100.468z"/>
	<path d="M106.262,60.675h3.575V83.04h13.55v3.174h-17.125V60.675z"/>
	<path d="M124.998,73.444c0-7.479,5.648-13.061,13.335-13.061c7.615,0,13.264,5.545,13.264,13.061s-5.648,13.062-13.264,13.062
		C130.646,86.506,124.998,80.924,124.998,73.444z M148.021,73.444c0-5.654-4.147-9.813-9.688-9.813c-5.613,0-9.76,4.159-9.76,9.813
		c0,5.655,4.147,9.814,9.76,9.814C143.875,83.259,148.021,79.1,148.021,73.444z"/>
	<path d="M177.27,69.577c0,5.546-3.933,8.902-10.439,8.902h-6.186v7.734h-3.575V60.675h9.761
		C173.337,60.675,177.27,64.031,177.27,69.577z M173.694,69.577c0-3.648-2.396-5.728-6.972-5.728h-6.078v11.456h6.078
		C171.299,75.306,173.694,73.226,173.694,69.577z"/>
	<path d="M200.688,83.04v3.174h-18.162V60.675h17.661v3.175h-14.086v7.844h12.549v3.102h-12.549v8.245H200.688z"/>
	<path d="M223.214,86.214l-5.398-7.844c-0.5,0.036-1.037,0.072-1.573,0.072h-6.185v7.771h-3.575V60.675h9.76
		c6.507,0,10.439,3.356,10.439,8.902c0,3.94-2.002,6.786-5.506,8.063l5.936,8.573H223.214z M223.106,69.577
		c0-3.648-2.395-5.728-6.971-5.728h-6.078v11.492h6.078C220.712,75.342,223.106,73.226,223.106,69.577z"/>
	<path d="M230.188,83.295l1.323-2.846c1.858,1.715,5.04,2.955,8.258,2.955c4.326,0,6.186-1.715,6.186-3.939
		c0-6.239-15.159-2.299-15.159-11.785c0-3.939,3.004-7.296,9.582-7.296c2.932,0,5.97,0.802,8.044,2.262l-1.18,2.919
		c-2.182-1.423-4.648-2.08-6.864-2.08c-4.255,0-6.078,1.824-6.078,4.05c0,6.238,15.158,2.335,15.158,11.711
		c0,3.904-3.074,7.261-9.688,7.261C235.943,86.506,232.189,85.192,230.188,83.295z"/>
</g>
</svg>
