<?xml version="1.0" encoding="utf-8"?>
<!-- Generator: Adobe Illustrator 16.0.0, SVG Export Plug-In . SVG Version: 6.00 Build 0)  -->
<!DOCTYPE svg PUBLIC "-//W3C//DTD SVG 1.0//EN" "http://www.w3.org/TR/2001/REC-SVG-20010904/DTD/svg10.dtd">
<svg version="1.0" id="Layer_1" xmlns="http://www.w3.org/2000/svg" xmlns:xlink="http://www.w3.org/1999/xlink" x="0px" y="0px"
	 width="446.299px" height="90px" viewBox="585.201 115.5 446.299 90" enable-background="new 585.201 115.5 446.299 90"
	 xml:space="preserve">
<g id="Page-1">
	<path id="Shape" fill="#3C3D3F" d="M649.948,195.891l-1.325,8.784h-63.422c2.625-6.077,2.458-9.502,2.458-13.894v-60.383
		c0-4.254,0.166-7.983-2.458-13.895h19.004h42.87l0.111,8.95c-1.16-0.47-2.1-0.884-2.956-1.271
		c-2.293-0.856-5.193-1.657-8.205-1.629c-4.806,0-24.97,0-33.92,0v34.528h39.804l-1.96,6.795h-37.843v34.556
		c7.32,0,30.716,0,35.882,0c6.049,0.111,12.071-3.313,12.071-3.313l-0.166,0.745C649.893,195.891,649.92,195.891,649.948,195.891z
		 M745.412,204.675c0.856-4.337,0.856-10.47,0.166-15.468l-5.635-41.545l-30.771,56.986h-5.856l-31.269-59.556l-6.077,45.024
		c-0.663,5.194-0.856,11.768-0.304,14.558h-10.994c2.127-4.502,2.651-6.463,3.646-13.866l9.944-74.305h5.055l36.49,69.333
		l36.461-69.333h3.813l10.275,74.139c1.022,7.376,1.795,9.502,3.839,14.032H745.412z M838.031,204.675l-14.642-32.291h-29.444
		l-14.447,32.291h-1.243h-10.194h-0.055c3.646-4.53,4.889-6.629,7.458-12.265l34.142-75.907h3.839l33.59,73.78
		c3.591,7.211,5.275,9.447,10.413,14.392H838.031z M930.153,204.675l-14.641-32.291h-29.447l-14.445,32.291h-1.216h-10.221h-0.055
		c3.646-4.53,4.889-6.629,7.457-12.265l34.143-75.907h3.84l33.616,73.78c3.591,7.211,5.276,9.447,10.414,14.392H930.153z
		 M1013.628,204.73c-8.812-8.038-20.22-18.701-34.502-35.605c-4.087-4.778-6.959-5.386-8.81-5.498v27.154
		c0,4.364,0,7.816,2.485,13.894H953.41c2.624-6.077,2.459-9.502,2.459-13.894v-60.438c0-4.254,0.165-7.983-2.459-13.895h19.005
		c12.982,0,43.671-1.16,43.671,24.197c0,13.397-10.635,20.606-23.119,22.43l-3.701,0.358c0,0,40.493,39.584,42.234,41.297H1013.628z
		 M990.673,158.021l-0.026,0.027c8.176-3.094,10.938-10.855,10.661-17.43c-0.304-6.326-3.149-20.082-30.964-18.977v37.594
		c0,0,15.579,0.856,19.943-1.05C990.535,158.076,990.673,158.021,990.673,158.021z M888.884,166.225h23.783L900.679,139.9
		L888.884,166.225z M796.79,166.225h23.784L808.585,139.9L796.79,166.225z"/>
</g>
</svg>
