<?xml version="1.0" encoding="utf-8"?>
<!-- Generator: Adobe Illustrator 16.0.0, SVG Export Plug-In . SVG Version: 6.00 Build 0)  -->
<!DOCTYPE svg PUBLIC "-//W3C//DTD SVG 1.0//EN" "http://www.w3.org/TR/2001/REC-SVG-20010904/DTD/svg10.dtd">
<svg version="1.0" id="Layer_1" xmlns="http://www.w3.org/2000/svg" xmlns:xlink="http://www.w3.org/1999/xlink" x="0px" y="0px"
	 width="737.529px" height="90px" viewBox="0 0 737.529 90" enable-background="new 0 0 737.529 90" xml:space="preserve">
<path d="M127.543,68.766c7.692-7.301,13.411-15.406,17.142-24.33c5.855-14.02,5.346-24.909-1.504-32.683
	c-6.862-7.756-19.799-11.652-38.812-11.652H39.992l-5.82,14.044h44.324c22.618,0,29.172,11.261,21.368,29.923
	c-4.505,10.801-8.496,20.723-17.904,25.139c-8.609,4.068-17.509,5.248-33.34,5.248l-20.504-0.047l15.311-36.343H24.112L2.371,89.801
	h58.339c16.353,0,29.284-1.514,38.799-4.523C109.941,81.92,119.296,76.42,127.543,68.766 M547.102,0l0.012,0.071H523.21
	l-91.849,85.953l35.897-85.922h-39.368l-47.568,37.266L355.84,57.473h-1.125l11.521-29.307L352.199,0.101h-39.558L276.69,86.189
	L255.967,0.101h-43.346l-95.734,89.7h23.931l24.459-23.457h60.328l4.795,23.457h64.094l23.168-55.441
	c1.172-2.783,2.285-5.981,3.369-9.568c0.112,2.9,0.899,5.979,2.327,9.212l20.374,46.254h3.452l58.297-46.083
	c2.179-1.747,5.494-4.86,9.911-9.384c-2.255,4.179-3.825,7.358-4.754,9.568l-23.174,55.441h42.322l0.005-0.021H474.4l24.199-23.566
	h62.652l5.022,23.566h22.025L566.831,0H547.102z M177.907,54.033l38.166-36.519l6.897,36.519H177.907z M511.263,53.896
	l39.202-38.158l8.142,38.158H511.263z M736.972,0.895l0.308-0.793h-64.389c-18.994,0-35.188,3.896-48.551,11.652
	c-13.347,7.774-22.932,18.663-28.806,32.683c-3.724,8.924-4.796,17.029-3.18,24.33c1.872,7.654,6.607,13.154,14.239,16.512
	c6.987,3.01,18.657,4.523,35.004,4.523h58.209l5.79-14.244h-32.771c-15.814,0-26.329-2.025-31.559-6.1
	c-5.754-4.404-5.121-14.588-0.615-25.389c7.797-18.662,24.151-30.278,46.745-30.278h25.412l-5.843,14.015h19.313l11.25-26.91
	H736.972z"/>
</svg>
