<?xml version="1.0" encoding="utf-8"?>
<!-- Generator: Adobe Illustrator 26.0.1, SVG Export Plug-In . SVG Version: 6.00 Build 0)  -->
<!DOCTYPE svg PUBLIC "-//W3C//DTD SVG 1.1//EN" "http://www.w3.org/Graphics/SVG/1.1/DTD/svg11.dtd" [
	<!ENTITY ns_extend "http://ns.adobe.com/Extensibility/1.0/">
	<!ENTITY ns_ai "http://ns.adobe.com/AdobeIllustrator/10.0/">
	<!ENTITY ns_graphs "http://ns.adobe.com/Graphs/1.0/">
	<!ENTITY ns_vars "http://ns.adobe.com/Variables/1.0/">
	<!ENTITY ns_imrep "http://ns.adobe.com/ImageReplacement/1.0/">
	<!ENTITY ns_sfw "http://ns.adobe.com/SaveForWeb/1.0/">
	<!ENTITY ns_custom "http://ns.adobe.com/GenericCustomNamespace/1.0/">
	<!ENTITY ns_adobe_xpath "http://ns.adobe.com/XPath/1.0/">
]>
<svg version="1.1" id="Layer_1" xmlns:x="&ns_extend;" xmlns:i="&ns_ai;" xmlns:graph="&ns_graphs;"
	 xmlns="http://www.w3.org/2000/svg" xmlns:xlink="http://www.w3.org/1999/xlink" x="0px" y="0px" viewBox="0 0 125 110"
	 style="enable-background:new 0 0 125 110;" xml:space="preserve">
<style type="text/css">
	.st0{fill:#FEE041;}
	.st1{fill:#010101;}
	.st2{fill:#010201;}
	.st3{fill:#FEFEFE;}
	.st4{fill:#FFFFFF;}
	.st5{fill:#1B2743;}
	.st6{fill:#F1F0F2;}
	.st7{fill:#F8F7F9;}
	.st8{fill:#F5F5F5;}
	.st9{fill:#ACDBF5;}
	.st10{fill:#8ECEEF;}
	.st11{fill:#4E833D;}
	.st12{fill:#66A042;}
	.st13{fill:#346531;}
	.st14{fill:#8B603D;}
	.st15{fill:#3B773A;}
	.st16{fill:#305427;}
	.st17{fill:#599742;}
	.st18{fill:#315427;}
	.st19{fill:#609540;}
	.st20{fill:#548C3F;}
	.st21{fill:#865C3C;}
	.st22{fill:#7F512C;}
	.st23{fill:#296935;}
	.st24{fill:#8A5D38;}
	.st25{fill:#80532C;}
	.st26{fill:#5A903F;}
	.st27{fill:#814E29;}
	.st28{fill:#22411D;}
	.st29{fill:#815732;}
	.st30{fill:#2A4A22;}
	.st31{fill:#549040;}
	.st32{fill:#509241;}
	.st33{fill:#82522A;}
	.st34{fill:#835028;}
	.st35{fill:#804F23;}
	.st36{fill:#80522C;}
	.st37{fill:#327037;}
	.st38{fill:#824F25;}
	.st39{fill:#84532B;}
	.st40{fill:#3B783A;}
	.st41{fill:#27451F;}
	.st42{fill:#81552D;}
	.st43{fill:#27441F;}
	.st44{fill:#427939;}
	.st45{fill:#266A35;}
	.st46{fill:#5B9742;}
	.st47{fill:#7A5636;}
	.st48{fill:#82533D;}
	.st49{fill:#6DA743;}
	.st50{fill:#599942;}
	.st51{fill:#8E603E;}
	.st52{fill:#946041;}
	.st53{fill:#946042;}
	.st54{fill:#96603E;}
	.st55{fill:#82563D;}
	.st56{fill:#5F9B42;}
</style>
<metadata>
	<sfw  xmlns="&ns_sfw;">
		<slices></slices>
		<sliceSourceBounds  bottomLeftOrigin="true" height="2983.9" width="2975.9" x="-1103.9" y="-1201.9"></sliceSourceBounds>
	</sfw>
</metadata>
<path class="st5" d="M103.2,107.4c-31.7,0.1-63.3,0.1-95,0.2c-0.4,0-0.9-0.1-1.3-0.1c-1.1-0.8-1.5-1.9-1.1-3.1
	c0.5-1.3,1.6-1.4,2.8-1.4c5.5,0,11.1-0.1,16.6-0.1c0.2-2.3,0.1-4.6,0-6.9c-0.2-1.5,0.4-2,2-1.9c2.4,0.1,4.7-0.2,7.1-0.2
	c1.1,0,1.5-0.4,1.3-1.4c0-0.3,0-0.6,0-1c0.3-1.6-0.4-2-2-1.8c-2.4,0.3-4.8,0.2-7.3,0.3c-1,0.1-1.5-0.2-1.5-1.3c0-2-0.2-3.9-0.4-5.9
	c-0.1-1,0.2-1.3,1.2-1.3c2.9-0.1,5.7-0.4,8.6-0.6c1.1,0,1.5-0.3,1.4-1.4c-0.1-0.5-0.1-1,0-1.5c0.2-1.2-0.4-1.5-1.5-1.4
	c-2.9,0.3-5.7,0.5-8.6,0.8c-1.1,0.1-1.6-0.2-1.7-1.3c-0.1-1.9-0.3-3.8-0.6-5.7c-0.2-1.2,0.3-1.4,1.3-1.4c3.2-0.3,6.3-0.7,9.5-1
	c1.2-0.1,1.7-0.5,1.5-1.7c-0.1-0.4-0.1-0.9,0-1.3c0.2-1.4-0.5-1.4-1.6-1.3c-3.4,0.4-6.9,0.8-10.3,1.2c-0.7,0.1-1.2,0.1-1.3-0.8
	c-0.2-2.1-0.5-4.2-0.8-6.2c-0.2-1.1,0.2-1.3,1.1-1.4c3.7-0.5,7.5-1.1,11.2-1.4c1.3-0.1,1.7-0.6,1.6-1.8c-0.1-2.7,0-2.7-2.8-2.2
	c-3.5,0.5-6.9,1-10.4,1.6c-1,0.2-1.5,0-1.7-1.1c-0.3-1.9-0.6-3.8-0.9-5.6c-0.2-1,0.1-1.5,1.2-1.6c4.5-0.7,8.9-1.5,13.4-2.3
	c1.2-0.2,1.7-1.9,1.2-3.7c-0.4-1.3-1.3-0.4-1.9-0.3c-4.5,0.8-9,1.7-13.5,2.5c-0.5,0.2-1,0.5-1.5-0.1c-0.4-2.1-0.6-4.2-1.1-6.2
	c-0.3-1.3,0-1.8,1.3-2c5.1-1,10.1-2.1,15.1-3.2c0.6-0.1,1.4,0,1.5-0.9c0.1-1.1-0.1-2.3-0.1-3.4c-0.5,0.1-1.1,0.1-1.6,0.2
	c-5.3,1.2-10.6,2.3-15.8,3.6c-1.1,0.3-1.6,0.2-1.8-1.1c-0.2-1.7-0.6-3.4-1.2-5c-0.4-1.3-0.1-1.7,1.2-2c5.8-1.4,11.5-2.9,17.2-4.2
	c1.6-0.4,2.3-0.9,2.1-2.6c-0.1-0.7,0-1.4,0-2.3c-5.3,1.4-10.5,2.8-15.6,4.1c-0.1,0-0.2,0.1-0.4,0.1c-1.9,0.3-4.3,1.9-5.6,1
	c-1.3-1-1.3-3.7-1.8-5.6c-0.2-0.7-0.3-1.2,0.8-1.5C20.3,6.9,27.6,4.6,35,2.4c0.6-0.2,1.2,0,1.9,0.1C43.9,4.4,51,6.2,58.1,8
	c1.2,0.3,1.6,0.6,1.3,2c-3.7,13.6-6.5,27.4-8.6,41.4c-1.6,10.5-2.9,21.1-3.6,31.7c-0.4,6-0.9,12.1-1.1,18.1
	c-0.1,1.4,0.2,1.8,1.7,1.8c3.8-0.1,3.7,0,3.8-3.8c0.2-15.4,0.6-30.8,2.2-46.2c0.5-5.1,1.2-10.2,2.2-15.3c0.2-0.9,0.4-1.4,1.5-0.9
	c3.6,1.6,7.2,3.1,10.9,4.6c1,0.4,1,0.9,0.7,1.7c-1.8,6.6-3.2,13.3-4.4,20.1c-2.2,12.9-3.8,25.8-4,38.9c0.2,0.1,0.2,0.3,0,0.4
	c0.4,0.7,1,0.4,1.5,0.4c8.9,0,17.8,0,26.7,0.1c1.4,0,2-0.3,1.8-1.8c-0.2-1.4,0.6-3.2-0.3-4c-0.7-0.6-2.5-0.1-3.8-0.1
	c-5.6,0.2-11.1,0.4-16.7,0.7c-0.8,0-1.9,0.5-1.8-1.1c0.1-1.2-0.3-2.2,1.7-2.3c6.4-0.2,12.9-0.8,19.3-1.1c1.2-0.1,1.8-0.3,1.6-1.7
	c-0.1-0.8,0-1.5,0-2.3c0-3.8,0-3.7-3.9-3.2c-5.7,0.7-11.4,1.3-17.1,1.8c-0.6,0.1-1.8,0.5-1.6-0.9c0.1-1-0.9-2.4,1.3-2.7
	c6.3-0.7,12.5-1.6,18.8-2.3c2-0.2,2.8-0.8,2.5-2.8c-0.2-1.1-0.1-2.3,0-3.4c0.1-1.4-0.5-1.4-1.5-1.2c-6.4,1.1-12.8,2.2-19.2,3.2
	c-0.6,0.1-1.7,0.9-1.8-0.5c0-1-1-2.6,1.2-2.9c6.7-1.1,13.4-2.5,20.1-3.7c1-0.2,1.2-0.6,1.2-1.5c-0.1-1.6-0.1-3.2,0-4.8
	c0.1-1.2-0.5-1.2-1.4-1c-6.5,1.5-12.9,3-19.4,4.4c-0.6,0.1-1.7,1-1.8-0.3c-0.1-1-1-2.5,1.1-3.1c6.7-1.6,13.3-3.3,20-4.9
	c1.1-0.3,1.5-0.7,1.4-1.8c-0.1-1.5-0.1-2.9,0-4.4c0.1-1.2-0.4-1.3-1.4-1c-6.1,1.8-12.2,3.6-18.3,5.4c-0.4,0.1-0.9,0.2-1.3,0.3
	c-0.5,0.1-1.2,0.8-1.5-0.2c-0.3-1,0.2-1.4,1.2-1.7c2.9-0.8,5.7-1.7,8.6-2.6c3.8-1.1,7.6-2.2,11.3-3.4c1-0.3,2-0.3,3-0.1
	c3.4,1,6.9,1.9,10.3,2.8c1,0.3,1,0.3,1.3,2.9"/>
<path class="st5" d="M113.8,108L7.9,108.2c-1.4,0-2.5-1.1-2.5-2.5l0-1c0-1.4,1.1-2.5,2.5-2.5l105.8-0.2c1.4,0,2.5,1.1,2.5,2.5l0,1
	C116.3,106.8,115.2,108,113.8,108z"/>
<g>
	<path class="st9" d="M64.4,10.2c1.6-4.1,6.1-5,9-3.2c2.5,1.5,3.4,3.8,3,6.7c1.3,0.5,2.3,1.4,2.7,2.8c0.1,0.3,0.3,0.4,0.6,0.4
		c1.6,0.3,2.6,1.4,2.9,3.1c2.1-0.1,4.1,0.2,4.8,2.7c-2,1.9-4.4,1.9-6.8,1.1c-0.3-0.1-0.7-0.3-1,0c-1.5,1.1-3.3,1.1-5,1
		c-3.1-0.3-5.4-2.7-3.9-5.9c0.1-0.2,0.2-0.3,0-0.5c-1.5,1.1-1.5,2.8-0.1,5.5c-1.3,0.9-2.8,1.2-4.3,0.7c-0.6-0.2-1-0.1-1.5,0.4
		c-1,1-2.3,1.4-3.7,1.1c-0.6-0.1-1,0-1.4,0.3c-2.2,1.4-4,0.9-5-1.5c-0.8,0.1-1.6-0.2-2.2-0.8c-1-0.9-1.5-2.1-1.2-3.4
		c0.5-1.8,1.4-3.4,3.3-4c0.8,0.3,1.5,0.1,2-0.6c0.3-0.4,0.8-0.5,1.2-0.8c-0.3-3,0.4-4.5,2.6-5.3c0.2,0.2,0.4,0.2,0.6,0.2
		c2.6-0.1,4.5,2,4.5,4.2c0,0.3,0,0.5,0.4,0.6C66.7,13.4,65.7,11.1,64.4,10.2z M78.5,18.5c-0.1,0-0.3,0-0.4,0.1
		c-1.2,1.1-2.5,1.3-4,0.4c-0.1-0.1-0.3-0.2-0.5,0C75,20.9,77.5,20.7,78.5,18.5c0.1-0.1,0.1-0.2,0.2-0.2c0,0-0.1,0-0.1-0.1
		C78.5,18.3,78.5,18.4,78.5,18.5z M74.6,12.6c-1.5-1.2-3.6-0.9-5.1,0.4c-1.3,1.2-1.8,3.6-1,5C68.8,14.3,70.8,12.6,74.6,12.6z
		 M55.9,20.2c3-0.5,4.7,0.8,5.6,3.4c0.5-1.1,0-2.5-1.1-3.4C59.3,19.3,57.5,19,55.9,20.2z"/>
	<path class="st10" d="M54.6,16.7c-2,0.6-2.9,2.2-3.3,4c-0.3,1.3,0.1,2.5,1.2,3.4c0.6,0.6,1.4,0.8,2.2,0.8c1,2.4,2.8,2.9,5,1.5
		c0.4-0.3,0.8-0.4,1.4-0.3c1.4,0.3,2.7-0.1,3.7-1.1c0.5-0.5,0.8-0.6,1.5-0.4c1.5,0.5,3,0.2,4.3-0.7c-1.4-2.7-1.4-4.4,0.1-5.5
		c0.2,0.1,0.1,0.3,0,0.5c-1.5,3.3,0.8,5.7,3.9,5.9c1.7,0.1,3.5,0.1,5-1c0.3-0.2,0.6-0.1,1,0c2.5,0.9,4.8,0.8,6.8-1.1
		c0.6,1.6,0,3.3-1.4,4.3c-1.7,1.2-3.4,1-5.6-0.7c-0.8,1.6-1.9,2.6-3.7,2.7c-1.8,0.1-3-0.9-3.8-2.5c-1.1,0.8-2.3,1.4-3.7,1.4
		c-1.4,0-2.5-0.7-3.6-1.5c-0.4,1.4-1,2.6-2.4,3.3c-1.4,0.7-2.7,0.6-4.1,0c-1.7,2.4-4.8,2.6-6.6-0.6c-3,0.3-4.3-0.3-4.9-2.2
		c-0.5-1.7,0.2-3.2,2.2-4.5c-0.8-2.4-0.5-4.1,1-5.3C52,16.2,53.4,16,54.6,16.7z"/>
	<path class="st10" d="M64.4,10.2c1.3,0.9,2.4,3.1,1.5,4.7c-0.4,0-0.4-0.3-0.4-0.6c-0.1-2.2-1.9-4.3-4.5-4.2c-0.2,0-0.4,0-0.6-0.2
		C61.7,9.1,63,9.7,64.4,10.2z"/>
	<path class="st10" d="M74.6,12.6c-3.8,0.1-5.8,1.8-6.1,5.4c-0.8-1.4-0.3-3.9,1-5C71,11.7,73.1,11.4,74.6,12.6z"/>
	<path class="st10" d="M55.9,20.2c1.6-1.3,3.4-0.9,4.5,0c1.1,0.9,1.6,2.3,1.1,3.4C60.5,21,58.9,19.7,55.9,20.2z"/>
	<path class="st10" d="M78.5,18.5c-1,2.2-3.4,2.4-4.8,0.5c0.2-0.2,0.3,0,0.5,0c1.4,0.9,2.7,0.7,4-0.4C78.1,18.5,78.3,18.5,78.5,18.5
		L78.5,18.5z"/>
	<path class="st10" d="M78.5,18.5c0-0.1,0.1-0.2,0.1-0.3c0,0,0.1,0,0.1,0.1C78.6,18.3,78.5,18.4,78.5,18.5
		C78.5,18.5,78.5,18.5,78.5,18.5z"/>
</g>
</svg>
