<?xml version="1.0" encoding="utf-8"?>
<!-- Generator: Adobe Illustrator 26.0.1, SVG Export Plug-In . SVG Version: 6.00 Build 0)  -->
<!DOCTYPE svg PUBLIC "-//W3C//DTD SVG 1.1//EN" "http://www.w3.org/Graphics/SVG/1.1/DTD/svg11.dtd" [
	<!ENTITY ns_extend "http://ns.adobe.com/Extensibility/1.0/">
	<!ENTITY ns_ai "http://ns.adobe.com/AdobeIllustrator/10.0/">
	<!ENTITY ns_graphs "http://ns.adobe.com/Graphs/1.0/">
	<!ENTITY ns_vars "http://ns.adobe.com/Variables/1.0/">
	<!ENTITY ns_imrep "http://ns.adobe.com/ImageReplacement/1.0/">
	<!ENTITY ns_sfw "http://ns.adobe.com/SaveForWeb/1.0/">
	<!ENTITY ns_custom "http://ns.adobe.com/GenericCustomNamespace/1.0/">
	<!ENTITY ns_adobe_xpath "http://ns.adobe.com/XPath/1.0/">
]>
<svg version="1.1" id="Layer_1" xmlns:x="&ns_extend;" xmlns:i="&ns_ai;" xmlns:graph="&ns_graphs;"
	 xmlns="http://www.w3.org/2000/svg" xmlns:xlink="http://www.w3.org/1999/xlink" x="0px" y="0px" viewBox="0 0 125 110"
	 style="enable-background:new 0 0 125 110;" xml:space="preserve">
<style type="text/css">
	.st0{fill:#1B2743;}
	.st1{fill:#ACDBF5;}
	.st2{fill:#8ECEEF;}
	.st3{fill:#4E833D;}
	.st4{fill:#66A042;}
	.st5{fill:#346531;}
	.st6{fill:#8B603D;}
	.st7{fill:#3B773A;}
	.st8{fill:#305427;}
	.st9{fill:#599742;}
	.st10{fill:#315427;}
	.st11{fill:#609540;}
	.st12{fill:#548C3F;}
	.st13{fill:#865C3C;}
	.st14{fill:#7F512C;}
	.st15{fill:#296935;}
	.st16{fill:#8A5D38;}
	.st17{fill:#80532C;}
	.st18{fill:#5A903F;}
	.st19{fill:#814E29;}
	.st20{fill:#22411D;}
	.st21{fill:#815732;}
	.st22{fill:#2A4A22;}
	.st23{fill:#549040;}
	.st24{fill:#509241;}
	.st25{fill:#82522A;}
	.st26{fill:#835028;}
	.st27{fill:#804F23;}
	.st28{fill:#80522C;}
	.st29{fill:#327037;}
	.st30{fill:#824F25;}
	.st31{fill:#84532B;}
	.st32{fill:#3B783A;}
	.st33{fill:#27451F;}
	.st34{fill:#81552D;}
	.st35{fill:#27441F;}
	.st36{fill:#427939;}
	.st37{fill:#266A35;}
	.st38{fill:#5B9742;}
	.st39{fill:#7A5636;}
	.st40{fill:#82533D;}
	.st41{fill:#6DA743;}
	.st42{fill:#599942;}
	.st43{fill:#8E603E;}
	.st44{fill:#946041;}
	.st45{fill:#946042;}
	.st46{fill:#96603E;}
	.st47{fill:#82563D;}
	.st48{fill:#5F9B42;}
	.st49{fill:#4FC2F5;}
	.st50{fill:#47AEDC;}
	.st51{fill:#172238;}
	.st52{fill:#A3948E;}
	.st53{fill:#ABABAB;}
	.st54{fill:#BEBEBE;}
	.st55{fill:#D8D8D8;}
	.st56{fill:#B9B9B9;}
	.st57{fill:#FEE041;}
	.st58{fill:#FFFFFF;}
	.st59{fill:#FEE041;stroke:#1B2743;stroke-miterlimit:10;}
</style>
<metadata>
	<sfw  xmlns="&ns_sfw;">
		<slices></slices>
		<sliceSourceBounds  bottomLeftOrigin="true" height="16383" width="555.3" x="-102.5" y="-8430"></sliceSourceBounds>
	</sfw>
</metadata>
<g>
	<path class="st0" d="M121.6,109.9L5.1,110.1c-1.4,0-2.4-1.1-2.4-2.4v-1.8c0-1.4,1.1-2.4,2.4-2.4l116.5-0.2c1.4,0,2.4,1.1,2.4,2.4
		v1.8C124.1,108.7,123,109.9,121.6,109.9z"/>
	<path class="st0" d="M121.1,104.3c0,1.7,0,1.1,0,1.6c-1.7,0-3.3,0.1-5,0.1c-35,0-69.9,0-104.9,0c-8.4,0-7.5,0.6-7.5-1.2
		c0-0.1,0.1-0.2,0.3-0.8c3.5,0,7.2,0,11,0c0-14.4,0-28.3,0-42.3c-0.9-0.1-1.7-0.3-2.4-0.2c-2.9,0.4-3.9-0.6-3.8-3.7
		C9,48.2,8.9,38.6,8.9,29c0-5.6,0-5.6,5.6-6c0.2,0,0.3-0.2,0.9-0.5c0-3.3,0-6.9,0-10.4c0.9-0.1,1.4-0.1,1.9-0.1
		c30.2,0,60.3,0,90.5-0.1c2.5,0,2.6,1.1,2.6,3c0,13.7,0,27.4,0,41.1c0,1.1,0,2.2,0,3.6c2.1,0,3.8,0.1,5.4,0c2.4-0.3,3.2,0.6,3.1,3.1
		c-0.1,12.8,0,25.7-0.1,38.5C118.8,103,119.1,104.2,121.1,104.3z M17.2,23.2c26.3,0,52.5,0,79,0c0,12.2,0,24.2,0,36.2
		c4.3,0,8.2,0,12,0c0-15.3,0-30.3,0-45.5c-30.4,0-60.6,0-91,0C17.2,16.9,17.2,19.8,17.2,23.2z M54.7,103.8c0-9.3,0-18.4,0-27.5
		c-9.8,0-19.5,0-29,0c0,9.3,0,18.4,0,27.5C35.4,103.8,45,103.8,54.7,103.8z M23.6,103.8c0-1.2,0-2.3,0-3.3c0-7.8,0.1-15.7,0-23.5
		c0-2.2,0.7-2.9,2.9-2.8c5.4,0.1,10.8,0,16.2,0c4,0,8,0,12.2,0c0-4.4,0-8.4,0-12.6c-12.6,0-24.9,0-37.4,0c0,14.2,0,28.2,0,42.2
		C19.4,103.8,21.4,103.8,23.6,103.8z M116.9,61.6c-20,0-39.9,0-59.9,0c0,14.1,0,28,0,42.1c1.3,0,2.4,0,3.6,0c0-1.3,0-2.4,0-3.4
		c0-9.7,0.1-19.4-0.1-29.1c0-2.4,0.8-3,3-3c15.8,0.1,31.5,0.1,47.3,0c2.5,0,3.1,0.8,3.1,3.2c-0.1,9.7,0,19.4,0,29.1
		c0,1.1,0,2.1,0,3.3c1.1,0,2,0,2.9,0C116.9,89.7,116.9,75.8,116.9,61.6z M92.7,103.7c5.1,0,9.9,0,14.8,0c0-9.7,0-19.2,0-28.7
		c-5,0-9.9,0-14.8,0C92.7,84.6,92.7,94,92.7,103.7z M25.1,30.8c0,4.2,0,8.1,0,11.9c9.3,0,18.5,0,27.5,0c0-4.1,0-8,0-11.9
		C43.3,30.8,34.3,30.8,25.1,30.8z M67.2,74.9c0,9.8,0,19.3,0,28.8c3,0,5.8,0,8.5,0c0-9.8,0-19.3,0-28.8C72.7,74.9,70,74.9,67.2,74.9
		z M78,103.8c2.9,0,5.5,0,8.2,0c0-9.7,0-19.2,0-28.8c-2.8,0-5.4,0-8.2,0C78,84.5,78,94,78,103.8z M58.2,33c1.3-0.1,2.3-0.2,3.4-0.2
		c2.8,0,5.7,0,8.5-0.1c0.5,0,1-0.7,1.5-1c-0.5-0.3-1-1-1.4-1c-5-0.1-10.1,0-15.3,0c0,7.9,0,15.5,0,23.2c5.6,0,11,0,16.6,0
		c0-1.3,0-2.4,0-3.9c-3.7,0-7.3,0.1-10.9-0.1c-0.8,0-2.2-1.1-2.2-1.7C58.1,43.2,58.2,38.2,58.2,33z M71.4,34.9c-4,0-7.6,0-11.2,0
		c0,4.4,0,8.6,0,12.9c3.8,0,7.4,0,11.2,0C71.4,43.5,71.4,39.3,71.4,34.9z M85.2,32.7c0,5.9,0,11.3,0,17.3c-4,0-7.8,0-11.8,0
		c0.1,1.6,0.1,2.7,0.2,3.8c5,0,9.6,0,14.3,0c0-7.8,0-15.4,0-23.2c-4.3,0-8.4,0-12.4,0c-0.7,0-1.3,0.7-2,1c0.7,0.4,1.3,1,2,1
		C78.7,32.8,81.9,32.7,85.2,32.7z M22.7,53.9c0-7.8,0-15.5,0-23.1c-2,0-3.7,0-5.6,0c0,7.7,0,15.3,0,23.1
		C19.1,53.9,20.9,53.9,22.7,53.9z M43,54.3c0.4-0.2,0.7-0.5,1.1-0.7c0-1.5,0-2.9,0-4.4c0-1.9,1-3,2.9-3c1.9,0,2.8,1.1,2.9,3
		c0.1,1.5,0,3.1,0,4.6c0.3,0.2,0.6,0.4,0.8,0.6c0.7-0.6,1.9-1.2,2-1.8c0.2-2.5,0.1-5,0.1-7.5c-9.5,0-18.7,0-28,0
		c0,2.6-0.1,4.9,0.1,7.2c0,0.6,0.7,1.1,1.1,1.7c0.4-0.6,1.1-1.2,1.2-1.8c0.2-1.1-0.3-2.6,0.2-3.4c0.6-1.1,2-2.2,3.1-2.3
		c0.8-0.1,2,1.5,2.5,2.5c0.4,0.9-0.1,2.1,0.2,3.2c0.1,0.7,0.8,1.2,1.2,1.9c0.5-0.7,1.2-1.2,1.4-2c0.2-1-0.2-2.3,0.2-3.2
		c0.5-1,1.8-2.5,2.5-2.4c1.1,0.1,2.3,1.4,2.9,2.4c0.5,0.8-0.1,2.1,0.2,3.2C41.7,52.8,42.5,53.5,43,54.3z M83.4,47.8V35
		c-2.6-0.2-2.2,0.6-2.2,2.1C80.9,47.8,80.9,47.8,83.4,47.8z"/>
	<path class="st59" d="M41.6,54.1h-6V48c0-1,0.8-1.9,1.9-1.9h2.2c1,0,1.9,0.8,1.9,1.9V54.1z"/>
	<path class="st59" d="M33.2,54.1h-6V48c0-1,0.8-1.9,1.9-1.9h2.2c1,0,1.9,0.8,1.9,1.9V54.1z"/>
	<path class="st59" d="M49.9,54.1h-6V48c0-1,0.8-1.9,1.9-1.9h2.2c1,0,1.9,0.8,1.9,1.9V54.1z"/>
	<g>
		<path class="st3" d="M23.2,91.4c-0.4,0-0.9-0.2-1.3-0.3c-0.3-0.1-0.4-0.3-0.6-0.5c-0.1-0.1-0.2-0.3-0.4-0.2
			c-1,0.4-1.8,0.3-2.8,0.1c-0.2-0.2-0.5-0.3-0.7-0.5c-0.3-0.3-0.6-0.6-0.9-1.1c-0.1-0.3-0.4-0.3-0.7-0.3c-0.1,0-0.2,0-0.3,0
			c-0.2,0-0.5,0-0.6-0.2c-0.2-0.1-0.5-0.2-0.6-0.4c0.1-0.4,0.3-0.7,0.4-1.2c0.3-1.2,0.1-2.2-0.6-3.3c0,0,0-0.1-0.1-0.1
			c0-0.5,0.4-0.7,0.9-1.1c0.6-0.5,1.5-0.7,2.3-0.7c0.3,0,0.4-0.1,0.5-0.4c0.4-2.9,3.6-4.5,6.2-3c0,0,0.1,0,0.1,0.1
			c0.4,0.4,0.6,1.1,0.7,1.6c0,0.3,0.2,0.4,0.4,0.5c2.5,0.5,3.8,3.3,2.7,5.6c-0.2,0.4-0.1,0.6,0.2,0.7c0.5,0.3,0.7,1.1,0.6,1.7
			c-0.2,0,0,0.2-0.1,0.3c-0.2,0.9-1.3,1.6-2.1,1.3c-0.3-0.1-0.4,0-0.6,0.2c-0.4,0.7-1.2,1.3-2,1.4C23.5,91.4,23.4,91.4,23.2,91.4z"
			/>
		<path class="st4" d="M1.1,89.1c-0.2-1.1,0.2-1.8,1-2.5c0.2-0.2,0.3-0.3,0.2-0.6c-1.1-2.6-0.3-5.2,2-6.7c0.1-0.1,0.3-0.1,0.3-0.3
			c0.2-0.1,0.4-0.1,0.6-0.2c0.4-0.1,0.9-0.3,1.3-0.3c0.3,0.1,0.6,0.1,1,0c1.2,0,2.1,0.5,3,1.2c0.1,0.1,0.2,0.1,0.2,0.2
			c0.3,0.4,0.6,0.6,1.3,0.3c0.9-0.3,1.5,0.1,1.8,1.1c0,0.1,0,0.1,0,0.2c-0.2,0.5-0.1,1.1,0.2,1.6l0,0c0.6,1.1,0.4,3.2-0.9,4.3
			c-0.6,0.6-1.4,1.1-2.3,1.2c-0.4,0-0.7,0.2-0.9,0.6c-0.4,1.4-2.1,2.1-3.5,1.6c-0.2-0.1-0.4-0.2-0.6-0.2c0,0-0.1,0-0.1-0.1l-0.1-0.1
			C5.4,90,5.3,89.8,5,89.7c-0.3-0.1-0.4,0.2-0.6,0.3c-1,0.4-1.9,0.5-2.8-0.1c-0.1,0-0.3-0.3-0.3-0.6C1.2,89.2,1.2,89.1,1.1,89.1
			c0.1,0,0.1-0.1,0-0.1C1.2,89,1.2,89,1.1,89.1z"/>
		<path class="st5" d="M13.7,81.4c-0.1-0.1-0.1-0.2-0.2-0.3c-0.4-0.7-1.1-1-1.8-0.5c-0.3,0.2-0.4,0.1-0.6-0.1
			c-1-1.1-2.1-1.7-3.5-1.8c-0.3,0.1-0.6,0-1,0c-0.5,0-1,0.2-1.4,0.3c-0.1-0.2,0-0.4,0.1-0.6c0.9-1.9,2.5-2.8,4.7-2.5
			c0.4,0.1,0.5,0,0.6-0.4c1.1-2.9,4.7-3.6,6.7-1.5c0.2,0.2,0.2,0.4,0.4,0.5c0.1,0,0.3,0,0.4,0c0.1,0.2-0.3,0.1-0.2,0.3
			c0.2,0.3,0.2,0.9,0.7,0.9c0.5,0.1,1,0.1,1.4,0.4c0.1,0.1,0.4,0.1,0.3,0.4c-0.2,0.1-0.4,0.1-0.6,0.2c-1.7,0.5-2.7,1.6-2.9,3.4
			c0,0.3-0.1,0.5-0.4,0.4c-0.9-0.1-1.6,0.1-2.3,0.6C14,81.3,13.9,81.4,13.7,81.4z"/>
		<path class="st6" d="M17,95.2c0,0.1,0,0.3-0.1,0.4c-0.1,0.4-0.1,0.9,0,1.3c0.1,0.1,0.1,0.2,0.1,0.3c-0.1,0.4,0,0.7,0.2,1.1
			c0.3,1.2,0.9,2.3,1.4,3.4c0,0.2,0.1,0.4,0.2,0.6c0.3,0.3,0.4,0.7,0.5,1.1c-0.2,0.1-0.4,0-0.5,0.1c-0.3-0.1-0.6-0.2-1-0.2
			c-0.2-0.1-0.3-0.1-0.5,0c-0.2,0.2-0.1,0.6-0.5,0.7c-0.2,0-0.4-0.1-0.6,0c-0.3,0-0.6-0.1-0.9-0.3c-0.2-0.2-0.3-0.2-0.5-0.2
			c-0.4-0.1-0.7,0-1.2,0c-0.1-0.1-0.3,0-0.4,0l0,0l0,0c-0.1,0.1-0.2,0.1-0.3,0.1c-0.3,0-0.6,0-1,0c-0.3-0.1-0.2-0.3-0.1-0.4
			c0.2-0.7,0.5-1.6,0.9-2.3c0.4-1.2,0.7-2.2,1-3.4c0.1-0.4,0.1-0.4,0-0.9c-0.1-0.2-0.1-0.3-0.1-0.5c0-0.1,0.1-0.3,0-0.4
			c-0.1-0.4-0.2-0.9-0.3-1.4c-0.1-0.3-0.2-0.6-0.3-1c-0.2-0.4-0.4-0.9-0.5-1.3c0-0.2,0-0.3-0.2-0.3c-0.1-0.1-0.3-0.3-0.2-0.5
			c0.4-0.1,0.9-0.2,1.2-0.4c0.1,0,0.2,0,0.3,0.1c0.1,0,0.3,0.2,0.4,0c0.4-0.2,0.6-0.6,1.1-1c0.3,0.1,0.6,0.2,1,0.3
			c0.1,0.2,0.1,0.4,0,0.6c0,0.1-0.1-0.1-0.2,0.1c-0.1,0.4,0.1,1,0,1.4l0,0l0,0c0.3,0.3,0.3,0.3,0.6,0c0.2-0.3,0.3-0.7,0.6-1
			c0.1-0.1,0.2-0.1,0.3,0c0.2,0.2,0.5,0.3,0.6,0.6c0,0.1,0,0.2,0,0.3c-0.1,0.2-0.2,0.4-0.2,0.6v0.1c-0.2,0.1-0.2,0.2-0.1,0.3
			c-0.1,0.4-0.2,1-0.3,1.4C16.9,94.9,17,95.1,17,95.2z"/>
		<path class="st7" d="M17.8,74.5c-0.5-0.4-1-0.9-1.6-1.2c-1.5-0.9-3.8-0.3-4.8,1c-0.3,0.4-0.6,1-0.7,1.5c-0.1,0.2-0.1,0.3-0.4,0.2
			C8,75.4,6,76.5,5.3,78.6c0,0,0,0.1-0.1,0.1c-0.2,0.1-0.3,0.3-0.5,0.1c-0.2-2,1.1-3.9,3.3-4.4c0.1,0,0.2,0,0.4,0
			c0.2,0.1,0.3,0.1,0.5,0c0.2-0.1,0.5,0,0.7,0.1c0.3,0.1,0.4,0.1,0.6-0.3c0.3-0.9,0.9-1.6,1.6-2.1c0.2,0,0.3-0.1,0.4-0.2
			c0.3-0.2,0.7-0.3,1.1-0.3c0.4,0.1,0.7,0.1,1.2,0C16.2,71.9,17.2,72.9,17.8,74.5z"/>
		<path class="st8" d="M12,91.9c0.1,0.4,0.4,0.9,0.5,1.4c-0.3,0-0.5-0.3-0.7-0.4c-0.2,0-0.3,0.2-0.4,0.3c-0.6,0.5-1.3,0.9-2,0.9
			C9,94,8.8,94,8.5,94.1c-1.9-0.2-3-1.3-3.5-3c0.2-0.4,0.5-0.6,0.9-0.5l0,0c0.2,0.1,0.3,0.2,0.4,0.3c1.3,1.2,3,1,3.9-0.5
			c0.1-0.2,0.2-0.3,0.3-0.5c0.5,0.2,0.9,0.7,1,1.3c0.1,0.2,0.1,0.3,0.3,0.5C12,91.7,12,91.8,12,91.9z"/>
		<path class="st9" d="M13.7,81.4c0.9-0.6,1.8-1.1,2.9-1c0.3,0,0.2-0.1,0.2-0.3c0.1-1.8,1.3-3.1,3-3.6c0.4,0.1,0.9-0.1,1.4-0.1h0.1
			c0.1,0,0.2,0,0.3,0.1c0.2,0.1,0.3,0.2,0.5,0.1c0.1,0,0.3,0.1,0.4,0.2C22.7,77,22.8,77,23,77c0.3,0.2,0.7,0.5,1,0.9
			c-0.2,0.1-0.3,0-0.4-0.1c-2.3-1.3-5.4,0.3-5.8,3c0,0.3,0,0.6-0.6,0.6c-1.1,0-2.1,0.3-2.9,1.3c-0.1,0.1-0.2,0.2-0.2,0.4
			c-0.1-0.2-0.2-0.4-0.4-0.5c-0.1-0.1-0.1-0.2-0.1-0.3C13.7,82,13.7,81.7,13.7,81.4z"/>
		<path class="st10" d="M17.4,93C17.4,93,17.4,92.9,17.4,93c-0.1-0.3,0.1-0.5,0.1-0.7c0.1-0.1,0.1-0.2,0.1-0.3c0-0.2,0-0.4,0.1-0.6
			c0-0.1,0.1-0.3,0.1-0.4c0.1-0.2,0-0.4,0.2-0.5c0.3-0.2,0.6,0.1,0.9,0.1c0.6,0.1,1.3,0,1.8-0.2c0.3-0.1,0.4-0.1,0.6,0.2
			c0.1,0.2,0.4,0.4,0.5,0.6c0,0.2,0.1,0.5-0.1,0.7c0,0,0-0.1-0.1-0.1c0,0.1,0,0.2,0,0.3c-0.3,1-0.9,1.6-1.8,1.8c-0.1,0-0.1,0-0.2,0
			h-0.1h0.1c-1,0.3-1.7-0.1-2.3-0.6C17.4,93.1,17.3,93.1,17.4,93L17.4,93z"/>
		<path class="st7" d="M21.3,76.5h-0.1c-0.2,0.1-0.4,0.1-0.6,0c-0.4-0.3-1-0.5-1.6-0.5c-0.4-0.1-1.1-0.6-1.1-1.2
			c0-0.2,0.3,0,0.4-0.2c0.7,0.1,1.5,0.3,2.1,0.9C20.6,75.7,21,76.1,21.3,76.5z"/>
		<path class="st11" d="M5.9,90.6c-0.4-0.1-0.6,0.3-0.9,0.5c-0.2,0.1-0.4,0.1-0.6,0.2c-0.4,0-0.7,0-1.2,0c-0.1,0-0.3-0.1-0.4-0.1
			c-0.2-0.1-0.3-0.3-0.5-0.3c-0.2-0.1-0.4-0.2-0.4-0.5c0.1,0,0.2,0,0.4,0.1c1.1,0.4,1.9,0.3,2.8-0.4c0.2-0.2,0.3-0.2,0.4,0.1
			C5.5,90.1,5.8,90.2,5.9,90.6z"/>
		<path class="st12" d="M3.2,91.2c0.4-0.1,0.7-0.1,1.2,0C3.9,91.4,3.5,91.3,3.2,91.2z"/>
		<path class="st13" d="M17.2,98.3c-0.3-0.3-0.3-0.6-0.2-1.1C17.1,97.6,17.1,97.9,17.2,98.3z"/>
		<path class="st14" d="M16.9,97c-0.2-0.4-0.2-0.9,0-1.3C16.9,96.1,16.9,96.5,16.9,97z"/>
		<path class="st15" d="M14.5,71.6c-0.4,0.1-0.7,0.1-1.2,0C13.7,71.5,14.1,71.5,14.5,71.6z"/>
		<path class="st16" d="M14.6,103.7c0.3-0.1,0.5-0.1,0.5,0.2C15,103.8,14.8,103.7,14.6,103.7z"/>
		<path class="st17" d="M13.3,96.5c0.2,0.3,0,0.6,0.1,1l0,0c0,0,0-0.1-0.1-0.1C13.3,97.2,13.3,96.8,13.3,96.5z"/>
		<path class="st18" d="M2.2,90.8c0.3-0.2,0.4,0.1,0.5,0.3C2.5,91,2.3,90.9,2.2,90.8z"/>
		<path class="st19" d="M11.7,103.7c0.3-0.1,0.6-0.1,1,0C12.3,103.7,12,103.8,11.7,103.7z"/>
		<path class="st20" d="M8.4,94.1c0.3-0.1,0.5-0.1,0.9,0C9,94.1,8.7,94.1,8.4,94.1z"/>
		<path class="st21" d="M18.8,102.4c-0.2-0.2-0.4-0.3-0.2-0.6C18.7,102,18.8,102.2,18.8,102.4z"/>
		<path class="st22" d="M11.4,93.2c0-0.2,0.1-0.4,0.4-0.3C11.6,93,11.5,93.1,11.4,93.2z"/>
		<path class="st23" d="M22.9,77c-0.2,0.2-0.3,0-0.4-0.2C22.7,76.9,22.8,77,22.9,77z"/>
		<path class="st24" d="M22.1,76.7c-0.2,0.1-0.4,0.1-0.5-0.1C21.8,76.6,21.9,76.6,22.1,76.7z"/>
		<path class="st25" d="M17,95.2c-0.1-0.2-0.1-0.4-0.1-0.5s0,0,0.1,0.1C17,94.9,17,95.1,17,95.2z"/>
		<path class="st26" d="M17.2,103.2c0.2-0.1,0.4-0.1,0.5-0.1l0,0l0,0C17.6,103.3,17.4,103.3,17.2,103.2z"/>
		<path class="st27" d="M16,104.1c0.2-0.1,0.4-0.1,0.6,0C16.5,104.1,16.3,104.1,16,104.1z"/>
		<path class="st28" d="M13,103.6C13,103.6,12.7,103.6,13,103.6c0.1-0.1,0.3-0.2,0.4,0C13.3,103.6,13.1,103.6,13,103.6z"/>
		<path class="st29" d="M12.2,71.9c-0.1,0.2-0.2,0.3-0.4,0.2C11.9,72.1,12.1,72,12.2,71.9z"/>
		<path class="st30" d="M18.8,103.6c0.2-0.1,0.4,0,0.5-0.1C19.2,103.8,19,103.6,18.8,103.6z"/>
		<path class="st31" d="M13.2,95.6c0.2,0.1,0.1,0.3,0,0.4C13.2,95.9,13.2,95.8,13.2,95.6z"/>
		<path class="st32" d="M23.2,91.4c0.2-0.1,0.3-0.1,0.5,0C23.5,91.4,23.4,91.4,23.2,91.4z"/>
		<path class="st33" d="M21.8,91.9c-0.1-0.1-0.1-0.2,0-0.4c0,0.1,0,0.2,0.1,0.3C21.8,91.8,21.8,91.8,21.8,91.9z"/>
		<path class="st34" d="M17.4,93v0.1c-0.1,0.1-0.1,0.2-0.1,0.3C17.2,93.2,17.1,93.1,17.4,93z"/>
		<path class="st35" d="M19.8,93.8c-0.1,0-0.1,0-0.3,0c0.2-0.1,0.3-0.1,0.4,0C19.9,93.8,19.9,93.8,19.8,93.8z"/>
		<path class="st36" d="M28.5,88.5c0-0.1,0-0.2,0-0.3c0,0,0-0.1,0.1-0.1v0.1C28.6,88.3,28.6,88.4,28.5,88.5z"/>
		<path class="st37" d="M8.8,74.6c-0.2,0.1-0.3,0.1-0.5,0C8.5,74.6,8.7,74.6,8.8,74.6z"/>
		<path class="st38" d="M1.1,89.1V89c0.1,0,0.1,0,0.1,0.1c0,0.1,0,0.2-0.1,0.3C1.1,89.2,1.1,89.1,1.1,89.1z"/>
		<path class="st11" d="M10.6,89.9c-0.6,1.7-2.3,2.3-3.8,1.5c-0.3-0.2-0.6-0.5-0.9-0.9c0.1-0.1,0.2,0,0.3,0c1.6,0.9,3.5-0.2,3.7-1.7
			c0-0.2,0.2-0.3,0.4-0.3c1.4-0.1,2.5-0.6,3.2-1.8c0.5-0.9,0.6-1.8,0.4-2.9c0-0.2-0.1-0.4-0.1-0.6c0.7,0.7,1,1.8,0.9,2.8
			c-0.1,0.6-0.3,1.3-0.6,1.8c-0.6,1-1.6,1.6-2.8,1.7c-0.2-0.1-0.3-0.2-0.5,0C10.7,89.5,10.8,89.8,10.6,89.9z"/>
		<path class="st10" d="M11.5,89.3c0.7-0.1,1.5-0.4,2-1c0.2-0.2,0.4-0.4,0.7-0.6c0.2,0.1,0.4,0.2,0.5,0.3c0.1,0.6,0.1,1.3-0.3,1.8
			c-0.2,0.4-0.4,0.9-1,1c-0.2,0.1-0.3,0.1-0.5,0c-0.1,0-0.2-0.1-0.3-0.1c-0.7-0.1-1.2-0.7-1.7-1.4c0,0,0-0.1,0-0.2
			C11.3,89.3,11.4,89.2,11.5,89.3z"/>
		<path class="st10" d="M16.7,91.3c-0.2,0.3-0.4,0.7-0.6,1.1c-0.1,0.2-0.2,0.4-0.4,0.4c-0.2,0-0.1-0.3-0.3-0.4c0-0.5-0.2-1,0-1.5
			c0.1-0.2,0.1-0.4,0.1-0.7c-0.2-0.3,0-0.7,0-1.1c0-0.2,0-0.3,0.1-0.5c0-0.1,0.1-0.1,0.1-0.2c0.4-0.1,0.9,0.1,1,0.5
			c0.1,0.4,0.5,0.6,0.7,1C17.3,90.3,17.1,90.9,16.7,91.3z"/>
		<path class="st39" d="M15.6,88.5c-0.1,0.5-0.1,1.1-0.2,1.7c-0.4,0.1-0.6-0.1-1-0.3c0.1-0.6,0.2-1.2,0.3-1.8
			c0.2,0.1,0.4,0.1,0.6,0.2C15.4,88.4,15.6,88.4,15.6,88.5z"/>
		<path class="st39" d="M16.7,91.3c0.2-0.5,0.4-1.1,0.6-1.6c0.2,0.2,0.5,0.3,0.7,0.5c0,0.2,0,0.4-0.1,0.6c-0.1,0.1-0.2,0.2-0.1,0.4
			c-0.1,0.2-0.1,0.4-0.2,0.6c-0.2-0.2-0.5-0.2-0.6-0.5C17,91.3,16.9,91.3,16.7,91.3z"/>
		<path class="st40" d="M15.6,88.5c-0.1,0-0.3,0-0.3-0.2c0.1,0,0.2,0,0.3,0C15.6,88.4,15.6,88.4,15.6,88.5z"/>
		<path class="st41" d="M6.6,78.5c0.3,0,0.6,0,1,0C7.2,78.6,6.9,78.6,6.6,78.5z"/>
		<path class="st42" d="M20.4,76.5c0.2,0,0.4,0,0.6,0c-0.4,0.2-0.9,0.4-1.4,0.1C20,76.5,20.2,76.5,20.4,76.5z"/>
		<path class="st39" d="M11,89.3c0.5,0.5,1,1.1,1.7,1.5c-0.3,0.3-0.7,0.5-1.2,0.4c-0.3-0.4-0.6-0.9-1-1.3c0.1-0.2,0-0.4,0.2-0.6
			C10.8,89.2,10.9,89.2,11,89.3z"/>
		<path class="st43" d="M15.4,90.9c0,0.5,0,1,0,1.5l0,0l0,0c-0.1-0.2-0.2-1.5,0-1.6C15.3,90.8,15.3,90.8,15.4,90.9
			C15.4,90.8,15.4,90.9,15.4,90.9z"/>
		<path class="st44" d="M17.5,92.3c0,0.2-0.1,0.4-0.1,0.6C17.2,92.7,17.4,92.5,17.5,92.3z"/>
		<path class="st45" d="M13.1,90.9c0.2,0,0.3,0,0.5,0C13.4,91,13.2,91,13.1,90.9z"/>
		<path class="st46" d="M12,91.9c-0.1-0.1-0.1-0.2-0.2-0.3C12.1,91.6,12.1,91.7,12,91.9z"/>
		<path class="st47" d="M17.9,91.3c-0.2-0.2-0.1-0.3,0.1-0.4C17.9,91.1,17.9,91.2,17.9,91.3z"/>
		<path class="st48" d="M11,89.3c-0.1,0-0.2,0-0.3,0c0.2-0.3,0.4-0.1,0.6,0C11.4,89.3,11.1,89.3,11,89.3z"/>
	</g>
</g>
</svg>
