<?xml version="1.0" encoding="utf-8"?>
<!-- Generator: Adobe Illustrator 26.0.1, SVG Export Plug-In . SVG Version: 6.00 Build 0)  -->
<!DOCTYPE svg PUBLIC "-//W3C//DTD SVG 1.1//EN" "http://www.w3.org/Graphics/SVG/1.1/DTD/svg11.dtd" [
	<!ENTITY ns_extend "http://ns.adobe.com/Extensibility/1.0/">
	<!ENTITY ns_ai "http://ns.adobe.com/AdobeIllustrator/10.0/">
	<!ENTITY ns_graphs "http://ns.adobe.com/Graphs/1.0/">
	<!ENTITY ns_vars "http://ns.adobe.com/Variables/1.0/">
	<!ENTITY ns_imrep "http://ns.adobe.com/ImageReplacement/1.0/">
	<!ENTITY ns_sfw "http://ns.adobe.com/SaveForWeb/1.0/">
	<!ENTITY ns_custom "http://ns.adobe.com/GenericCustomNamespace/1.0/">
	<!ENTITY ns_adobe_xpath "http://ns.adobe.com/XPath/1.0/">
]>
<svg version="1.1" id="Layer_1" xmlns:x="&ns_extend;" xmlns:i="&ns_ai;" xmlns:graph="&ns_graphs;"
	 xmlns="http://www.w3.org/2000/svg" xmlns:xlink="http://www.w3.org/1999/xlink" x="0px" y="0px" viewBox="0 0 125 110"
	 style="enable-background:new 0 0 125 110;" xml:space="preserve">
<style type="text/css">
	.st0{fill:#1B2743;}
	.st1{fill:#ACDBF5;}
	.st2{fill:#8ECEEF;}
	.st3{fill:#4E833D;}
	.st4{fill:#66A042;}
	.st5{fill:#346531;}
	.st6{fill:#8B603D;}
	.st7{fill:#3B773A;}
	.st8{fill:#305427;}
	.st9{fill:#599742;}
	.st10{fill:#315427;}
	.st11{fill:#609540;}
	.st12{fill:#548C3F;}
	.st13{fill:#865C3C;}
	.st14{fill:#7F512C;}
	.st15{fill:#296935;}
	.st16{fill:#8A5D38;}
	.st17{fill:#80532C;}
	.st18{fill:#5A903F;}
	.st19{fill:#814E29;}
	.st20{fill:#22411D;}
	.st21{fill:#815732;}
	.st22{fill:#2A4A22;}
	.st23{fill:#549040;}
	.st24{fill:#509241;}
	.st25{fill:#82522A;}
	.st26{fill:#835028;}
	.st27{fill:#804F23;}
	.st28{fill:#80522C;}
	.st29{fill:#327037;}
	.st30{fill:#824F25;}
	.st31{fill:#84532B;}
	.st32{fill:#3B783A;}
	.st33{fill:#27451F;}
	.st34{fill:#81552D;}
	.st35{fill:#27441F;}
	.st36{fill:#427939;}
	.st37{fill:#266A35;}
	.st38{fill:#5B9742;}
	.st39{fill:#7A5636;}
	.st40{fill:#82533D;}
	.st41{fill:#6DA743;}
	.st42{fill:#599942;}
	.st43{fill:#8E603E;}
	.st44{fill:#946041;}
	.st45{fill:#946042;}
	.st46{fill:#96603E;}
	.st47{fill:#82563D;}
	.st48{fill:#5F9B42;}
	.st49{fill:#4FC2F5;}
	.st50{fill:#47AEDC;}
	.st51{fill:#172238;}
	.st52{fill:#A3948E;}
	.st53{fill:#ABABAB;}
	.st54{fill:#BEBEBE;}
	.st55{fill:#D8D8D8;}
	.st56{fill:#B9B9B9;}
	.st57{fill:#FEE041;}
	.st58{fill:#FFFFFF;}
	.st59{fill:#FEE041;stroke:#1B2743;stroke-miterlimit:10;}
</style>
<metadata>
	<sfw  xmlns="&ns_sfw;">
		<slices></slices>
		<sliceSourceBounds  bottomLeftOrigin="true" height="16383" width="555.3" x="-102.5" y="-8430"></sliceSourceBounds>
	</sfw>
</metadata>
<g>
	<g>
		<path class="st3" d="M70.8,15.7c-0.3,0-0.6-0.2-1-0.2c-0.2-0.1-0.3-0.2-0.5-0.4c-0.1-0.1-0.2-0.2-0.3-0.2
			c-0.7,0.3-1.4,0.2-2.1,0.1c-0.2-0.2-0.4-0.2-0.6-0.4c-0.2-0.2-0.5-0.5-0.6-0.8c-0.1-0.2-0.3-0.2-0.6-0.2c-0.1,0-0.2,0-0.2,0
			c-0.2,0-0.4,0-0.5-0.2c-0.2-0.1-0.4-0.2-0.5-0.3c0.1-0.3,0.2-0.6,0.3-0.9c0.2-0.9,0.1-1.7-0.5-2.5c0,0,0-0.1-0.1-0.1
			c0-0.4,0.3-0.6,0.6-0.8c0.5-0.4,1.1-0.6,1.8-0.6c0.2,0,0.3-0.1,0.4-0.3c0.3-2.2,2.7-3.4,4.6-2.2c0,0,0.1,0,0.1,0.1
			c0.3,0.3,0.5,0.8,0.6,1.2c0,0.2,0.2,0.3,0.3,0.4c1.8,0.4,2.9,2.5,2,4.2c-0.2,0.3-0.1,0.5,0.2,0.6c0.4,0.2,0.6,0.8,0.5,1.3
			c-0.2,0,0,0.2-0.1,0.2c-0.2,0.6-1,1.2-1.6,1c-0.2-0.1-0.3,0-0.5,0.2c-0.3,0.6-0.9,1-1.5,1C71,15.7,70.9,15.7,70.8,15.7z"/>
		<path class="st4" d="M54.2,13.9c-0.2-0.8,0.2-1.4,0.7-1.8c0.2-0.2,0.2-0.2,0.2-0.5c-0.8-1.9-0.2-3.9,1.5-5
			c0.1-0.1,0.2-0.1,0.2-0.2c0.2-0.1,0.3-0.1,0.5-0.2c0.3-0.1,0.6-0.2,1-0.2C58.6,6,58.8,6,59,5.9c0.9,0,1.6,0.4,2.2,0.9
			c0.1,0.1,0.2,0.1,0.2,0.2c0.2,0.3,0.5,0.5,1,0.2C63,7,63.5,7.3,63.8,8c0,0.1,0,0.1,0,0.2c-0.2,0.4-0.1,0.8,0.2,1.2l0,0
			c0.5,0.8,0.3,2.4-0.6,3.2c-0.5,0.5-1,0.8-1.8,0.9c-0.3,0-0.6,0.2-0.6,0.5c-0.3,1-1.6,1.6-2.6,1.2c-0.2-0.1-0.3-0.2-0.5-0.2
			c0,0-0.1,0-0.1-0.1l-0.1-0.1c-0.2-0.2-0.2-0.3-0.5-0.4c-0.2-0.1-0.3,0.2-0.5,0.2c-0.7,0.3-1.4,0.4-2.1-0.1c-0.1,0-0.2-0.2-0.2-0.5
			C54.3,14,54.3,13.9,54.2,13.9C54.3,13.9,54.3,13.9,54.2,13.9C54.3,13.9,54.3,13.9,54.2,13.9z"/>
		<path class="st5" d="M63.7,8.2c-0.1-0.1-0.1-0.2-0.2-0.2c-0.3-0.6-0.8-0.7-1.4-0.4c-0.2,0.2-0.3,0.1-0.5-0.1
			C61,6.7,60.1,6.2,59,6.1c-0.2,0.1-0.5,0-0.7,0c-0.4,0-0.7,0.2-1,0.2c-0.1-0.2,0-0.3,0.1-0.5C58,4.4,59.2,3.8,60.9,4
			c0.3,0.1,0.4,0,0.5-0.3c0.8-2.2,3.5-2.7,5-1.1c0.2,0.2,0.2,0.3,0.3,0.4c0.1,0,0.2,0,0.3,0c0.1,0.2-0.2,0.1-0.2,0.2
			C67,3.5,67,3.9,67.4,3.9c0.4,0.1,0.7,0.1,1,0.3c0.1,0.1,0.3,0.1,0.2,0.3c-0.2,0.1-0.3,0.1-0.5,0.2c-1.3,0.4-2,1.2-2.2,2.6
			c0,0.2-0.1,0.4-0.3,0.3C65.1,7.5,64.6,7.6,64,8C63.9,8.1,63.8,8.2,63.7,8.2z"/>
		<path class="st6" d="M66.2,18.6c0,0.1,0,0.2-0.1,0.3c-0.1,0.3-0.1,0.6,0,1c0.1,0.1,0.1,0.2,0.1,0.2c-0.1,0.3,0,0.6,0.2,0.8
			c0.2,0.9,0.6,1.8,1,2.6c0,0.2,0.1,0.3,0.2,0.5c0.2,0.2,0.3,0.6,0.4,0.8c-0.2,0.1-0.3,0-0.4,0.1c-0.2-0.1-0.5-0.2-0.7-0.2
			c-0.2-0.1-0.2-0.1-0.4,0c-0.2,0.2-0.1,0.5-0.4,0.6c-0.2,0-0.3-0.1-0.5,0c-0.2,0-0.5-0.1-0.6-0.2c-0.2-0.2-0.2-0.2-0.4-0.2
			c-0.3-0.1-0.6,0-0.9,0c-0.1-0.1-0.2,0-0.3,0l0,0l0,0c-0.1,0.1-0.2,0.1-0.2,0.1c-0.2,0-0.5,0-0.7,0c-0.2-0.1-0.2-0.2-0.1-0.3
			c0.2-0.6,0.4-1.2,0.6-1.8c0.3-0.9,0.6-1.7,0.7-2.6c0.1-0.3,0.1-0.3,0-0.6c-0.1-0.2-0.1-0.2-0.1-0.4c0-0.1,0.1-0.2,0-0.3
			c-0.1-0.3-0.2-0.6-0.2-1c-0.1-0.2-0.2-0.5-0.2-0.7c-0.2-0.3-0.3-0.6-0.4-1c0-0.2,0-0.2-0.2-0.2c-0.1-0.1-0.2-0.2-0.2-0.4
			c0.3-0.1,0.6-0.2,0.9-0.3c0.1,0,0.2,0,0.2,0.1c0.1,0,0.2,0.2,0.3,0c0.3-0.2,0.5-0.5,0.8-0.7c0.2,0.1,0.5,0.2,0.7,0.2
			c0.1,0.2,0.1,0.3,0,0.5c0,0.1-0.1-0.1-0.2,0.1c-0.1,0.3,0.1,0.7,0,1l0,0l0,0c0.2,0.2,0.2,0.2,0.5,0c0.2-0.2,0.2-0.6,0.5-0.7
			c0.1-0.1,0.2-0.1,0.2,0c0.2,0.2,0.4,0.2,0.5,0.5c0,0.1,0,0.2,0,0.2c-0.1,0.2-0.2,0.3-0.2,0.5V17c-0.2,0.1-0.2,0.2-0.1,0.2
			c-0.1,0.3-0.2,0.7-0.2,1C66.1,18.3,66.2,18.5,66.2,18.6z"/>
		<path class="st7" d="M66.7,3c-0.4-0.3-0.7-0.6-1.2-0.9c-1.1-0.6-2.9-0.2-3.6,0.7c-0.2,0.3-0.5,0.7-0.6,1.1
			c-0.1,0.2-0.1,0.2-0.3,0.2c-1.7-0.4-3.1,0.4-3.7,2c0,0,0,0.1-0.1,0.1c-0.2,0.1-0.2,0.2-0.4,0.1c-0.2-1.5,0.8-3,2.5-3.3
			c0.1,0,0.2,0,0.3,0c0.2,0.1,0.2,0.1,0.4,0c0.2-0.1,0.4,0,0.6,0.1c0.2,0.1,0.3,0.1,0.5-0.2c0.2-0.6,0.6-1.2,1.2-1.6
			c0.2,0,0.2-0.1,0.3-0.2c0.2-0.2,0.6-0.2,0.8-0.2c0.3,0.1,0.6,0.1,0.9,0C65.5,1.1,66.3,1.8,66.7,3z"/>
		<path class="st8" d="M62.4,16.1c0.1,0.3,0.3,0.6,0.4,1c-0.2,0-0.4-0.2-0.6-0.3c-0.2,0-0.2,0.2-0.3,0.2c-0.5,0.4-1,0.6-1.5,0.6
			c-0.2-0.1-0.4-0.1-0.6,0c-1.4-0.2-2.2-1-2.6-2.2c0.2-0.3,0.4-0.5,0.6-0.4l0,0c0.2,0.1,0.2,0.2,0.3,0.2c1,0.9,2.2,0.7,3-0.4
			c0.1-0.2,0.2-0.2,0.2-0.4c0.4,0.2,0.6,0.6,0.7,1c0.1,0.2,0.1,0.2,0.2,0.4C62.4,15.9,62.4,16,62.4,16.1z"/>
		<path class="st9" d="M63.7,8.2c0.6-0.5,1.4-0.8,2.2-0.7c0.2,0,0.2-0.1,0.2-0.2c0.1-1.4,1-2.3,2.2-2.7c0.3,0.1,0.6-0.1,1-0.1h0.1
			c0.1,0,0.2,0,0.2,0.1c0.2,0.1,0.2,0.2,0.4,0.1c0.1,0,0.2,0.1,0.3,0.2c0.1,0.2,0.2,0.2,0.3,0.2c0.2,0.2,0.6,0.4,0.7,0.6
			c-0.2,0.1-0.2,0-0.3-0.1c-1.8-1-4.1,0.2-4.3,2.2c0,0.2,0,0.5-0.5,0.5c-0.8,0-1.6,0.2-2.2,1c-0.1,0.1-0.2,0.2-0.2,0.3
			c-0.1-0.2-0.2-0.3-0.3-0.4c-0.1-0.1-0.1-0.2-0.1-0.2C63.7,8.7,63.7,8.4,63.7,8.2z"/>
		<path class="st10" d="M66.5,16.9C66.5,16.9,66.5,16.8,66.5,16.9c-0.1-0.2,0.1-0.4,0.1-0.6c0.1-0.1,0.1-0.2,0.1-0.2
			c0-0.2,0-0.3,0.1-0.5c0-0.1,0.1-0.2,0.1-0.3c0.1-0.2,0-0.3,0.2-0.4c0.2-0.2,0.5,0.1,0.6,0.1c0.5,0.1,1,0,1.4-0.2
			c0.2-0.1,0.3-0.1,0.5,0.2c0.1,0.2,0.3,0.3,0.4,0.5c0,0.2,0.1,0.4-0.1,0.6c0,0,0-0.1-0.1-0.1c0,0.1,0,0.2,0,0.2
			c-0.2,0.7-0.6,1.2-1.4,1.4c-0.1,0-0.1,0-0.2,0h-0.1h0.1c-0.7,0.2-1.3-0.1-1.8-0.5C66.5,17,66.4,17,66.5,16.9L66.5,16.9z"/>
		<path class="st7" d="M69.3,4.5L69.3,4.5c-0.2,0.1-0.4,0.1-0.6,0c-0.3-0.2-0.7-0.4-1.2-0.4c-0.3-0.1-0.8-0.5-0.8-0.9
			c0-0.2,0.2,0,0.3-0.2c0.6,0.1,1.1,0.2,1.6,0.6C68.9,3.9,69.1,4.2,69.3,4.5z"/>
		<path class="st11" d="M57.8,15.1c-0.3-0.1-0.5,0.2-0.6,0.4c-0.2,0.1-0.3,0.1-0.5,0.2c-0.3,0-0.6,0-0.9,0c-0.1,0-0.2-0.1-0.3-0.1
			c-0.2-0.1-0.2-0.2-0.4-0.2c-0.2-0.1-0.3-0.2-0.3-0.4c0.1,0,0.2,0,0.3,0.1c0.8,0.3,1.4,0.2,2.1-0.3c0.2-0.2,0.2-0.2,0.3,0.1
			C57.5,14.7,57.8,14.8,57.8,15.1z"/>
		<path class="st12" d="M55.8,15.5c0.3-0.1,0.6-0.1,0.9,0C56.3,15.7,56,15.6,55.8,15.5z"/>
		<path class="st13" d="M66.3,20.9c-0.2-0.2-0.2-0.5-0.2-0.8C66.2,20.3,66.2,20.6,66.3,20.9z"/>
		<path class="st14" d="M66.1,19.9c-0.2-0.3-0.2-0.6,0-1C66.1,19.2,66.1,19.5,66.1,19.9z"/>
		<path class="st15" d="M64.2,0.8c-0.3,0.1-0.6,0.1-0.9,0C63.7,0.7,64,0.7,64.2,0.8z"/>
		<path class="st16" d="M64.3,24.9c0.2-0.1,0.4-0.1,0.4,0.2C64.6,25,64.5,24.9,64.3,24.9z"/>
		<path class="st17" d="M63.4,19.5c0.2,0.2,0,0.5,0.1,0.7l0,0c0,0,0-0.1-0.1-0.1C63.4,20,63.4,19.8,63.4,19.5z"/>
		<path class="st18" d="M55,15.2c0.2-0.2,0.3,0.1,0.4,0.2C55.3,15.4,55.1,15.3,55,15.2z"/>
		<path class="st19" d="M62.2,24.9c0.2-0.1,0.5-0.1,0.7,0C62.6,24.9,62.4,25,62.2,24.9z"/>
		<path class="st20" d="M59.7,17.7c0.2-0.1,0.4-0.1,0.6,0C60.2,17.7,59.9,17.7,59.7,17.7z"/>
		<path class="st21" d="M67.5,23.9c-0.2-0.2-0.3-0.2-0.2-0.5C67.4,23.6,67.5,23.8,67.5,23.9z"/>
		<path class="st22" d="M61.9,17.1c0-0.2,0.1-0.3,0.3-0.2C62.1,16.9,62,17,61.9,17.1z"/>
		<path class="st23" d="M70.5,4.9c-0.2,0.2-0.2,0-0.3-0.2C70.4,4.8,70.5,4.9,70.5,4.9z"/>
		<path class="st24" d="M70,4.7c-0.2,0.1-0.3,0.1-0.4-0.1C69.7,4.6,69.8,4.6,70,4.7z"/>
		<path class="st25" d="M66.2,18.6c-0.1-0.2-0.1-0.3-0.1-0.4s0,0,0.1,0.1C66.2,18.3,66.2,18.5,66.2,18.6z"/>
		<path class="st26" d="M66.3,24.6c0.2-0.1,0.3-0.1,0.4-0.1l0,0l0,0C66.6,24.7,66.5,24.7,66.3,24.6z"/>
		<path class="st27" d="M65.4,25.2c0.2-0.1,0.3-0.1,0.5,0C65.8,25.2,65.6,25.2,65.4,25.2z"/>
		<path class="st28" d="M63.1,24.8C63.1,24.8,63,24.8,63.1,24.8c0.1-0.1,0.2-0.2,0.3,0C63.4,24.8,63.2,24.8,63.1,24.8z"/>
		<path class="st29" d="M62.6,1.1c-0.1,0.2-0.2,0.2-0.3,0.2C62.3,1.2,62.5,1.1,62.6,1.1z"/>
		<path class="st30" d="M67.5,24.8c0.2-0.1,0.3,0,0.4-0.1C67.8,25,67.7,24.8,67.5,24.8z"/>
		<path class="st31" d="M63.3,18.8c0.2,0.1,0.1,0.2,0,0.3C63.3,19.1,63.3,19,63.3,18.8z"/>
		<path class="st32" d="M70.8,15.7c0.2-0.1,0.2-0.1,0.4,0C71,15.7,70.9,15.7,70.8,15.7z"/>
		<path class="st33" d="M69.7,16.1c-0.1-0.1-0.1-0.2,0-0.3C69.7,15.9,69.7,15.9,69.7,16.1C69.7,16,69.7,16,69.7,16.1z"/>
		<path class="st34" d="M66.5,16.9L66.5,16.9c-0.1,0.2-0.1,0.2-0.1,0.3C66.3,17.1,66.2,17,66.5,16.9z"/>
		<path class="st35" d="M68.2,17.5c-0.1,0-0.1,0-0.2,0C68.1,17.4,68.2,17.4,68.2,17.5C68.3,17.5,68.3,17.5,68.2,17.5z"/>
		<path class="st36" d="M74.8,13.5c0-0.1,0-0.2,0-0.2c0,0,0-0.1,0.1-0.1v0.1C74.9,13.4,74.9,13.5,74.8,13.5z"/>
		<path class="st37" d="M60,3.1c-0.2,0.1-0.2,0.1-0.4,0C59.8,3.1,59.9,3.1,60,3.1z"/>
		<path class="st38" d="M54.2,13.9L54.2,13.9C54.3,13.9,54.3,13.9,54.2,13.9c0.1,0.1,0.1,0.2,0,0.2C54.2,14,54.2,13.9,54.2,13.9z"/>
		<path class="st11" d="M61.4,14.6c-0.5,1.3-1.8,1.8-2.9,1.1c-0.2-0.2-0.5-0.4-0.6-0.6c0.1-0.1,0.2,0,0.2,0c1.2,0.6,2.6-0.2,2.8-1.3
			c0-0.2,0.2-0.2,0.3-0.2c1-0.1,1.8-0.5,2.4-1.4c0.4-0.6,0.5-1.4,0.3-2.2c0-0.2-0.1-0.3-0.1-0.5c0.6,0.6,0.7,1.4,0.6,2.1
			c-0.1,0.5-0.2,1-0.5,1.4c-0.5,0.7-1.2,1.2-2.1,1.3c-0.2-0.1-0.2-0.2-0.4,0C61.4,14.3,61.5,14.5,61.4,14.6z"/>
		<path class="st10" d="M62,14.1c0.6-0.1,1.1-0.3,1.5-0.7c0.2-0.2,0.3-0.3,0.6-0.5c0.2,0.1,0.3,0.2,0.4,0.2c0.1,0.5,0.1,1-0.2,1.4
			c-0.2,0.3-0.3,0.6-0.7,0.7c-0.2,0.1-0.2,0.1-0.4,0c-0.1,0-0.2-0.1-0.2-0.1c-0.6-0.1-0.9-0.6-1.3-1c0,0,0-0.1,0-0.2
			C61.8,14.1,61.9,14,62,14.1z"/>
		<path class="st10" d="M65.9,15.6c-0.2,0.2-0.3,0.6-0.5,0.8c-0.1,0.2-0.2,0.3-0.3,0.3s-0.1-0.2-0.2-0.3c0-0.4-0.2-0.7,0-1.1
			C65,15.1,65,15,65,14.7c-0.2-0.2,0-0.6,0-0.8c0-0.2,0-0.2,0.1-0.4c0-0.1,0.1-0.1,0.1-0.2c0.3-0.1,0.6,0.1,0.7,0.4
			c0.1,0.3,0.4,0.5,0.6,0.7C66.4,14.9,66.2,15.3,65.9,15.6z"/>
		<path class="st39" d="M65.1,13.5C65,13.9,65,14.3,65,14.8c-0.3,0.1-0.5-0.1-0.7-0.2c0.1-0.5,0.2-0.9,0.2-1.4
			c0.2,0.1,0.3,0.1,0.5,0.2C65,13.5,65.1,13.5,65.1,13.5z"/>
		<path class="st39" d="M65.9,15.6c0.2-0.4,0.3-0.8,0.5-1.2c0.2,0.2,0.4,0.2,0.6,0.4c0,0.2,0,0.3-0.1,0.5c-0.1,0.1-0.2,0.2-0.1,0.3
			c-0.1,0.2-0.1,0.3-0.2,0.5c-0.2-0.2-0.4-0.2-0.5-0.4C66.2,15.6,66.1,15.6,65.9,15.6z"/>
		<path class="st40" d="M65.1,13.5c-0.1,0-0.2,0-0.2-0.2c0.1,0,0.2,0,0.2,0C65.1,13.5,65.1,13.5,65.1,13.5z"/>
		<path class="st41" d="M58.3,6c0.2,0,0.5,0,0.7,0C58.8,6.1,58.6,6.1,58.3,6z"/>
		<path class="st42" d="M68.7,4.5c0.2,0,0.3,0,0.5,0c-0.3,0.2-0.6,0.3-1,0.1C68.4,4.5,68.5,4.5,68.7,4.5z"/>
		<path class="st39" d="M61.7,14.1c0.4,0.4,0.7,0.8,1.3,1.1c-0.2,0.2-0.6,0.4-0.9,0.3c-0.2-0.3-0.5-0.6-0.7-1c0.1-0.2,0-0.3,0.2-0.5
			C61.5,14,61.6,14,61.7,14.1z"/>
		<path class="st43" d="M65,15.3c0,0.4,0,0.7,0,1.1l0,0l0,0C64.9,16.3,64.8,15.3,65,15.3C64.9,15.2,64.9,15.2,65,15.3
			C65,15.2,65,15.3,65,15.3z"/>
		<path class="st44" d="M66.5,16.3c0,0.2-0.1,0.3-0.1,0.5C66.3,16.7,66.5,16.5,66.5,16.3z"/>
		<path class="st45" d="M63.2,15.3c0.2,0,0.2,0,0.4,0C63.4,15.4,63.3,15.4,63.2,15.3z"/>
		<path class="st46" d="M62.4,16.1c-0.1-0.1-0.1-0.2-0.2-0.2C62.5,15.9,62.5,15.9,62.4,16.1z"/>
		<path class="st47" d="M66.8,15.6c-0.2-0.2-0.1-0.2,0.1-0.3C66.8,15.5,66.8,15.5,66.8,15.6z"/>
		<path class="st48" d="M61.7,14.1c-0.1,0-0.2,0-0.2,0c0.2-0.2,0.3-0.1,0.5,0C61.9,14.1,61.8,14.1,61.7,14.1z"/>
	</g>
	<path class="st49" d="M58.8,12.6c0,0.7,0,1.5,0,2.2c0,0.9,0,1.9,0,2.8c0,2.4,0,4.7,0,7.1c-0.4,0-0.7,0.1-1.1,0.1
		c-3.7,0-7.4,0-11.1,0c-0.9,0-1.8,0-2.8-0.1c0-2,0-4.1,0-6.1c0-0.8-0.2-1-1-1c-3.1,0-6.1,0-9.2,0c0-1.6,0-3.3,0-4.9
		C42,12.6,50.4,12.6,58.8,12.6z"/>
	<path class="st50" d="M33.7,12.6c0,1.6,0,3.3,0,4.9c0,0,0,0.1,0,0.1c-0.7,0-1.4,0-2.1,0c-0.6,0-0.8,0.2-0.8,0.8c0,2.1,0,4.2,0,6.3
		c-0.3,0-0.6,0-0.9,0.1c-1.8,0-3.6-0.1-5.4-0.1c0-4,0-8.1,0-12.1C27.6,12.6,30.6,12.6,33.7,12.6z"/>
	<path class="st0" d="M93.2,31.6c0,0.4,0,0.8,0,1.2c0,23.5,0,47,0,70.5c0,1.2,0,1.2-1.2,1.2c-8,0-16.1,0-24.1,0c0-5.9,0-11.8,0-17.7
		c0-0.6-0.2-0.7-0.7-0.7c-5.6,0-11.2,0-16.8,0c-0.5,0-0.7,0.1-0.7,0.7c0,5.9,0,11.8,0,17.7c-5.3,0-10.7,0-16,0c0-3.1,0-6.2,0-9.3
		c3.1,0,6.2,0,9.3,0c0.8,0,1-0.2,0.9-1c0-1.6,0-3.2,0-4.7c0-0.7-0.2-1-0.9-1c-3.1,0-6.2,0-9.3,0c0-0.9,0-1.8,0-2.7
		c3.1,0,6.2,0,9.3,0c0.7,0,0.9-0.2,0.9-0.9c-0.1-1.2-0.1-2.4,0-3.6c0-0.7-0.2-0.9-0.9-0.9c-3.1,0-6.2,0-9.3,0c0-0.9,0-1.8,0-2.7
		c3.1,0,6.3,0,9.4,0c0.6,0,0.8-0.2,0.8-0.8c0-1.2-0.1-2.5,0-3.7c0-0.7-0.2-0.9-0.9-0.9c-3.1,0-6.2,0-9.3,0c0-0.9,0-1.8,0-2.7
		c3.1,0,6.3,0,9.4,0c0.6,0,0.8-0.2,0.8-0.8c0-1.2,0-2.5,0-3.7c0-0.7-0.2-0.9-0.9-0.9c-3.1,0-6.2,0-9.3,0c0-0.9,0-1.8,0-2.7
		c3.1,0,6.2,0,9.3,0c0.8,0,1-0.2,0.9-1c-0.1-1.1-0.1-2.2,0-3.3c0-0.7-0.2-1-0.9-1c-3.1,0-6.2,0-9.3,0c0-1,0-1.9,0-2.9
		c3.1,0,6.2,0,9.3,0c0.8,0,1-0.2,0.9-1c-0.1-1.1-0.1-2.2,0-3.3c0-0.7-0.2-1-0.9-1c-3.1,0-6.2,0-9.3,0c0-1,0-1.9,0-2.9
		c3.1,0,6.2,0,9.3,0c0.8,0,1-0.2,0.9-1c-0.1-1.5-0.1-3.1,0-4.7c0-0.8-0.2-1.1-1-1.1c-3.1,0.1-6.1,0-9.2,0c0-2.4,0-4.8,0-7.2
		c0.1,0,0.2,0,0.3,0C53.7,31.6,73.5,31.6,93.2,31.6z M80.3,88.5c-1.9,0-3.9,0-5.8,0c-0.6,0-0.8,0.2-0.8,0.8c0,1.7,0,3.5,0,5.2
		c0,0.6,0.2,0.7,0.7,0.7c3.9,0,7.8,0,11.6,0c0.5,0,0.7-0.1,0.7-0.7c0-1.7,0-3.5,0-5.2c0-0.6-0.2-0.8-0.8-0.8
		C84.1,88.5,82.2,88.5,80.3,88.5z M80.3,38.8c-1.9,0-3.9,0-5.8,0c-0.6,0-0.8,0.1-0.8,0.8c0,1.7,0,3.5,0,5.2c0,0.6,0.2,0.7,0.7,0.7
		c3.9,0,7.8,0,11.6,0c0.5,0,0.7-0.1,0.7-0.7c0-1.7,0-3.5,0-5.2c0-0.6-0.2-0.8-0.8-0.8C84.1,38.8,82.2,38.8,80.3,38.8z M58.8,45.4
		c1.9,0,3.9,0,5.8,0c0.6,0,0.8-0.2,0.8-0.8c0-1.7,0-3.4,0-5.1c0-0.6-0.1-0.8-0.8-0.8c-3.9,0-7.8,0-11.6,0c-0.5,0-0.7,0.2-0.7,0.7
		c0,1.7,0,3.4,0,5.1c0,0.7,0.3,0.8,0.9,0.8C55.1,45.4,57,45.4,58.8,45.4z M58.9,79c1.9,0,3.9,0,5.8,0c0.5,0,0.7-0.2,0.7-0.7
		c0-1.7,0-3.4,0-5.1c0-0.6-0.3-0.8-0.9-0.8c-3.8,0-7.6,0-11.5,0c-0.7,0-0.8,0.3-0.8,0.8c0,1.7,0,3.3,0,5c0,0.6,0.2,0.8,0.8,0.8
		C55,78.9,57,79,58.9,79z M80.3,80.4c-2,0-3.9,0-5.9,0c-0.5,0-0.7,0.2-0.7,0.7c0,1.3,0,2.6,0,3.9c0,0.5,0.1,0.7,0.7,0.7
		c3.9,0,7.8,0,11.7,0c0.5,0,0.7-0.2,0.7-0.7c0-1.3,0-2.6,0-3.8c0-0.7-0.2-0.9-0.8-0.9C84.1,80.4,82.2,80.4,80.3,80.4z M80.1,77.7
		c2,0,3.9,0,5.9,0c0.5,0,0.8-0.1,0.7-0.7c0-1.3,0-2.7,0-4c0-0.5-0.2-0.7-0.7-0.7c-3.9,0-7.8,0-11.7,0c-0.6,0-0.7,0.2-0.7,0.7
		c0,1.3,0,2.6,0,3.9c0,0.6,0.2,0.7,0.7,0.7C76.3,77.7,78.2,77.7,80.1,77.7z M58.8,69.6c2,0,3.9,0,5.9,0c0.5,0,0.7-0.2,0.7-0.7
		c0-1.3,0-2.6,0-3.9c0-0.6-0.2-0.8-0.9-0.8c-3.8,0-7.6,0-11.5,0c-0.6,0-0.8,0.1-0.8,0.7c0,1.3,0,2.6,0,3.9c0,0.6,0.2,0.7,0.7,0.7
		C55,69.6,56.9,69.6,58.8,69.6z M80.1,69.6c2,0,3.9,0,5.9,0c0.5,0,0.8-0.1,0.7-0.7c0-1.3,0-2.6,0-3.9c0-0.6-0.2-0.7-0.8-0.7
		c-3.8,0-7.6,0-11.4,0c-0.7,0-1,0.2-0.9,0.9c0,1.2,0,2.4,0,3.7c0,0.6,0.2,0.8,0.8,0.8C76.4,69.6,78.2,69.6,80.1,69.6z M58.8,53.5
		c1.9,0,3.9,0,5.8,0c0.6,0,0.8-0.2,0.8-0.8c0-1.3,0-2.5,0-3.8c0-0.6-0.2-0.7-0.7-0.7c-3.9,0-7.8,0-11.6,0c-0.5,0-0.7,0.1-0.7,0.7
		c0,1.3,0,2.5,0,3.8c0,0.6,0.2,0.8,0.8,0.8C55,53.5,56.9,53.5,58.8,53.5z M80.1,61.6c2,0,3.9,0,5.9,0c0.5,0,0.8-0.1,0.7-0.7
		c0-1.3,0-2.6,0-3.9c0-0.5-0.2-0.7-0.7-0.7c-3.9,0-7.8,0-11.7,0c-0.6,0-0.7,0.2-0.7,0.8c0,1.2,0,2.4,0,3.7c0,0.6,0.2,0.8,0.8,0.8
		C76.4,61.5,78.2,61.6,80.1,61.6z M80.2,53.5c1.9,0,3.9,0,5.8,0c0.6,0,0.8-0.2,0.8-0.8c0-1.2,0-2.4,0-3.7c0-0.6-0.2-0.8-0.8-0.8
		c-3.9,0-7.8,0-11.6,0c-0.6,0-0.7,0.2-0.7,0.7c0,1.2,0,2.4,0,3.6c0,0.7,0.2,0.9,0.9,0.9C76.4,53.4,78.3,53.5,80.2,53.5z M58.9,61.6
		c1.9,0,3.9,0,5.8,0c0.5,0,0.8-0.1,0.7-0.7c0-1.3,0-2.6,0-3.9c0-0.5-0.2-0.7-0.7-0.7c-3.9,0-7.8,0-11.7,0c-0.6,0-0.7,0.2-0.7,0.7
		c0,1.2,0,2.4,0,3.7c0,0.6,0.2,0.8,0.8,0.8C55,61.5,56.9,61.6,58.9,61.6z"/>
	<path class="st51" d="M33.7,69.6c0,0.9,0,1.8,0,2.7c0,0,0,0,0,0c-0.7,0-1.5,0-2.2,0c-0.4,0-0.7,0.1-0.7,0.6c0,1.4,0,2.8,0,4.2
		c0,0.5,0.2,0.6,0.7,0.6c0.7,0,1.5,0,2.2,0l0,0c0,0.9,0,1.8,0,2.7l0,0c-0.7,0-1.5,0-2.2,0c-0.4,0-0.7,0.1-0.7,0.6c0,1.4,0,2.8,0,4.2
		c0,0.5,0.2,0.6,0.7,0.6c0.7,0,1.5,0,2.2,0c0,0,0,0,0,0c0,0.9,0,1.8,0,2.7l0,0c-0.7,0-1.4,0-2.1,0c-0.5,0-0.8,0.1-0.7,0.7
		c0,1.8,0,3.5,0,5.3c0,0.6,0.2,0.7,0.7,0.7c0.7,0,1.4,0,2.1,0l0,0c0,3.1,0,6.2,0,9.3c-2.8,0-5.7,0-8.5,0c-0.5,0-0.7-0.2-0.7-0.7
		c0-0.1,0-0.2,0-0.4c0-23.9,0-47.9,0-71.8c1.8,0,3.6,0,5.4-0.1c1.3,0,2.5,0,3.8,0.1c0,2.4,0,4.8,0,7.2l0,0c-0.7,0-1.4,0-2.1,0
		c-0.5,0-0.8,0.1-0.7,0.7c0,1.8,0,3.5,0,5.3c0,0.6,0.2,0.7,0.7,0.7c0.7,0,1.4,0,2.1,0l0,0c0,1,0,1.9,0,2.9l0,0c-0.7,0-1.4,0-2.1,0
		c-0.5,0-0.8,0.1-0.7,0.7c0,1.3,0,2.6,0,3.8c0,0.6,0.2,0.7,0.7,0.7c0.7,0,1.4,0,2.1,0l0,0c0,1,0,1.9,0,2.9l0,0c-0.7,0-1.4,0-2.1,0
		c-0.5,0-0.8,0.1-0.7,0.7c0,1.3,0,2.6,0,3.8c0,0.6,0.2,0.7,0.7,0.7c0.7,0,1.4,0,2.1,0l0,0c0,0.9,0,1.8,0,2.7l0,0c-0.7,0-1.4,0-2.1,0
		c-0.5,0-0.8,0.1-0.8,0.7c0,1.3,0,2.7,0,4c0,0.6,0.2,0.7,0.7,0.7C32.2,69.6,32.9,69.6,33.7,69.6L33.7,69.6z"/>
	<path class="st0" d="M33.7,31.6c-1.3,0-2.5,0-3.8-0.1c0-2.3,0-4.5,0-6.8c0.3,0,0.6,0,0.9-0.1c1,0.1,1.9,0.1,2.9,0
		c3.4,0.1,6.8,0.1,10.2,0c0.9,0,1.8,0.1,2.8,0.1c3.7,0,7.4,0,11.1,0c0.4,0,0.7,0,1.1-0.1c1.8,0.1,3.7,0.1,5.5,0
		c0.9,0.1,1.9,0.1,2.8,0c1.3,0,2.7,0,4,0c0.9,0.1,1.9,0.1,2.8,0c1.3,0.1,2.7,0.1,4,0c1,0.1,2,0.1,3,0c1.3,0,2.7,0.1,4,0
		c0.9,0.2,1.9,0.1,2.8,0c1.3,0,2.7,0,4,0c0.9,0.1,1.9,0.1,2.8,0c0.2,0,0.4,0.1,0.5,0.1c1.9,0,1.9,0,1.9,1.9c0,1.4,0,2.7,0,4.1
		c0,0.6-0.1,0.9-0.8,0.9c-1-0.1-2,0-2.9,0c-19.8,0-39.5,0-59.3,0C33.8,31.6,33.8,31.6,33.7,31.6z"/>
	<path class="st52" d="M58.8,17.6c0-0.9,0-1.9,0-2.8c12.5,0,24.9,0,37.4,0c1.4,0,2.2,0.5,2.2,1.5c0,0.9-0.7,1.4-2.1,1.4
		c-0.6,0-1.1,0-1.7,0c-0.9,0-1.8,0-2.8,0c-1.4,0-2.7,0-4.1,0c-0.9,0-1.8,0-2.8,0c-1.4,0-2.7,0-4.1,0c-1,0-1.9,0-2.9,0
		c-1.4,0-2.7,0-4.1,0c-0.9,0-1.8,0-2.8,0c-1.4,0-2.7,0-4.1,0c-0.9,0-1.8,0-2.7,0C62.5,17.6,60.6,17.6,58.8,17.6z"/>
	<path class="st51" d="M33.7,24.8c0,2.3,0,4.5,0,6.8c-2.5,0-5.1,0-7.6,0.1c-1.5,0-3-0.1-4.5,0c-0.7,0-0.9-0.2-0.9-0.7
		c0-1.9,0.1-3.7,0-5.6c0-0.5,0.3-0.7,1-0.6c1.5,0,2.9,0,4.4,0C28.6,24.7,31.1,24.7,33.7,24.8z"/>
	<path class="st53" d="M91.8,17.6c0.9,0,1.8,0,2.8,0c0,1.5,0,3.1,0,4.6c-0.9,0-1.8,0-2.7,0C91.8,20.7,91.8,19.2,91.8,17.6z"/>
	<path class="st54" d="M91.8,22.3c0.9,0,1.8,0,2.7,0c0,0.8,0,1.6,0.1,2.4c-0.9,0.2-1.9,0.1-2.8,0C91.8,23.9,91.8,23.1,91.8,22.3z"/>
	<path class="st55" d="M43.9,24.7c-3.4,0.1-6.8,0.1-10.2,0c0-2.4,0-4.7,0-7.1c0,0,0-0.1,0-0.1c3.1,0,6.1,0.1,9.2,0
		c0.8,0,1.1,0.2,1,1C43.8,20.6,43.9,22.6,43.9,24.7z"/>
	<path class="st54" d="M33.6,17.6c0,2.4,0,4.7,0,7.1c-1,0.1-1.9,0.1-2.9,0c0-2.1,0-4.2,0-6.3c0-0.6,0.2-0.8,0.8-0.8
		C32.3,17.6,33,17.6,33.6,17.6z"/>
	<path class="st56" d="M67,22.1c0,0.9,0,1.7,0.1,2.6c-0.9,0.1-1.9,0.1-2.8,0c0-0.9,0-1.7,0.1-2.6C65.2,22.1,66.1,22.1,67,22.1z"/>
	<path class="st54" d="M87.6,22.3c0,0.8,0.1,1.6,0.1,2.4c-0.9,0.1-1.9,0.1-2.8,0c0-0.8,0-1.6,0.1-2.4C85.9,22.3,86.7,22.3,87.6,22.3
		z"/>
	<path class="st54" d="M71.1,24.7c0-0.8,0.1-1.6,0.1-2.4c0.9,0,1.8,0,2.7,0c0,0.8,0,1.6,0.1,2.4C73,24.8,72,24.8,71.1,24.7z"/>
	<path class="st53" d="M87.6,22.3c-0.9,0-1.8,0-2.7,0c0-1.5,0-3.1,0-4.6c0.9,0,1.8,0,2.8,0C87.7,19.2,87.6,20.7,87.6,22.3z"/>
	<path class="st53" d="M73.8,22.3c-0.9,0-1.8,0-2.7,0c0-1.5,0-3.1,0-4.6c0.9,0,1.8,0,2.8,0C73.9,19.2,73.9,20.7,73.8,22.3z"/>
	<path class="st54" d="M78.1,24.7c0-0.8,0.1-1.6,0.1-2.4c0.9,0,1.8,0,2.7,0c0,0.8,0,1.6,0.1,2.4C80,24.8,79,24.8,78.1,24.7z"/>
	<path class="st53" d="M80.8,22.3c-0.9,0-1.8,0-2.7,0c0-1.5,0-3.1,0-4.6c0.9,0,1.8,0,2.8,0C80.9,19.2,80.9,20.7,80.8,22.3z"/>
	<path class="st53" d="M67,22.1c-0.9,0-1.8,0-2.7,0c0-1.5,0-3,0-4.5c0.9,0,1.8,0,2.7,0C67,19.1,67,20.6,67,22.1z"/>
</g>
<path class="st0" d="M122.6,110L3.2,110.2c-1.4,0-2.5-1.1-2.5-2.5v-1.8c0-1.4,1.1-2.5,2.5-2.5l119.4-0.2c1.4,0,2.5,1.1,2.5,2.5v1.8
	C125.1,108.8,124,110,122.6,110z"/>
</svg>
