<?xml version="1.0" encoding="utf-8"?>
<!-- Generator: Adobe Illustrator 26.0.1, SVG Export Plug-In . SVG Version: 6.00 Build 0)  -->
<!DOCTYPE svg PUBLIC "-//W3C//DTD SVG 1.1//EN" "http://www.w3.org/Graphics/SVG/1.1/DTD/svg11.dtd" [
	<!ENTITY ns_extend "http://ns.adobe.com/Extensibility/1.0/">
	<!ENTITY ns_ai "http://ns.adobe.com/AdobeIllustrator/10.0/">
	<!ENTITY ns_graphs "http://ns.adobe.com/Graphs/1.0/">
	<!ENTITY ns_vars "http://ns.adobe.com/Variables/1.0/">
	<!ENTITY ns_imrep "http://ns.adobe.com/ImageReplacement/1.0/">
	<!ENTITY ns_sfw "http://ns.adobe.com/SaveForWeb/1.0/">
	<!ENTITY ns_custom "http://ns.adobe.com/GenericCustomNamespace/1.0/">
	<!ENTITY ns_adobe_xpath "http://ns.adobe.com/XPath/1.0/">
]>
<svg version="1.1" id="Layer_1" xmlns:x="&ns_extend;" xmlns:i="&ns_ai;" xmlns:graph="&ns_graphs;"
	 xmlns="http://www.w3.org/2000/svg" xmlns:xlink="http://www.w3.org/1999/xlink" x="0px" y="0px" viewBox="0 0 125 110"
	 style="enable-background:new 0 0 125 110;" xml:space="preserve">
<style type="text/css">
	.st0{fill:#1B2743;}
	.st1{fill:#ACDBF5;}
	.st2{fill:#8ECEEF;}
	.st3{fill:#4E833D;}
	.st4{fill:#66A042;}
	.st5{fill:#346531;}
	.st6{fill:#8B603D;}
	.st7{fill:#3B773A;}
	.st8{fill:#305427;}
	.st9{fill:#599742;}
	.st10{fill:#315427;}
	.st11{fill:#609540;}
	.st12{fill:#548C3F;}
	.st13{fill:#865C3C;}
	.st14{fill:#7F512C;}
	.st15{fill:#296935;}
	.st16{fill:#8A5D38;}
	.st17{fill:#80532C;}
	.st18{fill:#5A903F;}
	.st19{fill:#814E29;}
	.st20{fill:#22411D;}
	.st21{fill:#815732;}
	.st22{fill:#2A4A22;}
	.st23{fill:#549040;}
	.st24{fill:#509241;}
	.st25{fill:#82522A;}
	.st26{fill:#835028;}
	.st27{fill:#804F23;}
	.st28{fill:#80522C;}
	.st29{fill:#327037;}
	.st30{fill:#824F25;}
	.st31{fill:#84532B;}
	.st32{fill:#3B783A;}
	.st33{fill:#27451F;}
	.st34{fill:#81552D;}
	.st35{fill:#27441F;}
	.st36{fill:#427939;}
	.st37{fill:#266A35;}
	.st38{fill:#5B9742;}
	.st39{fill:#7A5636;}
	.st40{fill:#82533D;}
	.st41{fill:#6DA743;}
	.st42{fill:#599942;}
	.st43{fill:#8E603E;}
	.st44{fill:#946041;}
	.st45{fill:#946042;}
	.st46{fill:#96603E;}
	.st47{fill:#82563D;}
	.st48{fill:#5F9B42;}
	.st49{fill:#4FC2F5;}
	.st50{fill:#47AEDC;}
	.st51{fill:#172238;}
	.st52{fill:#A3948E;}
	.st53{fill:#ABABAB;}
	.st54{fill:#BEBEBE;}
	.st55{fill:#D8D8D8;}
	.st56{fill:#B9B9B9;}
	.st57{fill:#FEE041;}
	.st58{fill:#FFFFFF;}
	.st59{fill:#FEE041;stroke:#1B2743;stroke-miterlimit:10;}
</style>
<metadata>
	<sfw  xmlns="&ns_sfw;">
		<slices></slices>
		<sliceSourceBounds  bottomLeftOrigin="true" height="16383" width="555.3" x="-102.5" y="-8430"></sliceSourceBounds>
	</sfw>
</metadata>
<path class="st0" d="M122.1,110L2.7,110.2c-1.4,0-2.5-1.1-2.5-2.5v-1.8c0-1.4,1.1-2.5,2.5-2.5l119.4-0.2c1.4,0,2.5,1.1,2.5,2.5v1.8
	C124.6,108.8,123.5,110,122.1,110z"/>
<rect x="32.9" y="43.1" class="st51" width="11.6" height="62.1"/>
<rect x="85.5" y="43.1" class="st51" width="11.6" height="62.1"/>
<g>
	<path class="st1" d="M90,4.3c1.1-2.9,4.4-3.6,6.4-2.3c1.8,1.1,2.4,2.7,2.1,4.8c0.9,0.4,1.6,1,1.9,2c0.1,0.2,0.2,0.3,0.4,0.3
		c1.1,0.2,1.9,1,2.1,2.2c1.5-0.1,2.9,0.1,3.4,1.9c-1.4,1.4-3.2,1.4-4.9,0.8c-0.2-0.1-0.5-0.2-0.7,0c-1.1,0.8-2.4,0.8-3.6,0.7
		c-2.2-0.2-3.9-1.9-2.8-4.2c0.1-0.1,0.1-0.2,0-0.4c-1.1,0.8-1.1,2-0.1,3.9c-0.9,0.6-2,0.9-3.1,0.5c-0.4-0.1-0.7-0.1-1.1,0.3
		c-0.7,0.7-1.6,1-2.6,0.8c-0.4-0.1-0.7,0-1,0.2c-1.6,1-2.9,0.6-3.6-1.1c-0.6,0.1-1.1-0.1-1.6-0.6c-0.7-0.6-1.1-1.5-0.9-2.4
		c0.4-1.3,1-2.4,2.4-2.9C83.5,9.1,84,9,84.4,8.5c0.2-0.3,0.6-0.4,0.9-0.6c-0.2-2.1,0.3-3.2,1.9-3.8c0.1,0.1,0.3,0.1,0.4,0.1
		c1.9-0.1,3.2,1.4,3.2,3c0,0.2,0,0.4,0.3,0.4C91.6,6.6,90.9,4.9,90,4.3z M100.1,10.2c-0.1,0-0.2,0-0.3,0.1c-0.9,0.8-1.8,0.9-2.9,0.3
		c-0.1-0.1-0.2-0.1-0.4,0C97.6,11.9,99.4,11.8,100.1,10.2c0.1-0.1,0.1-0.1,0.1-0.1c0,0-0.1,0-0.1-0.1
		C100.1,10.1,100.1,10.1,100.1,10.2z M97.3,6c-1.1-0.9-2.6-0.6-3.7,0.3c-0.9,0.9-1.3,2.6-0.7,3.6C93.1,7.2,94.6,6,97.3,6z
		 M83.9,11.4c2.1-0.4,3.4,0.6,4,2.4c0.4-0.8,0-1.8-0.8-2.4C86.3,10.8,85,10.6,83.9,11.4z"/>
	<path class="st2" d="M83,8.9c-1.4,0.4-2.1,1.6-2.4,2.9c-0.2,0.9,0.1,1.8,0.9,2.4c0.4,0.4,1,0.6,1.6,0.6c0.7,1.7,2,2.1,3.6,1.1
		c0.3-0.2,0.6-0.3,1-0.2c1,0.2,1.9-0.1,2.6-0.8c0.4-0.4,0.6-0.4,1.1-0.3c1.1,0.4,2.1,0.1,3.1-0.5c-1-1.9-1-3.2,0.1-3.9
		c0.1,0.1,0.1,0.2,0,0.4c-1.1,2.4,0.6,4.1,2.8,4.2c1.2,0.1,2.5,0.1,3.6-0.7c0.2-0.1,0.4-0.1,0.7,0c1.8,0.6,3.4,0.6,4.9-0.8
		c0.4,1.1,0,2.4-1,3.1c-1.2,0.9-2.4,0.7-4-0.5c-0.6,1.1-1.4,1.9-2.6,1.9s-2.1-0.6-2.7-1.8c-0.8,0.6-1.6,1-2.6,1
		c-1,0-1.8-0.5-2.6-1.1c-0.3,1-0.7,1.9-1.7,2.4c-1,0.5-1.9,0.4-2.9,0c-1.2,1.7-3.4,1.9-4.7-0.4c-2.1,0.2-3.1-0.2-3.5-1.6
		c-0.4-1.2,0.1-2.3,1.6-3.2c-0.6-1.7-0.4-2.9,0.7-3.8C81.1,8.6,82.1,8.4,83,8.9z"/>
	<path class="st2" d="M90,4.3c0.9,0.6,1.7,2.2,1.1,3.4c-0.3,0-0.3-0.2-0.3-0.4c-0.1-1.6-1.4-3.1-3.2-3c-0.1,0-0.3,0-0.4-0.1
		C88.1,3.5,89,3.9,90,4.3z"/>
	<path class="st2" d="M97.3,6c-2.7,0.1-4.2,1.3-4.4,3.9c-0.6-1-0.2-2.8,0.7-3.6C94.7,5.3,96.2,5.1,97.3,6z"/>
	<path class="st2" d="M83.9,11.4c1.1-0.9,2.4-0.6,3.2,0s1.1,1.6,0.8,2.4C87.2,12,86.1,11.1,83.9,11.4z"/>
	<path class="st2" d="M100.1,10.2c-0.7,1.6-2.4,1.7-3.4,0.4c0.1-0.1,0.2,0,0.4,0c1,0.6,1.9,0.5,2.9-0.3
		C99.8,10.2,99.9,10.2,100.1,10.2L100.1,10.2z"/>
	<path class="st2" d="M100.1,10.2c0-0.1,0.1-0.1,0.1-0.2c0,0,0.1,0,0.1,0.1C100.2,10.1,100.1,10.1,100.1,10.2L100.1,10.2z"/>
</g>
<path class="st0" d="M109,108.1l-85.5,0.1c-1,0-1.8-0.8-1.8-1.8v-1.3c0-1,0.8-1.8,1.8-1.8l85.5-0.1c1,0,1.8,0.8,1.8,1.8v1.3
	C110.8,107.2,110,108.1,109,108.1z"/>
<rect x="39.9" y="10.2" class="st0" width="51.5" height="93.3"/>
<path class="st58" d="M56,48.4c0,1.9,0,3.8,0,5.7c0,0.5-0.1,0.7-0.6,0.7c-2.2,0-4.3,0-6.5,0c-0.5,0-0.6-0.1-0.6-0.6
	c0-3.9,0-7.7,0-11.6c0-0.5,0.2-0.6,0.6-0.6c2.2,0,4.3,0,6.5,0c0.5,0,0.6,0.1,0.6,0.6C56,44.5,56,46.4,56,48.4z"/>
<path class="st57" d="M83.3,48.3c0,1.9,0,3.8,0,5.8c0,0.5-0.1,0.7-0.6,0.7c-2.2,0-4.3,0-6.5,0c-0.5,0-0.6-0.1-0.6-0.6
	c0-3.9,0-7.7,0-11.6c0-0.4,0.1-0.6,0.6-0.6c2.2,0,4.4,0,6.6,0c0.5,0,0.6,0.2,0.6,0.6C83.3,44.4,83.3,46.4,83.3,48.3z"/>
<path class="st58" d="M83.3,69.6c0,1.9,0,3.9,0,5.8c0,0.4-0.1,0.6-0.6,0.6c-2.2,0-4.4,0-6.6,0c-0.4,0-0.6-0.1-0.6-0.6
	c0-3.9,0-7.8,0-11.7c0-0.5,0.2-0.6,0.6-0.6c2.2,0,4.4,0,6.6,0c0.4,0,0.6,0.1,0.6,0.6C83.3,65.7,83.3,67.6,83.3,69.6z"/>
<path class="st58" d="M56,90.5c0,1.9,0,3.8,0,5.8c0,0.5-0.1,0.7-0.6,0.7c-2.2,0-4.4,0-6.6,0c-0.5,0-0.6-0.1-0.6-0.6
	c0-3.9,0-7.8,0-11.7c0-0.5,0.2-0.6,0.6-0.6c2.2,0,4.4,0,6.6,0c0.5,0,0.6,0.1,0.6,0.6C56,86.7,56,88.6,56,90.5z"/>
<path class="st58" d="M48.2,69.5c0-1.9,0-3.8,0-5.7c0-0.5,0.1-0.6,0.6-0.6c2.2,0,4.3,0,6.5,0c0.5,0,0.6,0.1,0.6,0.6
	c0,3.9,0,7.7,0,11.6c0,0.5-0.1,0.6-0.6,0.6c-2.2,0-4.3,0-6.5,0c-0.5,0-0.7-0.2-0.6-0.7C48.2,73.4,48.2,71.5,48.2,69.5z"/>
<path class="st58" d="M75.5,90.5c0-1.9,0-3.8,0-5.8c0-0.5,0.1-0.6,0.6-0.6c2.2,0,4.4,0,6.6,0c0.5,0,0.6,0.2,0.6,0.7
	c0,3.8,0,7.7,0,11.5c0,0.5-0.1,0.7-0.7,0.7c-2.1,0-4.3,0-6.4,0c-0.6,0-0.7-0.2-0.7-0.7C75.5,94.3,75.5,92.4,75.5,90.5z"/>
<path class="st57" d="M48.2,27.6c0-1.9,0-3.9,0-5.8c0-0.4,0.1-0.6,0.6-0.6c2.2,0,4.4,0,6.6,0c0.5,0,0.6,0.2,0.6,0.6
	c0,3.9,0,7.7,0,11.6c0,0.5-0.1,0.6-0.6,0.6c-2.2,0-4.4,0-6.6,0c-0.5,0-0.6-0.2-0.6-0.7C48.2,31.4,48.2,29.5,48.2,27.6z"/>
<path class="st58" d="M83.3,27.6c0,1.9,0,3.8,0,5.8c0,0.5-0.1,0.7-0.6,0.7c-2.2,0-4.4,0-6.6,0c-0.5,0-0.6-0.1-0.6-0.6
	c0-3.9,0-7.7,0-11.6c0-0.4,0.1-0.6,0.6-0.6c2.2,0,4.4,0,6.6,0c0.5,0,0.6,0.2,0.6,0.6C83.3,23.7,83.3,25.7,83.3,27.6z"/>
<path class="st58" d="M69.1,48.3c0,1.9,0,3.9,0,5.8c0,0.5-0.1,0.6-0.6,0.6c-2.2,0-4.4,0-6.6,0c-0.5,0-0.6-0.1-0.6-0.6
	c0-3.9,0-7.8,0-11.7c0-0.4,0.1-0.6,0.5-0.6c2.2,0,4.4,0,6.6,0c0.4,0,0.6,0.1,0.6,0.6C69.1,44.4,69.1,46.4,69.1,48.3z"/>
<path class="st58" d="M61.9,69.7c0-2,0-3.9,0-5.9c0-0.4,0.1-0.6,0.6-0.6c2.2,0,4.4,0,6.6,0c0.5,0,0.5,0.2,0.5,0.6
	c0,3.9,0,7.8,0,11.7c0,0.5-0.1,0.6-0.6,0.6c-2.2,0-4.4,0-6.6,0c-0.5,0-0.6-0.2-0.6-0.6C62,73.5,61.9,71.6,61.9,69.7z"/>
<path class="st58" d="M61.9,90.6c0-1.9,0-3.9,0-5.8c0-0.5,0.1-0.6,0.6-0.6c2.2,0,4.4,0,6.6,0c0.5,0,0.6,0.1,0.6,0.6
	c0,3.9,0,7.8,0,11.7c0,0.4-0.1,0.6-0.5,0.6c-2.2,0-4.4,0-6.6,0c-0.4,0-0.6-0.1-0.6-0.6C62,94.5,62,92.5,61.9,90.6z"/>
<path class="st58" d="M69.1,27.6c0,1.9,0,3.9,0,5.8c0,0.5-0.1,0.6-0.6,0.6c-2.2,0-4.4,0-6.6,0c-0.5,0-0.6-0.1-0.6-0.6
	c0-3.9,0-7.8,0-11.7c0-0.4,0.1-0.6,0.6-0.6c2.2,0,4.4,0,6.6,0c0.5,0,0.6,0.2,0.6,0.6C69.1,23.7,69.1,25.7,69.1,27.6z"/>
</svg>
