<?xml version="1.0" encoding="utf-8"?>
<!-- Generator: Adobe Illustrator 26.0.1, SVG Export Plug-In . SVG Version: 6.00 Build 0)  -->
<!DOCTYPE svg PUBLIC "-//W3C//DTD SVG 1.1//EN" "http://www.w3.org/Graphics/SVG/1.1/DTD/svg11.dtd" [
	<!ENTITY ns_extend "http://ns.adobe.com/Extensibility/1.0/">
	<!ENTITY ns_ai "http://ns.adobe.com/AdobeIllustrator/10.0/">
	<!ENTITY ns_graphs "http://ns.adobe.com/Graphs/1.0/">
	<!ENTITY ns_vars "http://ns.adobe.com/Variables/1.0/">
	<!ENTITY ns_imrep "http://ns.adobe.com/ImageReplacement/1.0/">
	<!ENTITY ns_sfw "http://ns.adobe.com/SaveForWeb/1.0/">
	<!ENTITY ns_custom "http://ns.adobe.com/GenericCustomNamespace/1.0/">
	<!ENTITY ns_adobe_xpath "http://ns.adobe.com/XPath/1.0/">
]>
<svg version="1.1" id="Layer_1" xmlns:x="&ns_extend;" xmlns:i="&ns_ai;" xmlns:graph="&ns_graphs;"
	 xmlns="http://www.w3.org/2000/svg" xmlns:xlink="http://www.w3.org/1999/xlink" x="0px" y="0px" viewBox="0 0 125 110"
	 style="enable-background:new 0 0 125 110;" xml:space="preserve">
<style type="text/css">
	.st0{fill:#FEE041;}
	.st1{fill:#010101;}
	.st2{fill:#010201;}
	.st3{fill:#FEFEFE;}
	.st4{fill:#FFFFFF;}
	.st5{fill:#1B2743;}
	.st6{fill:#F1F0F2;}
	.st7{fill:#F8F7F9;}
	.st8{fill:#F5F5F5;}
	.st9{fill:#ACDBF5;}
	.st10{fill:#8ECEEF;}
	.st11{fill:#4E833D;}
	.st12{fill:#66A042;}
	.st13{fill:#346531;}
	.st14{fill:#8B603D;}
	.st15{fill:#3B773A;}
	.st16{fill:#305427;}
	.st17{fill:#599742;}
	.st18{fill:#315427;}
	.st19{fill:#609540;}
	.st20{fill:#548C3F;}
	.st21{fill:#865C3C;}
	.st22{fill:#7F512C;}
	.st23{fill:#296935;}
	.st24{fill:#8A5D38;}
	.st25{fill:#80532C;}
	.st26{fill:#5A903F;}
	.st27{fill:#814E29;}
	.st28{fill:#22411D;}
	.st29{fill:#815732;}
	.st30{fill:#2A4A22;}
	.st31{fill:#549040;}
	.st32{fill:#509241;}
	.st33{fill:#82522A;}
	.st34{fill:#835028;}
	.st35{fill:#804F23;}
	.st36{fill:#80522C;}
	.st37{fill:#327037;}
	.st38{fill:#824F25;}
	.st39{fill:#84532B;}
	.st40{fill:#3B783A;}
	.st41{fill:#27451F;}
	.st42{fill:#81552D;}
	.st43{fill:#27441F;}
	.st44{fill:#427939;}
	.st45{fill:#266A35;}
	.st46{fill:#5B9742;}
	.st47{fill:#7A5636;}
	.st48{fill:#82533D;}
	.st49{fill:#6DA743;}
	.st50{fill:#599942;}
	.st51{fill:#8E603E;}
	.st52{fill:#946041;}
	.st53{fill:#946042;}
	.st54{fill:#96603E;}
	.st55{fill:#82563D;}
	.st56{fill:#5F9B42;}
</style>
<metadata>
	<sfw  xmlns="&ns_sfw;">
		<slices></slices>
		<sliceSourceBounds  bottomLeftOrigin="true" height="2983.9" width="2975.9" x="-1103.9" y="-1201.9"></sliceSourceBounds>
	</sfw>
</metadata>
<circle class="st0" cx="96.7" cy="25.7" r="25.4"/>
<g>
	<path class="st5" d="M63.2,108.4c-19.1,0-38.3,0-57.4,0c-0.5,0-1,0-1.5-0.1c-1.2-0.3-2.1-1.5-2-2.7c0.1-1.3,1-2.4,2.3-2.5
		c1.2-0.1,1.2-0.6,1.2-1.5c0-21.6,0-43.1,0-64.7c0-2.3,0.4-2.9,2.5-3.8c9.7-4,19.4-8,29-12c2.6-1.1,4.3,0.1,4.3,3
		c0,9.2,0,18.4,0,27.6c0,1,0.2,1.3,1.2,1.2c2.3-0.1,2.3,0,2.3-2.4c0-4.6,0-9.2,0-13.8c0-2.1,0.4-2.7,2.3-3.5c9.7-4,19.4-7.9,29-12
		c2.8-1.2,4.6,0.5,4.5,3.1c-0.1,9.1,0,18.2-0.1,27.3c0,1.1,0.2,1.5,1.3,1.4c2.2-0.1,2.2,0,2.2-2.2c0-4.7,0-9.4,0-14.1
		c0-1.9,0.5-2.6,2.2-3.4c9.8-4,19.5-8,29.3-12.1c2.7-1.1,4.4,0.1,4.4,3c0,25.8,0,51.6,0,77.4c0,0.9,0.1,1.5,1.2,1.5
		c1.5,0.1,2.5,1.5,2.3,2.9c-0.2,1.4-1.3,2.4-2.9,2.4c-6.2,0-12.3,0-18.5,0C89.5,108.4,76.4,108.4,63.2,108.4z M75.7,46.4
		c0-6,0-11.9,0-17.9c0-1-0.2-1.1-1.1-0.7c-7.7,3.2-15.4,6.4-23.1,9.5c-0.6,0.3-0.8,0.6-0.8,1.3c0,8.5,0,17.1,0,25.6
		c0,0.9,0.2,1.1,1.1,1.1c7.6,0,15.3,0,22.9,0c0.9,0,1.1-0.3,1.1-1.1C75.7,58.3,75.7,52.4,75.7,46.4z M115,46.5c0-5.9,0-11.8,0-17.7
		c0-1.1-0.1-1.4-1.2-0.9c-7.5,3.2-15.1,6.3-22.7,9.3c-0.8,0.3-1.1,0.8-1.1,1.6c0,8.4,0,16.9,0,25.3c0,0.9,0.1,1.3,1.2,1.3
		c7.5-0.1,15.1,0,22.6,0c0.9,0,1.2-0.2,1.2-1.1C115,58.3,115,52.4,115,46.5z M36.3,27.6c-0.3,0-0.4,0-0.4,0
		C27.9,30.9,20,34.1,12,37.4c-0.7,0.3-0.7,0.7-0.7,1.3c0,8.6,0,17.1,0,25.7c0,0.9,0.2,1.1,1.1,1.1c7.5,0,15.1,0,22.6,0
		c1.1,0,1.3-0.3,1.3-1.3c0-11.7,0-23.5,0-35.2C36.3,28.5,36.3,28,36.3,27.6z M75.7,86.9c0-5,0-10.1,0-15.1c0-0.7-0.2-1-1-1
		c-7.7,0-15.4,0-23.1,0c-0.8,0-1,0.3-1,1c0,3,0,6,0,8.9c0,7,0,14,0,21c0,0.9,0.2,1.3,1.2,1.2c1-0.1,1.9-0.1,2.9,0
		c1.1,0.1,1.3-0.3,1.3-1.3c0-7.2,0-14.4,0-21.6c0-2.1,0-2.1,2-2.1c3.5,0,7,0,10.4,0c2,0,2,0,2,2.1c0,7.3,0,14.6,0,21.9
		c0,0.8,0.2,1.1,1,1.1c1-0.1,2.1-0.1,3.1,0c1,0.1,1.2-0.2,1.2-1.2C75.7,96.8,75.7,91.9,75.7,86.9z M115,86.9c0-5,0-10.1,0-15.1
		c0-0.6,0.1-1-0.8-1c-7.8,0-15.6,0-23.4,0c-0.6,0-0.8,0.1-0.8,0.8c0,10.2,0,20.4,0,30.6c0,0.7,0.3,0.8,0.9,0.8c1.1,0,2.2-0.1,3.3,0
		c1,0.1,1.2-0.3,1.2-1.3c0-7.4,0-14.8,0-22.3c0-1.1,0.4-1.5,1.5-1.5c3.7,0.1,7.5,0,11.2,0c1.6,0,1.6,0.1,1.6,1.6
		c0,7.4,0,14.8,0,22.3c0,0.8,0.1,1.2,1.1,1.1c1.1-0.1,2.2-0.1,3.3,0c0.9,0.1,1-0.3,1-1.1C115,96.9,115,91.9,115,86.9z M36.3,86.9
		c0-5,0-10.1,0-15.1c0-0.6,0.1-1-0.8-1c-7.8,0-15.6,0-23.4,0c-0.6,0-0.8,0.1-0.8,0.8c0,10.2,0,20.4,0,30.6c0,0.7,0.3,0.8,0.9,0.8
		c1,0,2.1-0.1,3.1,0c1,0.1,1.3-0.2,1.3-1.3c-0.1-7.4,0-14.8,0-22.1c0-1.5,0.1-1.6,1.7-1.6c3.7,0,7.4,0,11.1,0c1.6,0,1.6,0,1.6,1.6
		c0,7.4,0,14.8,0,22.3c0,0.9,0.2,1.2,1.1,1.1c1-0.1,1.9-0.1,2.9,0c1,0.1,1.4-0.1,1.4-1.3C36.2,96.7,36.3,91.8,36.3,86.9z M29.2,91.4
		c0-3.6,0-7.1,0-10.7c0-0.7-0.1-1-1-1c-2.9,0.1-5.9,0-8.8,0c-0.8,0-1,0.2-1,1c0,7.1,0,14.2,0,21.3c0,0.8,0.2,1,1,1
		c2.9,0,5.9,0,8.8,0c0.8,0,1-0.2,1-1C29.2,98.5,29.2,94.9,29.2,91.4z M97.2,91.4c0,3.5,0,7,0,10.6c0,0.8,0.2,1,1,1
		c2.9,0,5.9,0,8.8,0c0.8,0,1-0.2,1-1c0-7.1,0-14.2,0-21.3c0-0.8-0.2-1-1-1c-2.9,0-5.9,0-8.8,0c-0.8,0-1,0.3-1,1
		C97.2,84.3,97.2,87.8,97.2,91.4z M57.9,91.2c0,3.6,0,7.1,0,10.7c0,0.7,0.1,1,0.9,1c2.9-0.1,5.9,0,8.8,0c0.7,0,0.9-0.2,0.9-0.9
		c0-7.1,0-14.3,0-21.4c0-0.8-0.2-1-1-1c-2.9,0-5.7,0.1-8.6,0c-0.9,0-1.1,0.2-1.1,1.1C57.9,84.3,57.9,87.8,57.9,91.2z M45.3,76.1
		c0-5.2,0-10.3,0-15.5c0-2.3,0-2.3-2.2-2.3c-1,0-1.3,0.2-1.3,1.3c0,10.8,0,21.6,0,32.3c0,2.2,0,2.1,2.2,2.2c1,0,1.3-0.2,1.3-1.3
		C45.3,87.2,45.3,81.6,45.3,76.1z M84.6,76.2c0-5.2,0-10.4,0-15.6c0-2.3,0-2.2-2.3-2.3c-1.1,0-1.3,0.3-1.3,1.3c0,10.7,0,21.3,0,32
		c0,2.6,0,2.5,2.5,2.6c0.8,0,1-0.2,1-1C84.6,87.4,84.6,81.8,84.6,76.2z M43.5,102.9c0.7,0,1.9,0.2,1.9-1.3c0-2.2,0-2.2-1.6-2.2
		c-2,0-2,0-2,1.5C41.8,102.9,41.8,102.9,43.5,102.9z M83.2,102.9c1,0,1.4,0,1.4-1.4c0-2.1,0-2.1-1.5-2.1c-2.1,0-2.1,0-2.1,1.6
		C81.1,102.9,81.1,102.9,83.2,102.9z"/>
	<path class="st5" d="M66.7,53.7c0-1.2,0-2.4,0-3.6c0-0.5,0-0.9,0.7-0.8c1.3,0,2.7,0,4,0c0.6,0,0.8,0.3,0.8,0.8c0,2.5,0,4.9,0,7.4
		c0,0.7-0.2,0.9-0.9,0.8c-1.3,0-2.5-0.1-3.8,0c-0.8,0-0.9-0.3-0.9-1C66.8,56.1,66.7,54.9,66.7,53.7z"/>
	<path class="st5" d="M32.7,53.6c0,1.3,0,2.5,0,3.8c0,0.5-0.2,0.8-0.7,0.7c-1.3,0-2.7,0-4,0c-0.6,0-0.8-0.3-0.8-0.8
		c0-2.5,0-4.9,0-7.4c0-0.6,0.2-0.8,0.8-0.8c1.3,0,2.6,0.1,3.9,0c0.7,0,0.8,0.3,0.8,0.9C32.7,51.2,32.7,52.4,32.7,53.6z"/>
	<path class="st5" d="M99,48.5c0,1.2,0,2.3,0,3.5c0,0.7-0.1,1-0.9,1c-1.2-0.1-2.4,0-3.6,0c-0.6,0-0.9-0.1-0.9-0.8c0-2.5,0-4.9,0-7.4
		c0-0.6,0.1-0.8,0.8-0.8c1.3,0,2.6,0,3.9,0c0.6,0,0.8,0.2,0.8,0.8C99,46,99,47.2,99,48.5z"/>
	<path class="st5" d="M111.5,53.5c0,1.5,0,2.7,0,3.9c0,0.6-0.1,0.9-0.8,0.9c-1.3-0.1-2.6,0-3.9,0c-0.5,0-0.7-0.2-0.7-0.7
		c0-2.6,0-5.1,0-7.7c0-0.5,0.1-0.7,0.6-0.7c0.1,0,0.2,0,0.3,0c1.5,0,2.9,0,4.4,0.1C111.7,50.8,111.4,52.3,111.5,53.5z"/>
	<path class="st5" d="M14.9,48.4c0-0.2,0-0.3,0-0.5c0.1-1.3-0.2-2.6,0.1-3.9c1.6,0,3.2,0,4.8-0.1c0.5,0,0.5,0.3,0.5,0.6
		c0,2.6,0,5.1,0,7.7c0,0.5-0.1,0.7-0.6,0.7c-1.4,0-2.8,0-4.2,0c-0.7,0-0.6-0.4-0.6-0.8C14.9,50.9,14.9,49.6,14.9,48.4z"/>
	<path class="st5" d="M54,48.4c0-0.2,0-0.3,0-0.5c0.1-1.3-0.2-2.6,0.1-3.9c1.6,0,3.2,0,4.8-0.1c0.5,0,0.5,0.3,0.5,0.6
		c0,2.6,0,5.1,0,7.7c0,0.5-0.1,0.7-0.6,0.7c-1.4,0-2.8,0-4.2,0C54,53,54,52.6,54,52.1C54,50.9,54,49.6,54,48.4z"/>
	<path class="st5" d="M29.9,105H18.1c-1.3,0-2.4-1.1-2.4-2.4v-23c0-1.3,1.1-2.4,2.4-2.4h11.8c1.3,0,2.4,1.1,2.4,2.4v23
		C32.3,103.9,31.2,105,29.9,105z"/>
	<path class="st5" d="M68.6,105H56.9c-1.3,0-2.4-1.1-2.4-2.4v-23c0-1.3,1.1-2.4,2.4-2.4h11.8c1.3,0,2.4,1.1,2.4,2.4v23
		C71.1,103.9,70,105,68.6,105z"/>
	<path class="st5" d="M108.7,105H97c-1.3,0-2.4-1.1-2.4-2.4v-23c0-1.3,1.1-2.4,2.4-2.4h11.8c1.3,0,2.4,1.1,2.4,2.4v23
		C111.2,103.9,110.1,105,108.7,105z"/>
</g>
</svg>
