<?xml version="1.0" encoding="utf-8"?>
<!-- Generator: Adobe Illustrator 26.0.1, SVG Export Plug-In . SVG Version: 6.00 Build 0)  -->
<!DOCTYPE svg PUBLIC "-//W3C//DTD SVG 1.1//EN" "http://www.w3.org/Graphics/SVG/1.1/DTD/svg11.dtd" [
	<!ENTITY ns_extend "http://ns.adobe.com/Extensibility/1.0/">
	<!ENTITY ns_ai "http://ns.adobe.com/AdobeIllustrator/10.0/">
	<!ENTITY ns_graphs "http://ns.adobe.com/Graphs/1.0/">
	<!ENTITY ns_vars "http://ns.adobe.com/Variables/1.0/">
	<!ENTITY ns_imrep "http://ns.adobe.com/ImageReplacement/1.0/">
	<!ENTITY ns_sfw "http://ns.adobe.com/SaveForWeb/1.0/">
	<!ENTITY ns_custom "http://ns.adobe.com/GenericCustomNamespace/1.0/">
	<!ENTITY ns_adobe_xpath "http://ns.adobe.com/XPath/1.0/">
]>
<svg version="1.1" id="Layer_1" xmlns:x="&ns_extend;" xmlns:i="&ns_ai;" xmlns:graph="&ns_graphs;"
	 xmlns="http://www.w3.org/2000/svg" xmlns:xlink="http://www.w3.org/1999/xlink" x="0px" y="0px" viewBox="0 0 125 110"
	 style="enable-background:new 0 0 125 110;" xml:space="preserve">
<style type="text/css">
	.st0{fill:#FEE041;}
	.st1{fill:#010101;}
	.st2{fill:#010201;}
	.st3{fill:#FEFEFE;}
	.st4{fill:#FFFFFF;}
	.st5{fill:#1B2743;}
	.st6{fill:#F1F0F2;}
	.st7{fill:#F8F7F9;}
	.st8{fill:#F5F5F5;}
	.st9{fill:#ACDBF5;}
	.st10{fill:#8ECEEF;}
	.st11{fill:#4E833D;}
	.st12{fill:#66A042;}
	.st13{fill:#346531;}
	.st14{fill:#8B603D;}
	.st15{fill:#3B773A;}
	.st16{fill:#305427;}
	.st17{fill:#599742;}
	.st18{fill:#315427;}
	.st19{fill:#609540;}
	.st20{fill:#548C3F;}
	.st21{fill:#865C3C;}
	.st22{fill:#7F512C;}
	.st23{fill:#296935;}
	.st24{fill:#8A5D38;}
	.st25{fill:#80532C;}
	.st26{fill:#5A903F;}
	.st27{fill:#814E29;}
	.st28{fill:#22411D;}
	.st29{fill:#815732;}
	.st30{fill:#2A4A22;}
	.st31{fill:#549040;}
	.st32{fill:#509241;}
	.st33{fill:#82522A;}
	.st34{fill:#835028;}
	.st35{fill:#804F23;}
	.st36{fill:#80522C;}
	.st37{fill:#327037;}
	.st38{fill:#824F25;}
	.st39{fill:#84532B;}
	.st40{fill:#3B783A;}
	.st41{fill:#27451F;}
	.st42{fill:#81552D;}
	.st43{fill:#27441F;}
	.st44{fill:#427939;}
	.st45{fill:#266A35;}
	.st46{fill:#5B9742;}
	.st47{fill:#7A5636;}
	.st48{fill:#82533D;}
	.st49{fill:#6DA743;}
	.st50{fill:#599942;}
	.st51{fill:#8E603E;}
	.st52{fill:#946041;}
	.st53{fill:#946042;}
	.st54{fill:#96603E;}
	.st55{fill:#82563D;}
	.st56{fill:#5F9B42;}
</style>
<metadata>
	<sfw  xmlns="&ns_sfw;">
		<slices></slices>
		<sliceSourceBounds  bottomLeftOrigin="true" height="2983.9" width="2975.9" x="-1103.9" y="-1201.9"></sliceSourceBounds>
	</sfw>
</metadata>
<path class="st5" d="M122.3,109L2.9,109.2c-1.4,0-2.5-1.1-2.5-2.5l0-1.8c0-1.4,1.1-2.5,2.5-2.5l119.4-0.2c1.4,0,2.5,1.1,2.5,2.5
	l0,1.8C124.8,107.8,123.7,109,122.3,109z"/>
<path class="st5" d="M103.2,97.5c-0.1,0-0.1,0-0.2,0c-1.6-0.2-3.8,0.7-4.6-0.3c-0.8-1-0.2-3.1-0.2-4.7c0-2.6-0.9-3.9-2.8-4
	c-1.8-0.1-3.1,1.1-3.2,3.1c-0.1,1.6-0.1,3.2,0,4.9c0,0.8-0.2,1.1-1.1,1.2c-4,0.1-4,0.2-4-3.9c0-7.5,0-15,0-22.5c0-1,0.2-1.7,0.9-2.4
	c2.2-2.3,4.3-4.7,6.3-7.2c0.7-0.9,1.1-0.8,1.7,0c2.3,2.7,4.8,5.3,7.1,8C103.2,79,103.2,88.2,103.2,97.5z"/>
<path class="st5" d="M37,97.5c-0.1,0-0.1,0-0.2,0c-1.6-0.2-3.8,0.7-4.6-0.3c-0.8-1-0.2-3.1-0.2-4.7c0-2.6-0.9-3.9-2.8-4
	c-1.8-0.1-3.1,1.1-3.2,3.1c-0.1,1.6-0.1,3.2,0,4.9c0,0.8-0.2,1.1-1.1,1.2c-4,0.1-4,0.2-4-3.9c0-7.5,0-15,0-22.5c0-1,0.2-1.7,0.9-2.4
	c2.2-2.3,4.3-4.7,6.3-7.2c0.7-0.9,1.1-0.8,1.7,0c2.3,2.7,4.8,5.3,7.1,8C37,79,37,88.2,37,97.5z"/>
<path class="st5" d="M120.6,20.9c-2.6,3.3-4.9,6.4-7.2,9.4c-0.9,1.2-2.4,1.6-4.5,1.6c-31.1,0-62.2,0-93.3,0c-2.1,0-3.5-0.4-4.5-1.6
	c-2.3-3-4.6-6.1-7.2-9.4C42.9,20.9,81.3,20.9,120.6,20.9z"/>
<path class="st5" d="M39.5,76.6c0-6.5,0-13,0-19.5c0-1.4,0.4-1.9,1.8-2.3c6.5-1.6,12.9-3.5,19.4-5.2c1.1-0.3,2.2-0.3,3.3,0
	c6.5,1.8,12.9,3.6,19.4,5.2c1.3,0.3,1.7,0.8,1.7,2.1c0,13.1,0,26.2,0,39.2c0,1.4-0.4,1.8-1.8,1.7c-1.8-0.1-3.6-0.1-5.4,0
	C76.4,98,76,97.5,76,96c0.1-10.2,0-20.5,0.1-30.7c0-2-0.4-2.8-2.5-2.6c-2.2,0.2-5-0.7-6.3,0.4c-1.4,1.2-0.4,4.1-0.4,6.3
	c0,8.8-0.1,17.6,0,26.3c0,1.7-0.4,2.3-2.1,2.1c-2.3-0.3-5.4,1-6.7-0.5c-1.1-1.3-0.4-4.3-0.4-6.6c0-8.7,0-17.4,0-26.1
	c0-1.6-0.4-2.1-2-2c-1.7,0.1-3.4,0.1-5.1,0c-1.7-0.1-2.2,0.4-2.2,2.1c0.1,10.1,0,20.2,0.1,30.2c0,2.1-0.4,3.1-2.7,2.8
	c-2-0.3-4.6,0.6-5.9-0.4c-1.3-1.1-0.4-3.8-0.4-5.8C39.5,86.6,39.5,81.6,39.5,76.6z"/>
<path class="st5" d="M62.3,35.3c19,0,37.9,0.1,56.9-0.1c3.1,0,4.4,0.5,4.2,4c-0.3,5.3-0.3,10.6,0,15.8c0.1,3-0.8,3.9-3.7,3.5
	c-1.8-0.2-3.7,0-5.6,0c-0.9,0-2.3,0.1-2.1-1.1c0.7-4.5-2.9-4.1-5.3-4.8C92.9,48.8,79,45.2,65.2,41.5c-2-0.5-3.9-0.6-5.9,0
	C44.8,45.4,30.4,49.3,15.9,53c-2.1,0.6-4,0.9-3.6,3.7c0.2,1.4-0.7,1.7-2,1.8c-8.7,1.2-9.4,0.7-9.4-8C1,47,1.3,43.4,1,39.9
	c-0.3-3.5,0.6-4.7,4.4-4.6C24.4,35.5,43.3,35.3,62.3,35.3z"/>
<g>
	<path class="st11" d="M21.6,86c-0.4,0-0.8-0.2-1.2-0.3c-0.3-0.1-0.4-0.3-0.6-0.5c-0.1-0.1-0.2-0.3-0.4-0.2
		c-0.9,0.4-1.7,0.3-2.6,0.1c-0.2-0.2-0.5-0.3-0.7-0.5c-0.3-0.3-0.6-0.6-0.8-1c-0.1-0.3-0.4-0.3-0.7-0.3c-0.1,0-0.2,0-0.3,0
		c-0.2,0-0.5,0-0.6-0.2c-0.2-0.1-0.5-0.2-0.6-0.4c0.1-0.4,0.3-0.7,0.4-1.1c0.3-1.1,0.1-2.1-0.6-3.1c0,0,0-0.1-0.1-0.1
		c0-0.5,0.4-0.7,0.8-1c0.6-0.5,1.4-0.7,2.2-0.7c0.3,0,0.4-0.1,0.5-0.4c0.4-2.7,3.4-4.2,5.8-2.8c0,0,0.1,0,0.1,0.1
		c0.4,0.4,0.6,1,0.7,1.5c0,0.3,0.2,0.4,0.4,0.5c2.3,0.5,3.6,3.1,2.5,5.3c-0.2,0.4-0.1,0.6,0.2,0.7c0.5,0.3,0.7,1,0.6,1.6
		c-0.2,0,0,0.2-0.1,0.3c-0.2,0.8-1.2,1.5-2,1.2c-0.3-0.1-0.4,0-0.6,0.2c-0.4,0.7-1.1,1.2-1.9,1.3C21.9,86,21.8,86,21.6,86z"/>
	<path class="st12" d="M0.9,83.8c-0.2-1,0.2-1.7,0.9-2.3C2,81.3,2.1,81.2,2,80.9c-1-2.4-0.3-4.9,1.9-6.3c0.1-0.1,0.3-0.1,0.3-0.3
		c0.2-0.1,0.4-0.1,0.6-0.2C5.2,74,5.6,73.8,6,73.8c0.3,0.1,0.6,0.1,0.9,0c1.1,0,2,0.5,2.8,1.1c0.1,0.1,0.2,0.1,0.2,0.2
		c0.3,0.4,0.6,0.6,1.2,0.3c0.8-0.3,1.4,0.1,1.7,1c0,0.1,0,0.1,0,0.2c-0.2,0.5-0.1,1,0.2,1.5l0,0c0.6,1,0.4,3-0.8,4
		c-0.6,0.6-1.3,1-2.2,1.1c-0.4,0-0.7,0.2-0.8,0.6c-0.4,1.3-2,2-3.3,1.5c-0.2-0.1-0.4-0.2-0.6-0.2c0,0-0.1,0-0.1-0.1
		c0,0-0.1-0.1-0.1-0.1c-0.2-0.2-0.3-0.4-0.6-0.5c-0.3-0.1-0.4,0.2-0.6,0.3c-0.9,0.4-1.8,0.5-2.6-0.1C1.2,84.6,1,84.3,1,84
		C1,83.9,1,83.8,0.9,83.8c0.1,0,0.1-0.1,0-0.1C1,83.7,1,83.7,0.9,83.8z"/>
	<path class="st13" d="M12.7,76.6c-0.1-0.1-0.1-0.2-0.2-0.3c-0.4-0.7-1-0.9-1.7-0.5c-0.3,0.2-0.4,0.1-0.6-0.1c-0.9-1-2-1.6-3.3-1.7
		c-0.3,0.1-0.6,0-0.9,0c-0.5,0-0.9,0.2-1.3,0.3c-0.1-0.2,0-0.4,0.1-0.6c0.8-1.8,2.3-2.6,4.4-2.3c0.4,0.1,0.5,0,0.6-0.4
		c1-2.7,4.4-3.4,6.3-1.4c0.2,0.2,0.2,0.4,0.4,0.5c0.1,0,0.3,0,0.4,0c0.1,0.2-0.3,0.1-0.2,0.3c0.2,0.3,0.2,0.8,0.7,0.8
		c0.5,0.1,0.9,0.1,1.3,0.4c0.1,0.1,0.4,0.1,0.3,0.4c-0.2,0.1-0.4,0.1-0.6,0.2c-1.6,0.5-2.5,1.5-2.7,3.2c0,0.3-0.1,0.5-0.4,0.4
		c-0.8-0.1-1.5,0.1-2.2,0.6C13,76.5,12.9,76.6,12.7,76.6z"/>
	<path class="st14" d="M15.8,89.6c0,0.1,0,0.3-0.1,0.4c-0.1,0.4-0.1,0.8,0,1.2c0.1,0.1,0.1,0.2,0.1,0.3c-0.1,0.4,0,0.7,0.2,1
		c0.3,1.1,0.8,2.2,1.3,3.2c0,0.2,0.1,0.4,0.2,0.6c0.3,0.3,0.4,0.7,0.5,1c-0.2,0.1-0.4,0-0.5,0.1c-0.3-0.1-0.6-0.2-0.9-0.2
		c-0.2-0.1-0.3-0.1-0.5,0c-0.2,0.2-0.1,0.6-0.5,0.7c-0.2,0-0.4-0.1-0.6,0c-0.3,0-0.6-0.1-0.8-0.3c-0.2-0.2-0.3-0.2-0.5-0.2
		c-0.4-0.1-0.7,0-1.1,0c-0.1-0.1-0.3,0-0.4,0c0,0,0,0,0,0c0,0,0,0,0,0c-0.1,0.1-0.2,0.1-0.3,0.1c-0.3,0-0.6,0-0.9,0
		c-0.3-0.1-0.2-0.3-0.1-0.4c0.2-0.7,0.5-1.5,0.8-2.2c0.4-1.1,0.7-2.1,0.9-3.2c0.1-0.4,0.1-0.4,0-0.8c-0.1-0.2-0.1-0.3-0.1-0.5
		c0-0.1,0.1-0.3,0-0.4c-0.1-0.4-0.2-0.8-0.3-1.3c-0.1-0.3-0.2-0.6-0.3-0.9c-0.2-0.4-0.4-0.8-0.5-1.2c0-0.2,0-0.3-0.2-0.3
		c-0.1-0.1-0.3-0.3-0.2-0.5c0.4-0.1,0.8-0.2,1.1-0.4c0.1,0,0.2,0,0.3,0.1c0.1,0,0.3,0.2,0.4,0c0.4-0.2,0.6-0.6,1-0.9
		c0.3,0.1,0.6,0.2,0.9,0.3c0.1,0.2,0.1,0.4,0,0.6c0,0.1-0.1-0.1-0.2,0.1c-0.1,0.4,0.1,0.9,0,1.3c0,0,0,0,0,0c0,0,0,0,0,0
		c0.3,0.3,0.3,0.3,0.6,0c0.2-0.3,0.3-0.7,0.6-0.9c0.1-0.1,0.2-0.1,0.3,0c0.2,0.2,0.5,0.3,0.6,0.6c0,0.1,0,0.2,0,0.3
		c-0.1,0.2-0.2,0.4-0.2,0.6c0,0,0,0.1,0,0.1c-0.2,0.1-0.2,0.2-0.1,0.3c-0.1,0.4-0.2,0.9-0.3,1.3C15.7,89.3,15.8,89.5,15.8,89.6z"/>
	<path class="st15" d="M16.5,70.1C16,69.7,15.6,69.3,15,69c-1.4-0.8-3.6-0.3-4.5,0.9c-0.3,0.4-0.6,0.9-0.7,1.4
		c-0.1,0.2-0.1,0.3-0.4,0.2C7.3,71,5.5,72,4.8,74c0,0,0,0.1-0.1,0.1c-0.2,0.1-0.3,0.3-0.5,0.1c-0.2-1.9,1-3.7,3.1-4.1
		c0.1,0,0.2,0,0.4,0c0.2,0.1,0.3,0.1,0.5,0c0.2-0.1,0.5,0,0.7,0.1c0.3,0.1,0.4,0.1,0.6-0.3c0.3-0.8,0.8-1.5,1.5-2
		c0.2,0,0.3-0.1,0.4-0.2c0.3-0.2,0.7-0.3,1-0.3c0.4,0.1,0.7,0.1,1.1,0C15,67.7,16,68.6,16.5,70.1z"/>
	<path class="st16" d="M11.1,86.5c0.1,0.4,0.4,0.8,0.5,1.3c-0.3,0-0.5-0.3-0.7-0.4c-0.2,0-0.3,0.2-0.4,0.3c-0.6,0.5-1.2,0.8-1.9,0.8
		c-0.3-0.1-0.5-0.1-0.8,0C6,88.3,5,87.3,4.5,85.7c0.2-0.4,0.5-0.6,0.8-0.5l0,0c0.2,0.1,0.3,0.2,0.4,0.3c1.2,1.1,2.8,0.9,3.7-0.5
		c0.1-0.2,0.2-0.3,0.3-0.5c0.5,0.2,0.8,0.7,0.9,1.2c0.1,0.2,0.1,0.3,0.3,0.5C11.1,86.3,11.1,86.4,11.1,86.5z"/>
	<path class="st17" d="M12.7,76.6c0.8-0.6,1.7-1,2.7-0.9c0.3,0,0.2-0.1,0.2-0.3c0.1-1.7,1.2-2.9,2.8-3.4c0.4,0.1,0.8-0.1,1.3-0.1
		c0,0,0.1,0,0.1,0c0.1,0,0.2,0,0.3,0.1c0.2,0.1,0.3,0.2,0.5,0.1c0.1,0,0.3,0.1,0.4,0.2c0.1,0.2,0.2,0.2,0.4,0.2
		c0.3,0.2,0.7,0.5,0.9,0.8c-0.2,0.1-0.3,0-0.4-0.1c-2.2-1.2-5.1,0.3-5.4,2.8c0,0.3,0,0.6-0.6,0.6c-1,0-2,0.3-2.7,1.2
		c-0.1,0.1-0.2,0.2-0.2,0.4c-0.1-0.2-0.2-0.4-0.4-0.5c-0.1-0.1-0.1-0.2-0.1-0.3C12.7,77.2,12.7,76.9,12.7,76.6z"/>
	<path class="st18" d="M16.2,87.5C16.2,87.5,16.2,87.4,16.2,87.5c-0.1-0.3,0.1-0.5,0.1-0.7c0.1-0.1,0.1-0.2,0.1-0.3
		c0-0.2,0-0.4,0.1-0.6c0-0.1,0.1-0.3,0.1-0.4c0.1-0.2,0-0.4,0.2-0.5c0.3-0.2,0.6,0.1,0.8,0.1c0.6,0.1,1.2,0,1.7-0.2
		c0.3-0.1,0.4-0.1,0.6,0.2c0.1,0.2,0.4,0.4,0.5,0.6c0,0.2,0.1,0.5-0.1,0.7c0,0,0-0.1-0.1-0.1c0,0.1,0,0.2,0,0.3
		c-0.3,0.9-0.8,1.5-1.7,1.7c-0.1,0-0.1,0-0.2,0c0,0-0.1,0-0.1,0c0,0,0.1,0,0.1,0c-0.9,0.3-1.6-0.1-2.2-0.6
		C16.2,87.6,16.1,87.6,16.2,87.5C16.2,87.5,16.2,87.5,16.2,87.5z"/>
	<path class="st15" d="M19.8,72c0,0-0.1,0-0.1,0c-0.2,0.1-0.4,0.1-0.6,0c-0.4-0.3-0.9-0.5-1.5-0.5c-0.4-0.1-1-0.6-1-1.1
		c0-0.2,0.3,0,0.4-0.2c0.7,0.1,1.4,0.3,2,0.8C19.2,71.3,19.5,71.6,19.8,72z"/>
	<path class="st19" d="M5.4,85.2c-0.4-0.1-0.6,0.3-0.8,0.5c-0.2,0.1-0.4,0.1-0.6,0.2c-0.4,0-0.7,0-1.1,0c-0.1,0-0.3-0.1-0.4-0.1
		c-0.2-0.1-0.3-0.3-0.5-0.3c-0.2-0.1-0.4-0.2-0.4-0.5c0.1,0,0.2,0,0.4,0.1c1,0.4,1.8,0.3,2.6-0.4c0.2-0.2,0.3-0.2,0.4,0.1
		C5,84.8,5.3,84.9,5.4,85.2z"/>
	<path class="st20" d="M2.8,85.8c0.4-0.1,0.7-0.1,1.1,0C3.5,86,3.1,85.9,2.8,85.8z"/>
	<path class="st21" d="M16,92.5c-0.3-0.3-0.3-0.6-0.2-1C15.9,91.8,15.9,92.1,16,92.5z"/>
	<path class="st22" d="M15.7,91.2c-0.2-0.4-0.2-0.8,0-1.2C15.7,90.4,15.7,90.8,15.7,91.2z"/>
	<path class="st23" d="M13.4,67.4c-0.4,0.1-0.7,0.1-1.1,0C12.7,67.3,13.1,67.3,13.4,67.4z"/>
	<path class="st24" d="M13.5,97.5c0.3-0.1,0.5-0.1,0.5,0.2C13.9,97.6,13.7,97.5,13.5,97.5z"/>
	<path class="st25" d="M12.3,90.8c0.2,0.3,0,0.6,0.1,0.9c0,0,0,0,0,0c0,0,0-0.1-0.1-0.1C12.3,91.4,12.3,91.1,12.3,90.8z"/>
	<path class="st26" d="M1.9,85.4c0.3-0.2,0.4,0.1,0.5,0.3C2.2,85.6,2,85.5,1.9,85.4z"/>
	<path class="st27" d="M10.8,97.5c0.3-0.1,0.6-0.1,0.9,0C11.4,97.5,11.1,97.6,10.8,97.5z"/>
	<path class="st28" d="M7.7,88.5c0.3-0.1,0.5-0.1,0.8,0C8.3,88.5,8,88.5,7.7,88.5z"/>
	<path class="st29" d="M17.5,96.3c-0.2-0.2-0.4-0.3-0.2-0.6C17.4,95.9,17.5,96.1,17.5,96.3z"/>
	<path class="st30" d="M10.5,87.7c0-0.2,0.1-0.4,0.4-0.3C10.7,87.5,10.6,87.6,10.5,87.7z"/>
	<path class="st31" d="M21.3,72.5c-0.2,0.2-0.3,0-0.4-0.2C21.1,72.4,21.2,72.5,21.3,72.5z"/>
	<path class="st32" d="M20.6,72.2c-0.2,0.1-0.4,0.1-0.5-0.1C20.3,72.1,20.4,72.1,20.6,72.2z"/>
	<path class="st33" d="M15.8,89.6c-0.1-0.2-0.1-0.4-0.1-0.5c0-0.1,0,0,0.1,0.1C15.8,89.3,15.8,89.5,15.8,89.6z"/>
	<path class="st34" d="M16,97.1c0.2-0.1,0.4-0.1,0.5-0.1c0,0,0,0,0,0c0,0,0,0,0,0C16.4,97.2,16.2,97.2,16,97.1z"/>
	<path class="st35" d="M14.9,97.9c0.2-0.1,0.4-0.1,0.6,0C15.3,97.9,15.1,97.9,14.9,97.9z"/>
	<path class="st36" d="M12,97.4C12,97.4,11.8,97.4,12,97.4c0.1-0.1,0.3-0.2,0.4,0C12.3,97.4,12.1,97.4,12,97.4z"/>
	<path class="st37" d="M11.3,67.7c-0.1,0.2-0.2,0.3-0.4,0.2C11,67.9,11.2,67.8,11.3,67.7z"/>
	<path class="st38" d="M17.5,97.4c0.2-0.1,0.4,0,0.5-0.1C17.9,97.6,17.7,97.4,17.5,97.4z"/>
	<path class="st39" d="M12.2,89.9c0.2,0.1,0.1,0.3,0,0.4C12.2,90.2,12.2,90.1,12.2,89.9z"/>
	<path class="st40" d="M21.6,86c0.2-0.1,0.3-0.1,0.5,0C21.9,86,21.8,86,21.6,86z"/>
	<path class="st41" d="M20.3,86.5c-0.1-0.1-0.1-0.2,0-0.4c0,0.1,0,0.2,0.1,0.3C20.3,86.4,20.3,86.4,20.3,86.5z"/>
	<path class="st42" d="M16.2,87.5c0,0,0,0.1,0,0.1c-0.1,0.1-0.1,0.2-0.1,0.3C16,87.7,15.9,87.6,16.2,87.5z"/>
	<path class="st43" d="M18.4,88.2c-0.1,0-0.1,0-0.3,0c0.2-0.1,0.3-0.1,0.4,0C18.5,88.2,18.5,88.2,18.4,88.2z"/>
	<path class="st44" d="M26.6,83.3c0-0.1,0-0.2,0-0.3c0,0,0-0.1,0.1-0.1c0,0,0,0.1,0,0.1C26.7,83.1,26.7,83.2,26.6,83.3z"/>
	<path class="st45" d="M8.1,70.2c-0.2,0.1-0.3,0.1-0.5,0C7.8,70.2,8,70.2,8.1,70.2z"/>
	<path class="st46" d="M0.9,83.8c0,0,0-0.1,0-0.1c0.1,0,0.1,0,0.1,0.1c0,0.1,0,0.2-0.1,0.3C0.9,83.9,0.9,83.8,0.9,83.8z"/>
	<path class="st19" d="M9.8,84.6c-0.6,1.6-2.2,2.2-3.6,1.4c-0.3-0.2-0.6-0.5-0.8-0.8c0.1-0.1,0.2,0,0.3,0C7.2,86,9,85,9.2,83.6
		c0-0.2,0.2-0.3,0.4-0.3c1.3-0.1,2.3-0.6,3-1.7c0.5-0.8,0.6-1.7,0.4-2.7c0-0.2-0.1-0.4-0.1-0.6c0.7,0.7,0.9,1.7,0.8,2.6
		c-0.1,0.6-0.3,1.2-0.6,1.7c-0.6,0.9-1.5,1.5-2.6,1.6c-0.2-0.1-0.3-0.2-0.5,0C9.9,84.2,10,84.5,9.8,84.6z"/>
	<path class="st18" d="M10.6,84c0.7-0.1,1.4-0.4,1.9-0.9c0.2-0.2,0.4-0.4,0.7-0.6c0.2,0.1,0.4,0.2,0.5,0.3c0.1,0.6,0.1,1.2-0.3,1.7
		c-0.2,0.4-0.4,0.8-0.9,0.9c-0.2,0.1-0.3,0.1-0.5,0c-0.1,0-0.2-0.1-0.3-0.1c-0.7-0.1-1.1-0.7-1.6-1.3c0,0,0-0.1,0-0.2
		C10.4,84,10.5,83.9,10.6,84z"/>
	<path class="st18" d="M15.5,85.9c-0.2,0.3-0.4,0.7-0.6,1c-0.1,0.2-0.2,0.4-0.4,0.4c-0.2,0-0.1-0.3-0.3-0.4c0-0.5-0.2-0.9,0-1.4
		c0.1-0.2,0.1-0.4,0.1-0.7c-0.2-0.3,0-0.7,0-1c0-0.2,0-0.3,0.1-0.5c0-0.1,0.1-0.1,0.1-0.2c0.4-0.1,0.8,0.1,0.9,0.5
		c0.1,0.4,0.5,0.6,0.7,0.9C16.1,85,15.9,85.5,15.5,85.9z"/>
	<path class="st47" d="M14.5,83.3c-0.1,0.5-0.1,1-0.2,1.6c-0.4,0.1-0.6-0.1-0.9-0.3c0.1-0.6,0.2-1.1,0.3-1.7
		c0.2,0.1,0.4,0.1,0.6,0.2C14.3,83.2,14.5,83.2,14.5,83.3z"/>
	<path class="st47" d="M15.5,85.9c0.2-0.5,0.4-1,0.6-1.5c0.2,0.2,0.5,0.3,0.7,0.5c0,0.2,0,0.4-0.1,0.6c-0.1,0.1-0.2,0.2-0.1,0.4
		c-0.1,0.2-0.1,0.4-0.2,0.6c-0.2-0.2-0.5-0.2-0.6-0.5C15.8,85.9,15.7,85.9,15.5,85.9z"/>
	<path class="st48" d="M14.5,83.3c-0.1,0-0.3,0-0.3-0.2c0.1,0,0.2,0,0.3,0C14.5,83.2,14.5,83.2,14.5,83.3z"/>
	<path class="st49" d="M6,73.9c0.3,0,0.6,0,0.9,0C6.6,74,6.3,74,6,73.9z"/>
	<path class="st50" d="M19,72c0.2,0,0.4,0,0.6,0c-0.4,0.2-0.8,0.4-1.3,0.1C18.6,72,18.8,72,19,72z"/>
	<path class="st47" d="M10.2,84c0.5,0.5,0.9,1,1.6,1.4c-0.3,0.3-0.7,0.5-1.1,0.4c-0.3-0.4-0.6-0.8-0.9-1.2c0.1-0.2,0-0.4,0.2-0.6
		C10,83.9,10.1,83.9,10.2,84z"/>
	<path class="st51" d="M14.3,85.5c0,0.5,0,0.9,0,1.4c0,0,0,0,0,0c0,0,0,0,0,0c-0.1-0.2-0.2-1.4,0-1.5C14.2,85.4,14.2,85.4,14.3,85.5
		C14.3,85.4,14.3,85.5,14.3,85.5z"/>
	<path class="st52" d="M16.3,86.8c0,0.2-0.1,0.4-0.1,0.6C16,87.2,16.2,87,16.3,86.8z"/>
	<path class="st53" d="M12.1,85.5c0.2,0,0.3,0,0.5,0C12.4,85.6,12.2,85.6,12.1,85.5z"/>
	<path class="st54" d="M11.1,86.5c-0.1-0.1-0.1-0.2-0.2-0.3C11.2,86.2,11.2,86.3,11.1,86.5z"/>
	<path class="st55" d="M16.6,85.9c-0.2-0.2-0.1-0.3,0.1-0.4C16.6,85.7,16.6,85.8,16.6,85.9z"/>
	<path class="st56" d="M10.2,84c-0.1,0-0.2,0-0.3,0c0.2-0.3,0.4-0.1,0.6,0C10.5,84,10.3,84,10.2,84z"/>
</g>
</svg>
